{
.appVersion = "3097";
.formatVersion = 3;
DisplayStrings = (
"TUESDAYG ALT
THURSDAY
SATURDAY
SUNDAY",
"ABCDEFGHIJKLMN
OPQRSTUVWXYZ/O.ss01/O.ss02/O.ss03 
HOONLH MORNING
WEDNESDAY
WHO KNOWS
gLOVE THOU
WOW QUEN",
"ABCDEFGHIJKLM
NOPQRSTUVWXYZ/O.ss01/O.ss02/O.ss03 
cabcdefghijklm
nopqrstnuvwxyz
adhesion hendai
que jajajaja yay
Thx",

glyphs = (
{
glyphname = A;
lastChange = "2021-08-18 12:30:01 +0000";
layers = (
{
anchors = (
{
name = bottom;
pos = (298,0);
},
{
name = ogonek;
pos = (536,10);
},
{
name = top;
pos = (328,730);
}
);
background = {
shapes = (
{
closed = 1;
nodes = (
(211,-7,o),
(248,38,o),
(265,126,cs),
(275,177,o),
(285,241,o),
(284,307,c),
(186,241,l),
(252,219,o),
(344,218,o),
(393,234,c),
(320,309,l),
(315,249,o),
(314,183,o),
(320,123,cs),
(329,29,o),
(372,-7,o),
(444,-7,cs),
(530,-7,o),
(580,45,o),
(580,163,cs),
(580,312,o),
(548,473,o),
(510,575,cs),
(464,696,o),
(396,739,o),
(316,739,cs),
(238,739,o),
(172,703,o),
(114,570,cs),
(56,438,o),
(15,245,o),
(15,147,cs),
(15,31,o),
(54,-7,o),
(127,-7,cs)
);
},
{
closed = 1;
nodes = (
(267,369,o),
(239,393,o),
(239,430,cs),
(239,477,o),
(268,527,o),
(312,527,cs),
(356,527,o),
(383,480,o),
(383,437,cs),
(383,395,o),
(355,369,o),
(310,369,cs)
);
}
);
};
layerId = m01;
shapes = (
{
closed = 1;
nodes = (
(124,-7,o),
(138,40,o),
(155,126,cs),
(165,177,o),
(175,241,o),
(174,307,c),
(136,251,l),
(234,219,o),
(370,218,o),
(443,244,c),
(440,309,l),
(435,249,o),
(434,183,o),
(440,123,cs),
(449,30,o),
(467,-7,o),
(504,-7,cs),
(539,-7,o),
(560,24,o),
(560,93,cs),
(560,237,o),
(523,435,o),
(470,575,cs),
(426,692,o),
(375,739,o),
(316,739,cs),
(257,739,o),
(209,697,o),
(154,570,cs),
(85,413,o),
(35,191,o),
(35,77,cs),
(35,14,o),
(50,-7,o),
(77,-7,cs)
);
},
{
closed = 1;
nodes = (
(233,319,o),
(199,339,o),
(199,380,cs),
(199,458,o),
(254,637,o),
(312,637,cs),
(371,637,o),
(423,460,o),
(423,387,cs),
(423,341,o),
(390,319,o),
(310,319,cs)
);
}
);
width = 595;
},
{
anchors = (
{
name = bottom;
pos = (298,0);
},
{
name = ogonek;
pos = (536,10);
},
{
name = top;
pos = (328,730);
}
);
layerId = m003;
shapes = (
{
closed = 1;
nodes = (
(211,-7,o),
(248,38,o),
(265,126,cs),
(275,177,o),
(285,241,o),
(284,307,c),
(186,241,l),
(252,219,o),
(344,218,o),
(393,234,c),
(320,309,l),
(315,249,o),
(314,183,o),
(320,123,cs),
(329,29,o),
(372,-7,o),
(444,-7,cs),
(530,-7,o),
(580,45,o),
(580,163,cs),
(580,312,o),
(548,473,o),
(510,575,cs),
(464,696,o),
(396,739,o),
(316,739,cs),
(238,739,o),
(172,703,o),
(114,570,cs),
(56,438,o),
(15,245,o),
(15,147,cs),
(15,31,o),
(54,-7,o),
(127,-7,cs)
);
},
{
closed = 1;
nodes = (
(267,369,o),
(239,393,o),
(239,430,cs),
(239,477,o),
(268,527,o),
(312,527,cs),
(356,527,o),
(383,480,o),
(383,437,cs),
(383,395,o),
(355,369,o),
(310,369,cs)
);
}
);
width = 595;
}
);
metricRight = "=|";
unicode = 65;
},
{
glyphname = B;
lastChange = "2021-08-18 13:43:25 +0000";
layers = (
{
anchors = (
{
name = bottom;
pos = (292,0);
},
{
name = center;
pos = (292,365);
},
{
name = top;
pos = (292,730);
}
);
background = {
shapes = (
{
closed = 1;
nodes = (
(396,-5,o),
(564,99,o),
(564,245,cs),
(564,356,o),
(496,407,o),
(385,407,c),
(313,384,l),
(452,409,o),
(559,464,o),
(559,583,cs),
(559,672,o),
(499,739,o),
(342,739,cs),
(199,739,o),
(120,708,o),
(83,652,cs),
(47,597,o),
(25,503,o),
(25,285,cs),
(25,197,o),
(32,130,o),
(52,83,cs),
(77,21,o),
(139,-5,o),
(231,-5,cs)
);
},
{
closed = 1;
nodes = (
(257,163,o),
(238,186,o),
(238,230,cs),
(238,282,o),
(272,310,o),
(314,310,cs),
(365,310,o),
(388,280,o),
(388,241,cs),
(388,194,o),
(350,163,o),
(296,163,cs)
);
},
{
closed = 1;
nodes = (
(267,453,o),
(245,474,o),
(245,516,cs),
(245,562,o),
(275,587,o),
(317,587,cs),
(361,587,o),
(385,563,o),
(385,528,cs),
(385,482,o),
(351,453,o),
(302,453,cs)
);
}
);
};
layerId = m01;
shapes = (
{
closed = 1;
nodes = (
(381,-5,o),
(524,99,o),
(524,245,cs),
(524,349,o),
(456,397,o),
(345,397,c),
(273,364,l),
(412,391,o),
(519,452,o),
(519,583,cs),
(519,667,o),
(470,739,o),
(342,739,cs),
(226,739,o),
(168,705,o),
(133,652,cs),
(97,597,o),
(75,503,o),
(75,285,cs),
(75,197,o),
(82,130,o),
(102,83,cs),
(126,23,o),
(170,-5,o),
(241,-5,cs)
);
},
{
closed = 1;
nodes = (
(197,96,o),
(168,126,o),
(168,213,cs),
(168,301,o),
(208,333,o),
(274,333,cs),
(373,333,o),
(418,290,o),
(418,234,cs),
(418,155,o),
(350,96,o),
(256,96,cs)
);
},
{
closed = 1;
nodes = (
(209,423,o),
(175,445,o),
(175,516,cs),
(175,605,o),
(230,637,o),
(307,637,cs),
(377,637,o),
(415,601,o),
(415,548,cs),
(415,475,o),
(349,423,o),
(262,423,cs)
);
}
);
width = 584;
},
{
anchors = (
{
name = bottom;
pos = (292,0);
},
{
name = center;
pos = (292,365);
},
{
name = top;
pos = (292,730);
}
);
layerId = m003;
shapes = (
{
closed = 1;
nodes = (
(396,-5,o),
(564,99,o),
(564,245,cs),
(564,356,o),
(496,407,o),
(385,407,c),
(313,384,l),
(452,409,o),
(559,464,o),
(559,583,cs),
(559,672,o),
(499,739,o),
(342,739,cs),
(199,739,o),
(120,708,o),
(83,652,cs),
(47,597,o),
(25,503,o),
(25,285,cs),
(25,197,o),
(32,130,o),
(52,83,cs),
(77,21,o),
(139,-5,o),
(231,-5,cs)
);
},
{
closed = 1;
nodes = (
(257,163,o),
(238,186,o),
(238,230,cs),
(238,282,o),
(272,310,o),
(314,310,cs),
(365,310,o),
(388,280,o),
(388,241,cs),
(388,194,o),
(350,163,o),
(296,163,cs)
);
},
{
closed = 1;
nodes = (
(267,453,o),
(245,474,o),
(245,516,cs),
(245,562,o),
(275,587,o),
(317,587,cs),
(361,587,o),
(385,563,o),
(385,528,cs),
(385,482,o),
(351,453,o),
(302,453,cs)
);
}
);
width = 584;
}
);
metricLeft = H;
unicode = 66;
},
{
glyphname = C;
lastChange = "2021-08-18 11:51:40 +0000";
layers = (
{
anchors = (
{
name = bottom;
pos = (299,0);
},
{
name = top;
pos = (299,730);
}
);
background = {
shapes = (
{
closed = 1;
nodes = (
(509,-11,o),
(577,51,o),
(577,149,cs),
(577,227,o),
(532,267,o),
(461,267,cs),
(429,267,o),
(372,257,o),
(337,257,cs),
(280,257,o),
(243,282,o),
(243,349,cs),
(243,423,o),
(287,448,o),
(339,448,cs),
(391,448,o),
(417,423,o),
(471,423,cs),
(550,423,o),
(593,470,o),
(593,546,cs),
(593,648,o),
(516,710,o),
(376,710,cs),
(148,710,o),
(15,559,o),
(15,331,cs),
(15,124,o),
(127,-11,o),
(361,-11,cs)
);
}
);
};
layerId = m01;
shapes = (
{
closed = 1;
nodes = (
(485,-11,o),
(557,25,o),
(557,69,cs),
(557,101,o),
(535,117,o),
(501,117,cs),
(474,117,o),
(408,97,o),
(357,97,cs),
(239,97,o),
(163,165,o),
(163,349,cs),
(163,528,o),
(253,588,o),
(359,588,cs),
(429,588,o),
(469,553,o),
(511,553,cs),
(551,553,o),
(573,573,o),
(573,606,cs),
(573,663,o),
(493,710,o),
(376,710,cs),
(173,710,o),
(55,559,o),
(55,331,cs),
(55,124,o),
(154,-11,o),
(361,-11,cs)
);
}
);
width = 598;
},
{
anchors = (
{
name = bottom;
pos = (299,0);
},
{
name = top;
pos = (299,730);
}
);
layerId = m003;
shapes = (
{
closed = 1;
nodes = (
(509,-11,o),
(577,51,o),
(577,149,cs),
(577,227,o),
(532,267,o),
(461,267,cs),
(429,267,o),
(372,257,o),
(337,257,cs),
(280,257,o),
(243,282,o),
(243,349,cs),
(243,423,o),
(287,448,o),
(339,448,cs),
(391,448,o),
(417,423,o),
(471,423,cs),
(550,423,o),
(593,470,o),
(593,546,cs),
(593,648,o),
(516,710,o),
(376,710,cs),
(148,710,o),
(15,559,o),
(15,331,cs),
(15,124,o),
(127,-11,o),
(361,-11,cs)
);
}
);
width = 598;
}
);
metricLeft = O;
unicode = 67;
},
{
glyphname = D;
lastChange = "2021-08-18 12:09:08 +0000";
layers = (
{
anchors = (
{
name = bottom;
pos = (321,0);
},
{
name = center;
pos = (321,365);
},
{
name = top;
pos = (321,730);
}
);
background = {
shapes = (
{
closed = 1;
nodes = (
(447,-23,o),
(626,151,o),
(626,390,cs),
(626,595,o),
(483,735,o),
(220,735,cs),
(77,735,o),
(10,686,o),
(10,606,cs),
(10,548,o),
(47,515,o),
(131,515,cs),
(175,515,o),
(222,525,o),
(250,537,c),
(126,547,l),
(103,448,o),
(100,248,o),
(122,142,c),
(160,183,l),
(57,172,o),
(25,129,o),
(26,69,cs),
(27,14,o),
(57,-23,o),
(177,-23,cs)
);
},
{
closed = 1;
nodes = (
(294,226,o),
(285,274,o),
(285,385,cs),
(285,489,o),
(292,516,o),
(317,516,cs),
(358,516,o),
(395,453,o),
(395,363,cs),
(395,279,o),
(364,226,o),
(328,226,cs)
);
}
);
};
layerId = m01;
shapes = (
{
closed = 1;
nodes = (
(423,-23,o),
(586,151,o),
(586,390,cs),
(586,595,o),
(457,735,o),
(220,735,cs),
(91,735,o),
(30,705,o),
(30,656,cs),
(30,630,o),
(61,615,o),
(131,615,cs),
(175,615,o),
(222,625,o),
(250,637,c),
(176,627,l),
(143,492,o),
(140,218,o),
(172,72,c),
(180,83,l),
(77,78,o),
(46,57,o),
(46,29,cs),
(47,-2,o),
(73,-23,o),
(177,-23,cs)
);
},
{
closed = 1;
nodes = (
(264,96,o),
(250,194,o),
(250,369,cs),
(250,539,o),
(262,636,o),
(304,636,cs),
(371,636,o),
(475,553,o),
(475,375,cs),
(475,190,o),
(379,96,o),
(316,96,cs)
);
}
);
width = 641;
},
{
anchors = (
{
name = bottom;
pos = (321,0);
},
{
name = center;
pos = (321,365);
},
{
name = top;
pos = (321,730);
}
);
layerId = m003;
shapes = (
{
closed = 1;
nodes = (
(447,-23,o),
(626,151,o),
(626,390,cs),
(626,595,o),
(483,735,o),
(220,735,cs),
(77,735,o),
(10,686,o),
(10,606,cs),
(10,548,o),
(47,515,o),
(131,515,cs),
(175,515,o),
(222,525,o),
(250,537,c),
(126,547,l),
(103,448,o),
(100,248,o),
(122,142,c),
(160,183,l),
(57,172,o),
(25,129,o),
(26,69,cs),
(27,14,o),
(57,-23,o),
(177,-23,cs)
);
},
{
closed = 1;
nodes = (
(294,226,o),
(285,274,o),
(285,385,cs),
(285,489,o),
(292,516,o),
(317,516,cs),
(358,516,o),
(395,453,o),
(395,363,cs),
(395,279,o),
(364,226,o),
(328,226,cs)
);
}
);
width = 641;
}
);
metricLeft = "=|E";
metricRight = O;
unicode = 68;
},
{
glyphname = E;
lastChange = "2021-08-18 11:48:18 +0000";
layers = (
{
anchors = (
{
name = bottom;
pos = (254,0);
},
{
name = ogonek;
pos = (465,10);
},
{
name = top;
pos = (254,730);
},
{
name = topleft;
pos = (10,730);
}
);
background = {
shapes = (
{
closed = 1;
nodes = (
(234,736,o),
(121,712,o),
(72,645,cs),
(38,599,o),
(15,514,o),
(15,323,cs),
(15,188,o),
(26,118,o),
(54,70,cs),
(83,20,o),
(149,-6,o),
(249,-6,cs),
(320,-6,o),
(401,7,o),
(446,29,cs),
(489,50,o),
(506,81,o),
(506,127,cs),
(506,199,o),
(465,229,o),
(380,229,cs),
(325,229,o),
(254,219,o),
(208,204,c),
(213,189,l),
(235,223,o),
(235,279,o),
(218,313,c),
(202,301,l),
(254,291,o),
(306,286,o),
(349,286,cs),
(447,286,o),
(483,325,o),
(483,374,cs),
(483,419,o),
(452,454,o),
(366,454,cs),
(315,454,o),
(244,444,o),
(205,433,c),
(221,426,l),
(232,460,o),
(232,499,o),
(219,531,c),
(209,518,l),
(258,513,o),
(305,511,o),
(341,511,cs),
(455,511,o),
(508,549,o),
(508,626,cs),
(508,697,o),
(468,736,o),
(358,736,cs)
);
}
);
};
layerId = m01;
shapes = (
{
closed = 1;
nodes = (
(266,736,o),
(176,710,o),
(129,646,cs),
(98,599,o),
(75,514,o),
(75,323,cs),
(75,183,o),
(89,109,o),
(114,59,cs),
(137,15,o),
(190,-6,o),
(269,-6,cs),
(326,-6,o),
(388,9,o),
(426,22,cs),
(469,37,o),
(486,53,o),
(486,77,cs),
(486,107,o),
(458,119,o),
(400,119,cs),
(323,119,o),
(223,101,o),
(158,74,c),
(163,69,l),
(180,144,o),
(177,268,o),
(153,343,c),
(142,331,l),
(204,321,o),
(274,316,o),
(349,316,cs),
(432,316,o),
(463,342,o),
(463,374,cs),
(463,402,o),
(437,424,o),
(366,424,cs),
(299,424,o),
(207,414,o),
(155,403,c),
(156,396,l),
(174,472,o),
(177,560,o),
(169,631,c),
(159,618,l),
(230,613,o),
(298,611,o),
(351,611,cs),
(445,611,o),
(488,633,o),
(488,676,cs),
(488,715,o),
(456,736,o),
(368,736,cs)
);
}
);
width = 518;
},
{
anchors = (
{
name = bottom;
pos = (264,0);
},
{
name = ogonek;
pos = (475,10);
},
{
name = top;
pos = (264,730);
},
{
name = topleft;
pos = (20,730);
}
);
layerId = m003;
shapes = (
{
closed = 1;
nodes = (
(244,736,o),
(131,712,o),
(82,645,cs),
(48,599,o),
(25,514,o),
(25,323,cs),
(25,188,o),
(36,118,o),
(64,70,cs),
(93,20,o),
(159,-6,o),
(259,-6,cs),
(330,-6,o),
(411,7,o),
(456,29,cs),
(499,50,o),
(516,81,o),
(516,127,cs),
(516,199,o),
(475,229,o),
(390,229,cs),
(335,229,o),
(264,219,o),
(218,204,c),
(223,189,l),
(245,223,o),
(245,279,o),
(228,313,c),
(212,301,l),
(264,291,o),
(316,286,o),
(359,286,cs),
(457,286,o),
(493,325,o),
(493,374,cs),
(493,419,o),
(462,454,o),
(376,454,cs),
(325,454,o),
(254,444,o),
(215,433,c),
(231,426,l),
(242,460,o),
(242,499,o),
(229,531,c),
(219,518,l),
(268,513,o),
(315,511,o),
(351,511,cs),
(465,511,o),
(518,549,o),
(518,626,cs),
(518,697,o),
(478,736,o),
(368,736,cs)
);
}
);
width = 528;
}
);
metricLeft = H;
unicode = 69;
},
{
glyphname = F;
lastChange = "2021-08-18 12:20:56 +0000";
layers = (
{
anchors = (
{
name = bottom;
pos = (242,0);
},
{
name = top;
pos = (242,730);
}
);
background = {
shapes = (
{
closed = 1;
nodes = (
(237,716,o),
(129,689,o),
(82,625,cs),
(48,579,o),
(25,475,o),
(25,293,cs),
(25,157,o),
(34,79,o),
(51,39,cs),
(68,-5,o),
(107,-26,o),
(159,-26,cs),
(231,-26,o),
(276,16,o),
(276,107,cs),
(276,175,o),
(258,251,o),
(241,283,c),
(192,291,l),
(248,248,o),
(303,226,o),
(359,226,cs),
(429,226,o),
(463,264,o),
(463,314,cs),
(463,401,o),
(402,433,o),
(215,443,c),
(231,426,l),
(238,458,o),
(238,489,o),
(229,511,c),
(219,485,l),
(242,482,o),
(264,481,o),
(281,481,cs),
(415,481,o),
(478,519,o),
(478,604,cs),
(478,673,o),
(436,716,o),
(328,716,cs)
);
}
);
};
layerId = m01;
shapes = (
{
closed = 1;
nodes = (
(264,716,o),
(168,694,o),
(132,645,cs),
(97,597,o),
(75,486,o),
(75,293,cs),
(75,166,o),
(86,65,o),
(101,19,cs),
(111,-10,o),
(125,-26,o),
(149,-26,cs),
(184,-26,o),
(206,3,o),
(206,67,cs),
(206,154,o),
(186,283,o),
(168,343,c),
(159,341,l),
(246,278,o),
(332,246,o),
(389,246,cs),
(425,246,o),
(443,267,o),
(443,294,cs),
(443,344,o),
(375,394,o),
(165,413,c),
(173,396,l),
(187,467,o),
(188,555,o),
(179,611,c),
(169,598,l),
(229,593,o),
(287,591,o),
(331,591,cs),
(417,591,o),
(458,610,o),
(458,654,cs),
(458,692,o),
(430,716,o),
(358,716,cs)
);
}
);
width = 483;
},
{
anchors = (
{
name = bottom;
pos = (242,0);
},
{
name = top;
pos = (242,730);
}
);
background = {
shapes = (
{
closed = 1;
nodes = (
(228,736,o),
(130,711,o),
(82,645,cs),
(48,599,o),
(25,514,o),
(25,323,cs),
(25,177,o),
(38,102,o),
(64,50,cs),
(86,7,o),
(118,-6,o),
(159,-6,cs),
(225,-6,o),
(266,21,o),
(266,107,cs),
(266,164,o),
(248,226,o),
(231,253,c),
(192,251,l),
(244,241,o),
(296,236,o),
(339,236,cs),
(437,236,o),
(473,279,o),
(473,334,cs),
(473,385,o),
(442,424,o),
(356,424,cs),
(311,424,o),
(249,414,o),
(215,403,c),
(231,396,l),
(238,446,o),
(238,496,o),
(229,531,c),
(219,508,l),
(261,503,o),
(300,501,o),
(331,501,cs),
(445,501,o),
(498,539,o),
(498,624,cs),
(498,693,o),
(466,736,o),
(348,736,cs)
);
}
);
};
layerId = m003;
shapes = (
{
closed = 1;
nodes = (
(237,716,o),
(129,689,o),
(82,625,cs),
(48,579,o),
(25,475,o),
(25,293,cs),
(25,157,o),
(34,79,o),
(51,39,cs),
(68,-5,o),
(107,-26,o),
(159,-26,cs),
(231,-26,o),
(276,16,o),
(276,107,cs),
(276,175,o),
(258,251,o),
(241,283,c),
(192,291,l),
(248,248,o),
(303,226,o),
(359,226,cs),
(429,226,o),
(463,264,o),
(463,314,cs),
(463,401,o),
(402,433,o),
(215,443,c),
(231,426,l),
(238,458,o),
(238,489,o),
(229,511,c),
(219,485,l),
(242,482,o),
(264,481,o),
(281,481,cs),
(415,481,o),
(478,519,o),
(478,604,cs),
(478,673,o),
(436,716,o),
(328,716,cs)
);
}
);
width = 483;
}
);
metricLeft = H;
metricRight = T;
unicode = 70;
},
{
glyphname = G;
lastChange = "2021-08-18 13:13:25 +0000";
layers = (
{
anchors = (
{
name = bottom;
pos = (324,0);
},
{
name = top;
pos = (324,730);
}
);
background = {
shapes = (
{
closed = 1;
nodes = (
(551,270,l),
(618,279,o),
(646,308,o),
(646,349,cs),
(646,398,o),
(595,427,o),
(495,427,cs),
(359,427,o),
(281,382,o),
(281,321,cs),
(281,267,o),
(322,251,o),
(473,260,c)
);
},
{
closed = 1;
nodes = (
(442,294,l),
(444,215,o),
(432,177,o),
(352,177,cs),
(276,177,o),
(223,222,o),
(223,329,cs),
(223,445,o),
(290,488,o),
(369,488,cs),
(403,488,o),
(445,483,o),
(481,483,cs),
(560,483,o),
(603,522,o),
(603,586,cs),
(603,681,o),
(533,730,o),
(406,730,cs),
(169,730,o),
(15,565,o),
(15,331,cs),
(15,124,o),
(120,-11,o),
(341,-11,cs),
(535,-11,o),
(617,87,o),
(617,185,cs),
(617,229,o),
(601,261,o),
(561,284,c)
);
}
);
};
layerId = m01;
shapes = (
{
closed = 1;
nodes = (
(541,290,l),
(601,297,o),
(626,318,o),
(626,349,cs),
(626,368,o),
(613,380,o),
(588,387,cs),
(564,394,o),
(532,397,o),
(495,397,cs),
(430,397,o),
(355,384,o),
(320,368,cs),
(294,356,o),
(281,340,o),
(281,321,cs),
(281,290,o),
(300,278,o),
(364,278,cs),
(396,278,o),
(431,280,o),
(473,286,c)
);
},
{
closed = 1;
nodes = (
(462,294,l),
(477,254,o),
(485,210,o),
(485,183,cs),
(485,125,o),
(453,97,o),
(372,97,cs),
(243,97,o),
(153,166,o),
(153,329,cs),
(153,540,o),
(261,618,o),
(389,618,cs),
(458,618,o),
(494,593,o),
(531,593,cs),
(565,593,o),
(583,609,o),
(583,636,cs),
(583,680,o),
(520,730,o),
(406,730,cs),
(193,730,o),
(55,565,o),
(55,331,cs),
(55,124,o),
(154,-11,o),
(361,-11,cs),
(520,-11,o),
(587,77,o),
(587,165,cs),
(587,199,o),
(574,253,o),
(541,304,c)
);
}
);
width = 648;
},
{
anchors = (
{
name = bottom;
pos = (324,0);
},
{
name = top;
pos = (324,730);
}
);
layerId = m003;
shapes = (
{
closed = 1;
nodes = (
(551,270,l),
(618,279,o),
(646,308,o),
(646,349,cs),
(646,382,o),
(623,406,o),
(578,418,cs),
(556,424,o),
(528,427,o),
(495,427,cs),
(429,427,o),
(376,416,o),
(340,398,cs),
(301,379,o),
(281,352,o),
(281,321,cs),
(281,276,o),
(309,258,o),
(404,258,cs),
(424,258,o),
(447,258,o),
(473,260,c)
);
},
{
closed = 1;
nodes = (
(439,314,l),
(441,302,o),
(442,291,o),
(442,279,cs),
(442,210,o),
(427,177,o),
(352,177,cs),
(276,177,o),
(223,222,o),
(223,329,cs),
(223,445,o),
(290,488,o),
(369,488,cs),
(403,488,o),
(445,483,o),
(481,483,cs),
(560,483,o),
(603,522,o),
(603,586,cs),
(603,681,o),
(533,730,o),
(406,730,cs),
(169,730,o),
(15,565,o),
(15,331,cs),
(15,124,o),
(120,-11,o),
(341,-11,cs),
(535,-11,o),
(617,87,o),
(617,185,cs),
(617,229,o),
(601,261,o),
(561,284,c)
);
}
);
width = 648;
}
);
metricLeft = O;
unicode = 71;
},
{
glyphname = H;
lastChange = "2021-08-18 12:22:31 +0000";
layers = (
{
anchors = (
{
name = bottom;
pos = (304,0);
},
{
name = center;
pos = (304,365);
},
{
name = top;
pos = (304,730);
},
{
name = topleft;
pos = (12,730);
}
);
background = {
shapes = (
{
closed = 1;
nodes = (
(98,735,o),
(61,689,o),
(44,614,cs),
(27,541,o),
(17,435,o),
(17,327,cs),
(17,239,o),
(22,155,o),
(32,102,cs),
(48,20,o),
(87,-8,o),
(151,-8,cs),
(226,-8,o),
(274,32,o),
(274,122,cs),
(274,196,o),
(253,271,o),
(220,341,c),
(203,315,l),
(267,295,o),
(336,294,o),
(397,315,c),
(361,338,l),
(339,270,o),
(326,198,o),
(326,134,cs),
(326,36,o),
(359,-5,o),
(441,-5,cs),
(521,-5,o),
(556,34,o),
(571,123,cs),
(584,201,o),
(590,295,o),
(590,383,cs),
(590,471,o),
(582,565,o),
(569,625,cs),
(553,702,o),
(517,741,o),
(445,741,cs),
(372,741,o),
(335,701,o),
(335,624,cs),
(335,570,o),
(343,497,o),
(360,426,c),
(393,428,l),
(336,453,o),
(262,455,o),
(196,432,c),
(227,419,l),
(256,485,o),
(272,564,o),
(272,622,cs),
(272,697,o),
(235,735,o),
(170,735,cs)
);
}
);
};
layerId = m01;
shapes = (
{
closed = 1;
nodes = (
(135,735,o),
(116,713,o),
(104,654,cs),
(87,571,o),
(75,450,o),
(75,327,cs),
(75,223,o),
(82,124,o),
(93,62,cs),
(103,8,o),
(119,-8,o),
(151,-8,cs),
(187,-8,o),
(204,14,o),
(204,82,cs),
(204,180,o),
(173,279,o),
(150,371,c),
(153,335,l),
(249,315,o),
(352,314,o),
(445,335,c),
(429,368,l),
(407,277,o),
(394,180,o),
(394,94,cs),
(394,15,o),
(408,-5,o),
(442,-5,cs),
(477,-5,o),
(498,19,o),
(509,83,cs),
(525,173,o),
(528,281,o),
(528,383,cs),
(528,486,o),
(518,586,o),
(503,655,cs),
(490,715,o),
(473,741,o),
(443,741,cs),
(414,741,o),
(403,721,o),
(403,664,cs),
(403,591,o),
(411,492,o),
(428,396,c),
(441,408,l),
(355,433,o),
(245,435,o),
(146,412,c),
(157,389,l),
(190,478,o),
(208,584,o),
(208,662,cs),
(208,714,o),
(193,735,o),
(166,735,cs)
);
}
);
width = 603;
},
{
anchors = (
{
name = bottom;
pos = (312,0);
},
{
name = center;
pos = (312,365);
},
{
name = top;
pos = (312,730);
},
{
name = topleft;
pos = (20,730);
}
);
layerId = m003;
shapes = (
{
closed = 1;
nodes = (
(106,735,o),
(69,689,o),
(52,614,cs),
(35,541,o),
(25,435,o),
(25,327,cs),
(25,239,o),
(30,155,o),
(40,102,cs),
(56,20,o),
(95,-8,o),
(159,-8,cs),
(234,-8,o),
(282,32,o),
(282,122,cs),
(282,196,o),
(261,271,o),
(228,341,c),
(211,315,l),
(275,295,o),
(344,294,o),
(405,315,c),
(369,338,l),
(347,270,o),
(334,198,o),
(334,134,cs),
(334,36,o),
(367,-5,o),
(449,-5,cs),
(529,-5,o),
(564,34,o),
(579,123,cs),
(592,201,o),
(598,295,o),
(598,383,cs),
(598,471,o),
(590,565,o),
(577,625,cs),
(561,702,o),
(525,741,o),
(453,741,cs),
(380,741,o),
(343,701,o),
(343,624,cs),
(343,570,o),
(351,497,o),
(368,426,c),
(401,428,l),
(344,453,o),
(270,455,o),
(204,432,c),
(235,419,l),
(264,485,o),
(280,564,o),
(280,622,cs),
(280,697,o),
(243,735,o),
(178,735,cs)
);
}
);
width = 623;
}
);
metricRight = "=|";
unicode = 72;
},
{
glyphname = I;
lastChange = "2021-08-18 13:51:14 +0000";
layers = (
{
anchors = (
{
name = bottom;
pos = (139,0);
},
{
name = ogonek;
pos = (266,10);
},
{
name = top;
pos = (139,716);
},
{
name = topleft;
pos = (0,730);
}
);
layerId = m01;
shapes = (
{
closed = 1;
nodes = (
(116,725,o),
(107,701,o),
(97,650,cs),
(83,577,o),
(75,465,o),
(75,327,cs),
(75,227,o),
(80,133,o),
(88,76,cs),
(94,31,o),
(103,12,o),
(134,12,cs),
(163,12,o),
(177,33,o),
(186,101,cs),
(197,182,o),
(203,276,o),
(203,377,cs),
(203,495,o),
(197,596,o),
(187,655,cs),
(179,700,o),
(169,725,o),
(143,725,cs)
);
}
);
width = 278;
},
{
anchors = (
{
name = bottom;
pos = (159,0);
},
{
name = ogonek;
pos = (286,10);
},
{
name = top;
pos = (159,716);
},
{
name = topleft;
pos = (20,730);
}
);
layerId = m003;
shapes = (
{
closed = 1;
nodes = (
(102,725,o),
(64,689,o),
(46,600,cs),
(33,537,o),
(25,435,o),
(25,327,cs),
(25,247,o),
(30,174,o),
(36,136,cs),
(52,44,o),
(95,12,o),
(154,12,cs),
(217,12,o),
(260,53,o),
(278,161,cs),
(288,223,o),
(293,296,o),
(293,377,cs),
(293,465,o),
(287,555,o),
(278,605,cs),
(261,695,o),
(223,725,o),
(163,725,cs)
);
}
);
width = 318;
}
);
metricLeft = H;
metricRight = "=|";
unicode = 73;
},
{
glyphname = J;
lastChange = "2021-08-18 12:59:27 +0000";
layers = (
{
anchors = (
{
name = bottom;
pos = (286,0);
},
{
name = top;
pos = (286,730);
}
);
background = {
shapes = (
{
closed = 1;
nodes = (
(430,523,l),
(526,513,o),
(566,549,o),
(566,613,cs),
(566,691,o),
(499,737,o),
(370,737,cs),
(195,737,o),
(95,665,o),
(95,581,cs),
(95,495,o),
(174,473,o),
(306,511,c)
);
},
{
closed = 1;
nodes = (
(281,520,l),
(309,447,o),
(321,379,o),
(321,306,cs),
(321,232,o),
(307,187,o),
(270,187,cs),
(236,187,o),
(222,221,o),
(233,299,cs),
(242,365,o),
(212,411,o),
(146,411,cs),
(70,411,o),
(5,364,o),
(5,241,cs),
(5,92,o),
(87,-11,o),
(251,-11,cs),
(441,-11,o),
(527,124,o),
(527,275,cs),
(527,381,o),
(495,485,o),
(441,559,c)
);
}
);
};
layerId = m01;
shapes = (
{
closed = 1;
nodes = (
(380,637,l),
(416,630,o),
(450,626,o),
(482,626,cs),
(527,626,o),
(546,644,o),
(546,670,cs),
(546,691,o),
(534,707,o),
(498,720,cs),
(472,729,o),
(429,737,o),
(370,737,cs),
(279,737,o),
(211,721,o),
(169,701,cs),
(130,682,o),
(115,659,o),
(115,635,cs),
(115,610,o),
(134,597,o),
(168,597,cs),
(210,597,o),
(259,607,o),
(316,625,c)
);
},
{
closed = 1;
nodes = (
(301,640,l),
(350,529,o),
(371,427,o),
(371,316,cs),
(371,180,o),
(335,97,o),
(240,97,cs),
(167,97,o),
(137,137,o),
(137,230,cs),
(137,274,o),
(155,322,o),
(155,362,cs),
(155,394,o),
(141,411,o),
(116,411,cs),
(67,411,o),
(25,344,o),
(25,231,cs),
(25,82,o),
(97,-11,o),
(241,-11,cs),
(414,-11,o),
(477,123,o),
(477,315,cs),
(477,451,o),
(434,584,o),
(361,679,c)
);
}
);
width = 571;
},
{
anchors = (
{
name = bottom;
pos = (286,0);
},
{
name = top;
pos = (286,730);
}
);
layerId = m003;
shapes = (
{
closed = 1;
nodes = (
(430,523,l),
(441,522,o),
(451,521,o),
(460,521,cs),
(534,521,o),
(566,556,o),
(566,613,cs),
(566,654,o),
(548,686,o),
(511,707,cs),
(479,727,o),
(431,737,o),
(370,737,cs),
(286,737,o),
(219,720,o),
(172,694,cs),
(122,665,o),
(95,624,o),
(95,581,cs),
(95,522,o),
(132,493,o),
(198,493,cs),
(228,493,o),
(265,499,o),
(306,511,c)
);
},
{
closed = 1;
nodes = (
(281,520,l),
(309,447,o),
(321,379,o),
(321,306,cs),
(321,232,o),
(307,187,o),
(270,187,cs),
(244,187,o),
(229,207,o),
(229,253,cs),
(229,274,o),
(235,300,o),
(235,321,cs),
(235,375,o),
(204,411,o),
(146,411,cs),
(70,411,o),
(5,364,o),
(5,241,cs),
(5,92,o),
(87,-11,o),
(251,-11,cs),
(441,-11,o),
(527,124,o),
(527,275,cs),
(527,381,o),
(495,485,o),
(441,559,c)
);
}
);
width = 571;
}
);
metricLeft = T;
metricRight = T;
unicode = 74;
},
{
glyphname = K;
lastChange = "2021-08-18 12:16:06 +0000";
layers = (
{
anchors = (
{
name = bottom;
pos = (289,0);
},
{
name = top;
pos = (289,730);
}
);
background = {
shapes = (
{
closed = 1;
nodes = (
(88,718,o),
(60,683,o),
(46,608,cs),
(30,525,o),
(25,411,o),
(25,297,cs),
(25,190,o),
(34,90,o),
(46,50,cs),
(58,10,o),
(83,-10,o),
(127,-10,cs),
(187,-10,o),
(219,23,o),
(232,77,cs),
(241,114,o),
(250,209,o),
(242,291,c),
(235,294,l),
(304,71,o),
(368,1,o),
(456,1,cs),
(524,1,o),
(564,42,o),
(564,104,cs),
(564,205,o),
(498,292,o),
(357,395,c),
(349,369,l),
(513,461,o),
(584,536,o),
(584,626,cs),
(584,686,o),
(550,732,o),
(491,732,cs),
(416,732,o),
(338,672,o),
(233,453,c),
(253,474,l),
(273,655,o),
(236,718,o),
(150,718,cs)
);
}
);
};
layerId = m01;
shapes = (
{
closed = 1;
nodes = (
(121,718,o),
(106,692,o),
(97,638,cs),
(82,547,o),
(75,422,o),
(75,297,cs),
(75,181,o),
(83,83,o),
(93,40,cs),
(101,4,o),
(110,-10,o),
(127,-10,cs),
(153,-10,o),
(165,8,o),
(172,37,cs),
(186,96,o),
(190,216,o),
(177,325,c),
(172,326,l),
(314,79,o),
(400,1,o),
(466,1,cs),
(497,1,o),
(514,18,o),
(514,44,cs),
(514,115,o),
(408,221,o),
(214,364,c),
(206,348,l),
(435,509,o),
(534,618,o),
(534,686,cs),
(534,712,o),
(519,732,o),
(491,732,cs),
(429,732,o),
(334,640,o),
(173,393,c),
(178,374,l),
(213,665,o),
(186,718,o),
(150,718,cs)
);
}
);
width = 589;
},
{
anchors = (
{
name = bottom;
pos = (289,0);
},
{
name = top;
pos = (289,730);
}
);
layerId = m003;
shapes = (
{
closed = 1;
nodes = (
(88,718,o),
(60,683,o),
(46,608,cs),
(30,525,o),
(25,411,o),
(25,297,cs),
(25,190,o),
(34,90,o),
(46,50,cs),
(58,10,o),
(83,-10,o),
(127,-10,cs),
(187,-10,o),
(219,23,o),
(232,77,cs),
(241,114,o),
(250,209,o),
(242,291,c),
(235,294,l),
(304,71,o),
(368,1,o),
(456,1,cs),
(524,1,o),
(564,42,o),
(564,104,cs),
(564,205,o),
(498,292,o),
(357,395,c),
(349,369,l),
(513,461,o),
(584,536,o),
(584,626,cs),
(584,686,o),
(550,732,o),
(491,732,cs),
(416,732,o),
(338,672,o),
(233,453,c),
(253,474,l),
(273,655,o),
(236,718,o),
(150,718,cs)
);
}
);
width = 589;
}
);
metricLeft = H;
unicode = 75;
},
{
glyphname = L;
lastChange = "2021-08-17 15:31:14 +0000";
layers = (
{
anchors = (
{
name = bottom;
pos = (251,0);
},
{
name = center;
pos = (251,365);
},
{
name = top;
pos = (251,730);
},
{
name = topright;
pos = (481,730);
}
);
background = {
shapes = (
{
closed = 1;
nodes = (
(294,-6,o),
(360,9,o),
(403,32,cs),
(460,62,o),
(496,118,o),
(496,184,cs),
(496,254,o),
(455,295,o),
(382,295,cs),
(318,295,o),
(251,264,o),
(208,204,c),
(225,209,l),
(262,299,o),
(288,412,o),
(288,517,cs),
(288,631,o),
(258,725,o),
(163,725,cs),
(102,725,o),
(64,689,o),
(46,600,cs),
(35,544,o),
(25,434,o),
(25,323,cs),
(25,188,o),
(36,118,o),
(64,70,cs),
(93,19,o),
(143,-6,o),
(234,-6,cs)
);
}
);
};
layerId = m01;
shapes = (
{
closed = 1;
nodes = (
(276,-6,o),
(350,11,o),
(394,31,cs),
(448,56,o),
(476,86,o),
(476,114,cs),
(476,134,o),
(460,145,o),
(424,145,cs),
(358,145,o),
(241,108,o),
(151,54,c),
(158,39,l),
(177,197,o),
(188,393,o),
(188,577,cs),
(188,658,o),
(177,725,o),
(143,725,cs),
(113,725,o),
(95,701,o),
(86,640,cs),
(77,586,o),
(75,480,o),
(75,373,cs),
(75,212,o),
(88,123,o),
(110,68,cs),
(131,15,o),
(160,-6,o),
(224,-6,cs)
);
}
);
width = 501;
},
{
anchors = (
{
name = bottom;
pos = (251,0);
},
{
name = center;
pos = (251,365);
},
{
name = top;
pos = (251,730);
},
{
name = topright;
pos = (481,730);
}
);
background = {
shapes = (
{
closed = 1;
nodes = (
(234,736,o),
(131,712,o),
(82,645,cs),
(48,599,o),
(25,514,o),
(25,323,cs),
(25,188,o),
(36,118,o),
(64,70,cs),
(93,20,o),
(139,-6,o),
(239,-6,cs),
(310,-6,o),
(391,7,o),
(436,29,cs),
(479,50,o),
(496,84,o),
(496,132,cs),
(496,208,o),
(455,239,o),
(370,239,cs),
(315,239,o),
(244,229,o),
(198,214,c),
(203,199,l),
(225,233,o),
(225,289,o),
(208,323,c),
(192,293,l),
(244,285,o),
(296,283,o),
(349,286,cs),
(437,291,o),
(473,324,o),
(473,376,cs),
(473,424,o),
(442,461,o),
(356,461,cs),
(305,461,o),
(234,454,o),
(195,445,c),
(211,436,l),
(218,475,o),
(218,514,o),
(209,541,c),
(199,508,l),
(248,503,o),
(295,501,o),
(331,501,cs),
(445,501,o),
(498,541,o),
(498,629,cs),
(498,695,o),
(468,736,o),
(358,736,cs)
);
}
);
};
layerId = m003;
shapes = (
{
closed = 1;
nodes = (
(294,-6,o),
(360,9,o),
(403,32,cs),
(460,62,o),
(496,118,o),
(496,184,cs),
(496,254,o),
(455,295,o),
(382,295,cs),
(318,295,o),
(251,264,o),
(208,204,c),
(225,209,l),
(262,299,o),
(288,412,o),
(288,517,cs),
(288,631,o),
(258,725,o),
(163,725,cs),
(102,725,o),
(64,689,o),
(46,600,cs),
(35,544,o),
(25,434,o),
(25,323,cs),
(25,188,o),
(36,118,o),
(64,70,cs),
(93,19,o),
(143,-6,o),
(234,-6,cs)
);
}
);
width = 501;
}
);
metricLeft = H;
unicode = 76;
},
{
glyphname = M;
lastChange = "2021-08-18 13:18:09 +0000";
layers = (
{
anchors = (
{
name = bottom;
pos = (348,0);
},
{
name = top;
pos = (348,730);
}
);
background = {
shapes = (
{
closed = 1;
nodes = (
(25,66,o),
(63,19,o),
(145,19,cs),
(237,19,o),
(264,92,o),
(264,184,cs),
(264,249,o),
(248,359,o),
(229,439,c),
(231,439,l),
(267,297,o),
(297,265,o),
(341,265,cs),
(389,265,o),
(428,311,o),
(461,427,c),
(463,427,l),
(440,336,o),
(421,231,o),
(421,148,cs),
(421,25,o),
(466,-8,o),
(536,-8,cs),
(618,-8,o),
(671,42,o),
(671,179,cs),
(671,310,o),
(655,485,o),
(629,595,cs),
(608,686,o),
(576,738,o),
(512,738,cs),
(453,738,o),
(391,669,o),
(340,481,c),
(353,486,l),
(298,664,o),
(245,719,o),
(172,719,cs),
(110,719,o),
(76,676,o),
(57,564,cs),
(40,464,o),
(25,284,o),
(25,185,cs)
);
}
);
};
layerId = m01;
shapes = (
{
closed = 1;
nodes = (
(75,55,o),
(94,19,o),
(135,19,cs),
(181,19,o),
(194,74,o),
(194,144,cs),
(194,268,o),
(192,477,o),
(186,629,c),
(188,629,l),
(240,398,o),
(281,315,o),
(341,315,cs),
(405,315,o),
(457,426,o),
(501,627,c),
(503,627,l),
(496,458,o),
(491,262,o),
(491,108,cs),
(491,17,o),
(513,-8,o),
(546,-8,cs),
(592,-8,o),
(621,31,o),
(621,139,cs),
(621,295,o),
(609,505,o),
(579,635,cs),
(564,700,o),
(549,738,o),
(512,738,cs),
(463,738,o),
(411,642,o),
(340,381,c),
(353,386,l),
(278,640,o),
(225,719,o),
(172,719,cs),
(137,719,o),
(121,687,o),
(107,604,cs),
(87,484,o),
(75,265,o),
(75,145,cs)
);
}
);
width = 696;
},
{
anchors = (
{
name = bottom;
pos = (348,0);
},
{
name = top;
pos = (348,730);
}
);
layerId = m003;
shapes = (
{
closed = 1;
nodes = (
(25,66,o),
(63,19,o),
(145,19,cs),
(237,19,o),
(264,92,o),
(264,184,cs),
(264,249,o),
(248,359,o),
(229,439,c),
(231,439,l),
(267,297,o),
(297,265,o),
(341,265,cs),
(389,265,o),
(428,311,o),
(461,427,c),
(463,427,l),
(440,336,o),
(421,231,o),
(421,148,cs),
(421,25,o),
(466,-8,o),
(536,-8,cs),
(618,-8,o),
(671,42,o),
(671,179,cs),
(671,310,o),
(655,485,o),
(629,595,cs),
(608,686,o),
(576,738,o),
(512,738,cs),
(453,738,o),
(391,669,o),
(340,481,c),
(353,486,l),
(298,664,o),
(245,719,o),
(172,719,cs),
(110,719,o),
(76,676,o),
(57,564,cs),
(40,464,o),
(25,284,o),
(25,185,cs)
);
}
);
width = 696;
}
);
metricLeft = H;
metricRight = H;
unicode = 77;
},
{
glyphname = N;
lastChange = "2021-08-18 13:35:49 +0000";
layers = (
{
anchors = (
{
name = bottom;
pos = (326,0);
},
{
name = top;
pos = (326,730);
}
);
background = {
shapes = (
{
closed = 1;
nodes = (
(92,711,o),
(62,642,o),
(46,512,cs),
(32,400,o),
(25,263,o),
(25,173,cs),
(25,50,o),
(59,-7,o),
(148,-7,cs),
(231,-7,o),
(270,44,o),
(270,178,cs),
(270,266,o),
(255,392,o),
(237,468,c),
(241,468,l),
(357,65,o),
(401,10,o),
(510,10,cs),
(604,10,o),
(626,103,o),
(626,313,cs),
(626,471,o),
(615,597,o),
(583,668,cs),
(563,713,o),
(535,738,o),
(486,738,cs),
(420,738,o),
(383,690,o),
(383,580,cs),
(383,516,o),
(397,388,o),
(413,301,c),
(409,301,l),
(319,629,o),
(263,711,o),
(172,711,cs)
);
}
);
};
layerId = m01;
shapes = (
{
closed = 1;
nodes = (
(124,711,o),
(110,673,o),
(98,572,cs),
(81,434,o),
(75,264,o),
(75,153,cs),
(75,44,o),
(92,-7,o),
(138,-7,cs),
(180,-7,o),
(200,38,o),
(200,158,cs),
(200,295,o),
(190,490,o),
(177,608,c),
(181,608,l),
(294,221,o),
(398,10,o),
(480,10,cs),
(558,10,o),
(576,123,o),
(576,313,cs),
(576,484,o),
(563,622,o),
(533,698,cs),
(522,725,o),
(510,738,o),
(486,738,cs),
(449,738,o),
(433,698,o),
(433,590,cs),
(433,482,o),
(452,267,o),
(473,121,c),
(469,121,l),
(335,499,o),
(244,711,o),
(172,711,cs)
);
}
);
width = 651;
},
{
anchors = (
{
name = bottom;
pos = (326,0);
},
{
name = top;
pos = (326,730);
}
);
layerId = m003;
shapes = (
{
closed = 1;
nodes = (
(92,711,o),
(62,642,o),
(46,512,cs),
(32,400,o),
(25,263,o),
(25,173,cs),
(25,50,o),
(59,-7,o),
(148,-7,cs),
(231,-7,o),
(270,44,o),
(270,178,cs),
(270,266,o),
(255,392,o),
(237,468,c),
(241,468,l),
(357,65,o),
(401,10,o),
(510,10,cs),
(604,10,o),
(626,103,o),
(626,313,cs),
(626,471,o),
(615,597,o),
(583,668,cs),
(563,713,o),
(535,738,o),
(486,738,cs),
(420,738,o),
(383,690,o),
(383,580,cs),
(383,516,o),
(397,388,o),
(413,301,c),
(409,301,l),
(319,629,o),
(263,711,o),
(172,711,cs)
);
}
);
width = 651;
}
);
metricLeft = H;
metricRight = H;
unicode = 78;
},
{
glyphname = O;
lastChange = "2021-08-17 14:46:09 +0000";
layers = (
{
anchors = (
{
name = bottom;
pos = (331,0);
},
{
name = center;
pos = (331,365);
},
{
name = ogonek;
pos = (611,10);
},
{
name = top;
pos = (331,689);
},
{
name = topleft;
pos = (0,730);
},
{
name = topright;
pos = (661,730);
}
);
background = {
shapes = (
{
closed = 1;
nodes = (
(529,7,o),
(666,134,o),
(666,340,cs),
(666,553,o),
(530,698,o),
(321,698,cs),
(123,698,o),
(-5,549,o),
(-5,329,cs),
(-5,130,o),
(121,7,o),
(317,7,cs)
);
},
{
closed = 1;
nodes = (
(276,271,o),
(238,316,o),
(238,386,cs),
(238,456,o),
(276,501,o),
(334,501,cs),
(392,501,o),
(430,456,o),
(430,386,cs),
(430,316,o),
(392,271,o),
(334,271,cs)
);
}
);
};
layerId = m01;
shapes = (
{
closed = 1;
nodes = (
(494,7,o),
(606,134,o),
(606,340,cs),
(606,553,o),
(494,698,o),
(323,698,cs),
(160,698,o),
(55,549,o),
(55,329,cs),
(55,130,o),
(158,7,o),
(319,7,cs)
);
},
{
closed = 1;
nodes = (
(232,111,o),
(166,207,o),
(166,356,cs),
(166,505,o),
(232,601,o),
(332,601,cs),
(432,601,o),
(498,505,o),
(498,356,cs),
(498,207,o),
(432,111,o),
(332,111,cs)
);
}
);
width = 661;
},
{
anchors = (
{
name = bottom;
pos = (351,0);
},
{
name = center;
pos = (351,365);
},
{
name = ogonek;
pos = (631,10);
},
{
name = top;
pos = (351,689);
},
{
name = topleft;
pos = (20,730);
},
{
name = topright;
pos = (681,730);
}
);
layerId = m003;
shapes = (
{
closed = 1;
nodes = (
(549,7,o),
(686,134,o),
(686,340,cs),
(686,553,o),
(550,698,o),
(341,698,cs),
(143,698,o),
(15,549,o),
(15,329,cs),
(15,130,o),
(141,7,o),
(337,7,cs)
);
},
{
closed = 1;
nodes = (
(296,271,o),
(258,316,o),
(258,386,cs),
(258,456,o),
(296,501,o),
(354,501,cs),
(412,501,o),
(450,456,o),
(450,386,cs),
(450,316,o),
(412,271,o),
(354,271,cs)
);
}
);
width = 701;
}
);
metricRight = "=|";
unicode = 79;
},
{
glyphname = P;
lastChange = "2021-08-18 13:50:46 +0000";
layers = (
{
anchors = (
{
name = bottom;
pos = (278,0);
},
{
name = top;
pos = (278,730);
}
);
background = {
shapes = (
{
closed = 1;
nodes = (
(201,719,o),
(123,673,o),
(85,604,cs),
(46,533,o),
(25,415,o),
(25,247,cs),
(25,60,o),
(52,-7,o),
(151,-7,cs),
(236,-7,o),
(280,44,o),
(280,137,cs),
(280,195,o),
(269,277,o),
(254,322,c),
(240,294,l),
(273,280,o),
(304,275,o),
(332,275,cs),
(452,275,o),
(545,362,o),
(545,498,cs),
(545,630,o),
(473,719,o),
(318,719,cs)
);
},
{
closed = 1;
nodes = (
(260,414,o),
(238,440,o),
(238,476,cs),
(238,531,o),
(279,582,o),
(339,582,cs),
(383,582,o),
(399,554,o),
(399,517,cs),
(399,454,o),
(358,414,o),
(304,414,cs)
);
}
);
};
layerId = m01;
shapes = (
{
closed = 1;
nodes = (
(226,719,o),
(166,680,o),
(135,624,cs),
(89,541,o),
(75,393,o),
(75,187,cs),
(75,44,o),
(89,-7,o),
(141,-7,cs),
(180,-7,o),
(200,33,o),
(200,107,cs),
(200,174,o),
(189,270,o),
(174,322,c),
(170,314,l),
(217,283,o),
(262,275,o),
(302,275,cs),
(428,275,o),
(525,362,o),
(525,498,cs),
(525,630,o),
(459,719,o),
(318,719,cs)
);
},
{
closed = 1;
nodes = (
(232,384,o),
(203,405,o),
(203,462,cs),
(203,557,o),
(247,622,o),
(325,622,cs),
(391,622,o),
(424,578,o),
(424,520,cs),
(424,431,o),
(373,384,o),
(299,384,cs)
);
}
);
width = 555;
},
{
anchors = (
{
name = bottom;
pos = (278,0);
},
{
name = top;
pos = (278,730);
}
);
layerId = m003;
shapes = (
{
closed = 1;
nodes = (
(201,719,o),
(123,673,o),
(85,604,cs),
(46,533,o),
(25,415,o),
(25,247,cs),
(25,60,o),
(52,-7,o),
(151,-7,cs),
(236,-7,o),
(280,44,o),
(280,137,cs),
(280,195,o),
(269,277,o),
(254,322,c),
(240,294,l),
(273,280,o),
(304,275,o),
(332,275,cs),
(452,275,o),
(545,362,o),
(545,498,cs),
(545,630,o),
(473,719,o),
(318,719,cs)
);
},
{
closed = 1;
nodes = (
(260,414,o),
(238,440,o),
(238,476,cs),
(238,531,o),
(279,582,o),
(339,582,cs),
(383,582,o),
(399,554,o),
(399,517,cs),
(399,454,o),
(358,414,o),
(304,414,cs)
);
}
);
width = 555;
}
);
metricLeft = H;
unicode = 80;
},
{
glyphname = Q;
lastChange = "2021-08-18 13:30:36 +0000";
layers = (
{
anchors = (
{
name = bottom;
pos = (346,0);
},
{
name = top;
pos = (346,730);
}
);
background = {
shapes = (
{
closed = 1;
nodes = (
(409,7,o),
(489,33,o),
(525,86,c),
(594,152,l),
(646,203,o),
(676,285,o),
(676,380,cs),
(676,569,o),
(548,726,o),
(351,726,cs),
(147,726,o),
(15,569,o),
(15,337,cs),
(15,133,o),
(131,7,o),
(321,7,cs)
);
},
{
closed = 1;
nodes = (
(681,-18,o),
(714,24,o),
(714,70,cs),
(714,126,o),
(670,159,o),
(597,178,c),
(500,83,l),
(531,18,o),
(579,-18,o),
(623,-18,cs)
);
},
{
closed = 1;
nodes = (
(462,296,l),
(435,365,o),
(405,396,o),
(366,396,cs),
(336,396,o),
(314,377,o),
(314,344,cs),
(314,307,o),
(342,273,o),
(404,239,c)
);
},
{
closed = 1;
nodes = (
(287,251,o),
(238,308,o),
(238,396,cs),
(238,472,o),
(279,521,o),
(341,521,cs),
(409,521,o),
(454,464,o),
(454,376,cs),
(454,345,o),
(450,318,o),
(444,298,c),
(411,260,l),
(397,254,o),
(380,251,o),
(361,251,cs)
);
}
);
};
layerId = m01;
shapes = (
{
closed = 1;
nodes = (
(419,7,o),
(489,40,o),
(535,96,c),
(574,142,l),
(613,195,o),
(636,281,o),
(636,380,cs),
(636,569,o),
(524,726,o),
(351,726,cs),
(171,726,o),
(55,569,o),
(55,337,cs),
(55,133,o),
(160,7,o),
(331,7,cs)
);
},
{
closed = 1;
nodes = (
(679,-18,o),
(694,0,o),
(694,20,cs),
(694,62,o),
(643,114,o),
(557,158,c),
(510,113,l),
(565,29,o),
(611,-18,o),
(653,-18,cs)
);
},
{
closed = 1;
nodes = (
(522,186,l),
(486,268,o),
(446,316,o),
(404,316,cs),
(382,316,o),
(364,301,o),
(364,274,cs),
(364,238,o),
(410,182,o),
(484,139,c)
);
},
{
closed = 1;
nodes = (
(247,111,o),
(178,207,o),
(178,356,cs),
(178,517,o),
(247,621,o),
(351,621,cs),
(461,621,o),
(534,523,o),
(534,346,cs),
(534,283,o),
(522,229,o),
(504,188,c),
(485,169,l),
(447,128,o),
(403,111,o),
(351,111,cs)
);
}
);
width = 691;
},
{
anchors = (
{
name = bottom;
pos = (346,0);
},
{
name = top;
pos = (346,730);
}
);
background = {
shapes = (
{
closed = 1;
nodes = (
(539,7,o),
(676,134,o),
(676,340,cs),
(676,553,o),
(540,698,o),
(331,698,cs),
(133,698,o),
(5,549,o),
(5,329,cs),
(5,130,o),
(131,7,o),
(327,7,cs)
);
},
{
closed = 1;
nodes = (
(286,271,o),
(248,316,o),
(248,386,cs),
(248,456,o),
(286,501,o),
(344,501,cs),
(402,501,o),
(440,456,o),
(440,386,cs),
(440,316,o),
(402,271,o),
(344,271,cs)
);
}
);
};
layerId = m003;
shapes = (
{
closed = 1;
nodes = (
(409,7,o),
(489,33,o),
(525,86,c),
(594,152,l),
(646,203,o),
(676,285,o),
(676,380,cs),
(676,569,o),
(548,726,o),
(351,726,cs),
(147,726,o),
(15,569,o),
(15,337,cs),
(15,133,o),
(131,7,o),
(321,7,cs)
);
},
{
closed = 1;
nodes = (
(681,-18,o),
(714,24,o),
(714,70,cs),
(714,126,o),
(670,159,o),
(597,178,c),
(500,83,l),
(531,18,o),
(579,-18,o),
(623,-18,cs)
);
},
{
closed = 1;
nodes = (
(462,296,l),
(435,365,o),
(405,396,o),
(366,396,cs),
(336,396,o),
(314,377,o),
(314,344,cs),
(314,307,o),
(342,273,o),
(404,239,c)
);
},
{
closed = 1;
nodes = (
(287,251,o),
(238,308,o),
(238,396,cs),
(238,472,o),
(279,521,o),
(341,521,cs),
(409,521,o),
(454,464,o),
(454,376,cs),
(454,345,o),
(450,318,o),
(444,298,c),
(411,260,l),
(397,254,o),
(380,251,o),
(361,251,cs)
);
}
);
width = 691;
}
);
metricLeft = O;
unicode = 81;
},
{
glyphname = R;
lastChange = "2021-08-18 14:09:15 +0000";
layers = (
{
anchors = (
{
name = bottom;
pos = (310,0);
},
{
name = top;
pos = (310,730);
}
);
background = {
shapes = (
{
closed = 1;
nodes = (
(238,-7,o),
(270,43,o),
(270,137,cs),
(270,186,o),
(262,254,o),
(253,292,c),
(255,292,l),
(333,70,o),
(387,5,o),
(476,5,cs),
(550,5,o),
(595,49,o),
(595,118,cs),
(595,204,o),
(527,274,o),
(355,329,c),
(311,316,l),
(458,301,o),
(600,364,o),
(600,528,cs),
(600,654,o),
(522,739,o),
(353,739,cs),
(250,739,o),
(158,708,o),
(100,624,cs),
(50,552,o),
(25,430,o),
(25,257,cs),
(25,63,o),
(52,-7,o),
(151,-7,cs)
);
},
{
closed = 1;
nodes = (
(280,434,o),
(255,463,o),
(255,504,cs),
(255,550,o),
(287,592,o),
(336,592,cs),
(379,592,o),
(398,560,o),
(398,518,cs),
(398,466,o),
(367,434,o),
(322,434,cs)
);
}
);
};
layerId = m01;
shapes = (
{
closed = 1;
nodes = (
(184,-7,o),
(200,29,o),
(200,97,cs),
(200,159,o),
(192,244,o),
(183,292,c),
(185,292,l),
(331,80,o),
(442,5,o),
(506,5,cs),
(537,5,o),
(555,22,o),
(555,48,cs),
(555,104,o),
(467,200,o),
(255,314,c),
(255,316,l),
(423,291,o),
(560,367,o),
(560,538,cs),
(560,658,o),
(495,739,o),
(353,739,cs),
(270,739,o),
(198,713,o),
(150,644,cs),
(92,560,o),
(75,402,o),
(75,187,cs),
(75,44,o),
(89,-7,o),
(141,-7,cs)
);
},
{
closed = 1;
nodes = (
(234,394,o),
(205,433,o),
(205,488,cs),
(205,569,o),
(249,642,o),
(333,642,cs),
(412,642,o),
(453,598,o),
(453,531,cs),
(453,446,o),
(383,394,o),
(299,394,cs)
);
}
);
width = 620;
},
{
anchors = (
{
name = bottom;
pos = (310,0);
},
{
name = top;
pos = (310,730);
}
);
background = {
shapes = (
{
closed = 1;
nodes = (
(238,-7,o),
(270,43,o),
(270,137,cs),
(270,186,o),
(262,254,o),
(253,292,c),
(255,292,l),
(333,70,o),
(387,5,o),
(476,5,cs),
(550,5,o),
(595,49,o),
(595,118,cs),
(595,204,o),
(527,274,o),
(355,329,c),
(311,316,l),
(458,301,o),
(600,364,o),
(600,528,cs),
(600,654,o),
(522,739,o),
(353,739,cs),
(250,739,o),
(158,708,o),
(100,624,cs),
(50,552,o),
(25,430,o),
(25,257,cs),
(25,63,o),
(52,-7,o),
(151,-7,cs)
);
},
{
closed = 1;
nodes = (
(280,434,o),
(255,463,o),
(255,504,cs),
(255,550,o),
(287,592,o),
(336,592,cs),
(379,592,o),
(398,560,o),
(398,518,cs),
(398,466,o),
(367,434,o),
(322,434,cs)
);
}
);
};
layerId = m003;
shapes = (
{
closed = 1;
nodes = (
(238,-7,o),
(270,43,o),
(270,137,cs),
(270,186,o),
(262,254,o),
(253,292,c),
(255,292,l),
(333,70,o),
(387,5,o),
(476,5,cs),
(550,5,o),
(595,49,o),
(595,118,cs),
(595,195,o),
(541,261,o),
(396,315,c),
(396,317,l),
(514,331,o),
(600,400,o),
(600,528,cs),
(600,654,o),
(522,739,o),
(353,739,cs),
(250,739,o),
(158,708,o),
(100,624,cs),
(50,552,o),
(25,430,o),
(25,257,cs),
(25,63,o),
(52,-7,o),
(151,-7,cs)
);
},
{
closed = 1;
nodes = (
(280,434,o),
(255,463,o),
(255,504,cs),
(255,550,o),
(287,592,o),
(336,592,cs),
(379,592,o),
(398,560,o),
(398,518,cs),
(398,466,o),
(367,434,o),
(322,434,cs)
);
}
);
width = 620;
}
);
metricLeft = H;
metricRight = B;
unicode = 82;
},
{
glyphname = S;
lastChange = "2021-08-18 13:50:15 +0000";
layers = (
{
anchors = (
{
name = bottom;
pos = (274,0);
},
{
name = top;
pos = (274,730);
}
);
background = {
shapes = (
{
closed = 1;
nodes = (
(396,-3,o),
(505,87,o),
(505,221,cs),
(505,311,o),
(456,378,o),
(307,426,cs),
(234,450,o),
(227,463,o),
(227,475,cs),
(227,489,o),
(237,495,o),
(259,495,cs),
(287,495,o),
(351,486,o),
(392,486,cs),
(484,486,o),
(527,534,o),
(527,603,cs),
(527,691,o),
(457,736,o),
(347,736,cs),
(222,736,o),
(39,675,o),
(39,489,cs),
(39,396,o),
(87,341,o),
(214,308,cs),
(278,292,o),
(287,276,o),
(287,261,cs),
(287,244,o),
(277,234,o),
(256,234,cs),
(235,234,o),
(175,243,o),
(134,243,cs),
(54,243,o),
(20,208,o),
(20,142,cs),
(20,96,o),
(37,62,o),
(80,36,cs),
(115,14,o),
(169,-3,o),
(238,-3,cs)
);
}
);
};
layerId = m01;
shapes = (
{
closed = 1;
nodes = (
(388,-3,o),
(485,79,o),
(485,201,cs),
(485,291,o),
(442,346,o),
(307,396,cs),
(187,441,o),
(167,469,o),
(167,515,cs),
(167,585,o),
(215,615,o),
(299,615,cs),
(370,615,o),
(413,596,o),
(442,596,cs),
(486,596,o),
(507,619,o),
(507,653,cs),
(507,701,o),
(435,736,o),
(337,736,cs),
(220,736,o),
(59,677,o),
(59,499,cs),
(59,406,o),
(111,361,o),
(234,318,cs),
(352,276,o),
(377,248,o),
(377,201,cs),
(377,147,o),
(338,114,o),
(256,114,cs),
(202,114,o),
(152,133,o),
(114,133,cs),
(62,133,o),
(40,113,o),
(40,76,cs),
(40,52,o),
(53,37,o),
(80,24,cs),
(113,8,o),
(175,-3,o),
(248,-3,cs)
);
}
);
width = 547;
},
{
anchors = (
{
name = bottom;
pos = (274,0);
},
{
name = top;
pos = (274,730);
}
);
background = {
shapes = (
{
closed = 1;
nodes = (
(478,-3,o),
(545,78,o),
(545,181,cs),
(545,290,o),
(458,352,o),
(217,460,c),
(205,514,l),
(259,496,o),
(350,481,o),
(407,481,cs),
(510,481,o),
(557,531,o),
(557,603,cs),
(557,691,o),
(507,736,o),
(397,736,cs),
(342,736,o),
(244,719,o),
(163,695,cs),
(72,668,o),
(19,629,o),
(19,529,cs),
(19,423,o),
(82,378,o),
(335,272,c),
(328,229,l),
(267,245,o),
(187,258,o),
(134,258,cs),
(40,258,o),
(0,221,o),
(0,155,cs),
(0,101,o),
(17,68,o),
(52,47,cs),
(104,14,o),
(203,-3,o),
(296,-3,cs)
);
}
);
};
layerId = m003;
shapes = (
{
closed = 1;
nodes = (
(396,-3,o),
(505,87,o),
(505,221,cs),
(505,311,o),
(456,378,o),
(307,426,cs),
(234,450,o),
(227,463,o),
(227,475,cs),
(227,489,o),
(237,495,o),
(259,495,cs),
(287,495,o),
(351,486,o),
(392,486,cs),
(484,486,o),
(527,534,o),
(527,603,cs),
(527,691,o),
(457,736,o),
(347,736,cs),
(222,736,o),
(39,675,o),
(39,489,cs),
(39,396,o),
(87,341,o),
(214,308,cs),
(278,292,o),
(287,276,o),
(287,261,cs),
(287,244,o),
(277,234,o),
(256,234,cs),
(235,234,o),
(175,243,o),
(134,243,cs),
(54,243,o),
(20,208,o),
(20,142,cs),
(20,96,o),
(37,62,o),
(80,36,cs),
(115,14,o),
(169,-3,o),
(238,-3,cs)
);
}
);
width = 547;
}
);
unicode = 83;
},
{
glyphname = T;
lastChange = "2021-08-18 13:36:23 +0000";
layers = (
{
anchors = (
{
name = bottom;
pos = (269,0);
},
{
name = center;
pos = (269,365);
},
{
name = top;
pos = (269,730);
}
);
background = {
shapes = (
{
closed = 1;
nodes = (
(72,735,o),
(-5,669,o),
(-5,561,cs),
(-5,491,o),
(26,450,o),
(111,450,cs),
(146,450,o),
(202,460,o),
(235,472,c),
(221,497,l),
(170,405,o),
(122,241,o),
(122,144,cs),
(122,43,o),
(168,-7,o),
(259,-7,cs),
(360,-7,o),
(401,52,o),
(401,156,cs),
(401,235,o),
(371,397,o),
(318,500,c),
(298,472,l),
(344,460,o),
(388,454,o),
(427,454,cs),
(504,454,o),
(543,506,o),
(543,582,cs),
(543,675,o),
(499,735,o),
(281,735,cs)
);
}
);
};
layerId = m01;
shapes = (
{
closed = 1;
nodes = (
(191,735,o),
(123,724,o),
(76,705,cs),
(41,691,o),
(25,676,o),
(25,651,cs),
(25,624,o),
(45,608,o),
(101,608,cs),
(146,608,o),
(218,623,o),
(260,640,c),
(238,647,l),
(216,515,o),
(194,275,o),
(194,134,cs),
(194,37,o),
(212,-7,o),
(259,-7,cs),
(311,-7,o),
(329,42,o),
(329,146,cs),
(329,262,o),
(317,499,o),
(301,650,c),
(283,640,l),
(334,621,o),
(384,612,o),
(427,612,cs),
(484,612,o),
(513,633,o),
(513,663,cs),
(513,684,o),
(502,699,o),
(469,711,cs),
(432,724,o),
(371,735,o),
(281,735,cs)
);
}
);
width = 538;
},
{
anchors = (
{
name = bottom;
pos = (279,0);
},
{
name = center;
pos = (279,365);
},
{
name = top;
pos = (279,730);
}
);
layerId = m003;
shapes = (
{
closed = 1;
nodes = (
(201,735,o),
(135,723,o),
(90,700,cs),
(30,670,o),
(5,622,o),
(5,561,cs),
(5,491,o),
(36,450,o),
(121,450,cs),
(153,450,o),
(205,460,o),
(235,472,c),
(231,497,l),
(180,405,o),
(132,241,o),
(132,144,cs),
(132,43,o),
(178,-7,o),
(269,-7,cs),
(370,-7,o),
(411,52,o),
(411,156,cs),
(411,235,o),
(381,397,o),
(328,500,c),
(328,472,l),
(367,460,o),
(404,454,o),
(437,454,cs),
(514,454,o),
(553,506,o),
(553,582,cs),
(553,639,o),
(536,684,o),
(473,710,cs),
(433,726,o),
(375,735,o),
(291,735,cs)
);
}
);
width = 558;
}
);
metricLeft = "=|L";
metricRight = L;
unicode = 84;
},
{
glyphname = U;
lastChange = "2021-08-17 14:58:45 +0000";
layers = (
{
anchors = (
{
name = bottom;
pos = (294,0);
},
{
name = ogonek;
pos = (536,10);
},
{
name = top;
pos = (294,720);
},
{
name = topright;
pos = (577,730);
}
);
background = {
shapes = (
{
closed = 1;
nodes = (
(485,-8,o),
(572,89,o),
(572,325,cs),
(572,420,o),
(564,544,o),
(550,615,cs),
(535,692,o),
(501,731,o),
(432,731,cs),
(362,731,o),
(327,691,o),
(327,614,cs),
(327,562,o),
(353,389,o),
(353,320,cs),
(353,269,o),
(334,246,o),
(296,246,cs),
(258,246,o),
(235,267,o),
(235,320,cs),
(235,394,o),
(280,556,o),
(280,612,cs),
(280,680,o),
(241,715,o),
(173,715,cs),
(98,715,o),
(59,669,o),
(42,594,cs),
(25,518,o),
(15,397,o),
(15,294,cs),
(15,79,o),
(92,-8,o),
(280,-8,cs)
);
}
);
};
layerId = m01;
shapes = (
{
closed = 1;
nodes = (
(443,-8,o),
(512,89,o),
(512,325,cs),
(512,433,o),
(504,574,o),
(490,655,cs),
(483,705,o),
(466,731,o),
(432,731,cs),
(402,731,o),
(387,705,o),
(387,654,cs),
(387,593,o),
(413,391,o),
(413,310,cs),
(413,169,o),
(374,106,o),
(296,106,cs),
(212,106,o),
(169,158,o),
(169,310,cs),
(169,427,o),
(214,586,o),
(214,652,cs),
(214,694,o),
(197,715,o),
(167,715,cs),
(129,715,o),
(112,684,o),
(102,634,cs),
(85,548,o),
(75,411,o),
(75,294,cs),
(75,79,o),
(135,-8,o),
(280,-8,cs)
);
}
);
width = 587;
},
{
anchors = (
{
name = bottom;
pos = (304,0);
},
{
name = ogonek;
pos = (546,10);
},
{
name = top;
pos = (304,720);
},
{
name = topright;
pos = (587,730);
}
);
background = {
shapes = (
{
closed = 0;
nodes = (
(15,314,ls),
(15,115,o),
(141,-8,o),
(337,-8,cs),
(549,-8,o),
(686,119,o),
(686,325,cs)
);
},
{
closed = 0;
nodes = (
(450,361,ls),
(450,291,o),
(412,246,o),
(354,246,cs),
(296,246,o),
(258,291,o),
(258,361,cs)
);
},
{
closed = 0;
nodes = (
(225,419,l),
(254,485,o),
(270,564,o),
(270,622,cs),
(270,697,o),
(233,735,o),
(168,735,cs),
(96,735,o),
(59,689,o),
(42,614,cs),
(25,541,o),
(15,435,o),
(15,327,cs)
);
},
{
closed = 0;
nodes = (
(578,383,ls),
(578,471,o),
(570,565,o),
(557,625,cs),
(541,702,o),
(505,741,o),
(433,741,cs),
(360,741,o),
(323,701,o),
(323,624,cs),
(323,570,o),
(331,497,o),
(348,426,c)
);
}
);
};
layerId = m003;
shapes = (
{
closed = 1;
nodes = (
(495,-8,o),
(582,89,o),
(582,325,cs),
(582,420,o),
(574,544,o),
(560,615,cs),
(545,692,o),
(511,731,o),
(442,731,cs),
(372,731,o),
(337,691,o),
(337,614,cs),
(337,562,o),
(363,389,o),
(363,320,cs),
(363,269,o),
(344,246,o),
(306,246,cs),
(268,246,o),
(245,267,o),
(245,320,cs),
(245,394,o),
(290,556,o),
(290,612,cs),
(290,680,o),
(251,715,o),
(183,715,cs),
(108,715,o),
(69,669,o),
(52,594,cs),
(35,518,o),
(25,397,o),
(25,294,cs),
(25,79,o),
(102,-8,o),
(290,-8,cs)
);
}
);
width = 607;
}
);
metricLeft = H;
metricRight = H;
unicode = 85;
},
{
glyphname = V;
lastChange = "2021-08-18 12:42:10 +0000";
layers = (
{
anchors = (
{
name = bottom;
pos = (298,0);
},
{
name = top;
pos = (298,730);
}
);
background = {
shapes = (
{
closed = 1;
nodes = (
(410,739,o),
(380,694,o),
(360,596,cs),
(343,514,o),
(317,347,o),
(304,223,c),
(302,223,l),
(288,349,o),
(272,496,o),
(265,569,cs),
(255,677,o),
(223,719,o),
(151,719,cs),
(65,719,o),
(15,667,o),
(15,549,cs),
(15,427,o),
(41,277,o),
(81,177,cs),
(132,49,o),
(179,-7,o),
(269,-7,cs),
(351,-7,o),
(419,49,o),
(481,182,cs),
(543,314,o),
(580,467,o),
(580,565,cs),
(580,681,o),
(551,739,o),
(478,739,cs)
);
}
);
};
layerId = m01;
shapes = (
{
closed = 1;
nodes = (
(463,739,o),
(451,693,o),
(436,596,cs),
(411,433,o),
(355,234,o),
(280,83,c),
(278,83,l),
(213,240,o),
(177,396,o),
(161,569,cs),
(151,677,o),
(134,719,o),
(91,719,cs),
(53,719,o),
(35,679,o),
(35,589,cs),
(35,481,o),
(72,270,o),
(118,156,cs),
(161,47,o),
(205,-7,o),
(276,-7,cs),
(343,-7,o),
(391,46,o),
(445,160,cs),
(512,303,o),
(560,509,o),
(560,635,cs),
(560,704,o),
(545,739,o),
(508,739,cs)
);
}
);
width = 595;
},
{
anchors = (
{
name = bottom;
pos = (298,0);
},
{
name = top;
pos = (298,730);
}
);
layerId = m003;
shapes = (
{
closed = 1;
nodes = (
(410,739,o),
(380,694,o),
(360,596,cs),
(343,514,o),
(317,347,o),
(304,223,c),
(302,223,l),
(288,349,o),
(272,496,o),
(265,569,cs),
(255,677,o),
(223,719,o),
(151,719,cs),
(65,719,o),
(15,667,o),
(15,549,cs),
(15,427,o),
(41,277,o),
(81,177,cs),
(132,49,o),
(179,-7,o),
(269,-7,cs),
(351,-7,o),
(419,49,o),
(481,182,cs),
(543,314,o),
(580,467,o),
(580,565,cs),
(580,681,o),
(551,739,o),
(478,739,cs)
);
}
);
width = 595;
}
);
metricLeft = A;
metricRight = A;
unicode = 86;
},
{
glyphname = W;
lastChange = "2021-08-18 16:21:03 +0000";
layers = (
{
anchors = (
{
name = bottom;
pos = (378,0);
},
{
name = top;
pos = (378,730);
}
);
background = {
shapes = (
{
closed = 1;
nodes = (
(25,424,o),
(39,258,o),
(57,166,cs),
(79,54,o),
(115,11,o),
(182,11,cs),
(263,11,o),
(325,66,o),
(375,289,c),
(377,289,l),
(426,61,o),
(492,-8,o),
(562,-8,cs),
(626,-8,o),
(666,44,o),
(689,135,cs),
(717,245,o),
(731,390,o),
(731,521,cs),
(731,663,o),
(681,738,o),
(596,738,cs),
(532,738,o),
(491,701,o),
(491,562,cs),
(491,497,o),
(496,414,o),
(503,343,c),
(501,343,l),
(454,533,o),
(423,595,o),
(371,595,cs),
(323,595,o),
(290,535,o),
(248,331,c),
(246,331,l),
(256,398,o),
(263,491,o),
(263,546,cs),
(263,638,o),
(239,711,o),
(155,711,cs),
(66,711,o),
(25,656,o),
(25,515,cs)
);
}
);
};
layerId = m01;
shapes = (
{
closed = 1;
nodes = (
(75,443,o),
(95,240,o),
(117,126,cs),
(133,43,o),
(152,11,o),
(192,11,cs),
(269,11,o),
(328,150,o),
(375,449,c),
(377,449,l),
(423,151,o),
(486,-8,o),
(552,-8,cs),
(591,-8,o),
(613,30,o),
(629,95,cs),
(663,228,o),
(681,403,o),
(681,561,cs),
(681,677,o),
(655,738,o),
(609,738,cs),
(573,738,o),
(551,712,o),
(551,612,cs),
(551,464,o),
(554,275,o),
(558,113,c),
(556,113,l),
(489,447,o),
(434,555,o),
(371,555,cs),
(313,555,o),
(257,456,o),
(198,121,c),
(196,121,l),
(203,269,o),
(208,474,o),
(208,596,cs),
(208,660,o),
(194,711,o),
(147,711,cs),
(97,711,o),
(75,667,o),
(75,555,cs)
);
}
);
width = 756;
},
{
anchors = (
{
name = bottom;
pos = (378,0);
},
{
name = top;
pos = (378,730);
}
);
layerId = m003;
shapes = (
{
closed = 1;
nodes = (
(25,424,o),
(39,258,o),
(57,166,cs),
(79,54,o),
(115,11,o),
(182,11,cs),
(263,11,o),
(325,66,o),
(375,289,c),
(377,289,l),
(426,61,o),
(492,-8,o),
(562,-8,cs),
(626,-8,o),
(666,44,o),
(689,135,cs),
(717,245,o),
(731,390,o),
(731,521,cs),
(731,663,o),
(681,738,o),
(596,738,cs),
(532,738,o),
(491,701,o),
(491,562,cs),
(491,497,o),
(496,414,o),
(503,343,c),
(501,343,l),
(454,533,o),
(423,595,o),
(371,595,cs),
(323,595,o),
(290,535,o),
(248,331,c),
(246,331,l),
(256,398,o),
(263,491,o),
(263,546,cs),
(263,638,o),
(239,711,o),
(155,711,cs),
(66,711,o),
(25,656,o),
(25,515,cs)
);
}
);
width = 756;
}
);
metricLeft = H;
metricRight = H;
unicode = 87;
},
{
glyphname = X;
lastChange = "2021-08-18 14:08:08 +0000";
layers = (
{
anchors = (
{
name = bottom;
pos = (327,0);
},
{
name = top;
pos = (327,730);
}
);
background = {
shapes = (
{
closed = 1;
nodes = (
(199,-7,o),
(286,71,o),
(321,277,c),
(323,277,l),
(336,103,o),
(403,4,o),
(494,4,cs),
(561,4,o),
(633,57,o),
(633,141,cs),
(633,232,o),
(575,318,o),
(447,374,c),
(447,376,l),
(571,421,o),
(643,499,o),
(643,594,cs),
(643,676,o),
(592,738,o),
(523,738,cs),
(447,738,o),
(367,660,o),
(332,454,c),
(330,454,l),
(319,612,o),
(259,701,o),
(172,701,cs),
(112,701,o),
(50,648,o),
(50,564,cs),
(50,484,o),
(100,415,o),
(207,367,c),
(207,365,l),
(79,308,o),
(10,208,o),
(10,117,cs),
(10,46,o),
(54,-7,o),
(123,-7,cs)
);
}
);
};
layerId = m01;
shapes = (
{
closed = 1;
nodes = (
(144,-7,o),
(214,85,o),
(321,327,c),
(323,327,l),
(410,111,o),
(483,4,o),
(554,4,cs),
(582,4,o),
(613,30,o),
(613,71,cs),
(613,137,o),
(536,240,o),
(367,374,c),
(367,376,l),
(529,498,o),
(623,604,o),
(623,674,cs),
(623,710,o),
(602,738,o),
(573,738,cs),
(507,738,o),
(436,649,o),
(332,414,c),
(330,414,l),
(256,608,o),
(177,701,o),
(122,701,cs),
(96,701,o),
(70,679,o),
(70,644,cs),
(70,582,o),
(139,484,o),
(287,367,c),
(287,365,l),
(120,232,o),
(30,112,o),
(30,47,cs),
(30,16,o),
(51,-7,o),
(83,-7,cs)
);
}
);
width = 653;
},
{
anchors = (
{
name = bottom;
pos = (327,0);
},
{
name = top;
pos = (327,730);
}
);
layerId = m003;
shapes = (
{
closed = 1;
nodes = (
(199,-7,o),
(286,71,o),
(321,277,c),
(323,277,l),
(336,103,o),
(403,4,o),
(494,4,cs),
(561,4,o),
(633,57,o),
(633,141,cs),
(633,232,o),
(575,318,o),
(447,374,c),
(447,376,l),
(571,421,o),
(643,499,o),
(643,594,cs),
(643,676,o),
(592,738,o),
(523,738,cs),
(447,738,o),
(367,660,o),
(332,454,c),
(330,454,l),
(319,612,o),
(259,701,o),
(172,701,cs),
(112,701,o),
(50,648,o),
(50,564,cs),
(50,484,o),
(100,415,o),
(207,367,c),
(207,365,l),
(79,308,o),
(10,208,o),
(10,117,cs),
(10,46,o),
(54,-7,o),
(123,-7,cs)
);
}
);
width = 653;
}
);
metricLeft = "=|E";
metricRight = E;
unicode = 88;
},
{
glyphname = Y;
lastChange = "2021-08-18 13:34:57 +0000";
layers = (
{
anchors = (
{
name = bottom;
pos = (307,0);
},
{
name = top;
pos = (307,724);
},
{
name = topleft;
pos = (20,730);
}
);
background = {
shapes = (
{
closed = 1;
nodes = (
(357,-9,o),
(420,42,o),
(420,137,cs),
(420,212,o),
(383,314,o),
(337,382,c),
(328,353,l),
(503,389,o),
(608,479,o),
(608,594,cs),
(608,676,o),
(557,738,o),
(488,738,cs),
(412,738,o),
(325,659,o),
(290,453,c),
(295,454,l),
(283,628,o),
(229,727,o),
(144,727,cs),
(77,727,o),
(5,666,o),
(5,570,cs),
(5,478,o),
(76,401,o),
(233,354,c),
(227,392,l),
(183,337,o),
(141,227,o),
(141,128,cs),
(141,25,o),
(191,-9,o),
(266,-9,cs)
);
}
);
};
layerId = m01;
shapes = (
{
closed = 1;
nodes = (
(320,-9,o),
(350,35,o),
(350,117,cs),
(350,188,o),
(336,298,o),
(317,382,c),
(308,363,l),
(483,472,o),
(588,606,o),
(588,684,cs),
(588,717,o),
(571,738,o),
(538,738,cs),
(476,738,o),
(381,638,o),
(280,413,c),
(285,414,l),
(201,631,o),
(134,727,o),
(74,727,cs),
(43,727,o),
(25,711,o),
(25,680,cs),
(25,627,o),
(68,533,o),
(253,364,c),
(247,392,l),
(228,323,o),
(211,205,o),
(211,108,cs),
(211,20,o),
(237,-9,o),
(276,-9,cs)
);
}
);
width = 613;
},
{
anchors = (
{
name = bottom;
pos = (307,0);
},
{
name = top;
pos = (307,724);
},
{
name = topleft;
pos = (20,730);
}
);
layerId = m003;
shapes = (
{
closed = 1;
nodes = (
(357,-9,o),
(420,42,o),
(420,137,cs),
(420,212,o),
(383,314,o),
(337,382,c),
(328,353,l),
(503,389,o),
(608,479,o),
(608,594,cs),
(608,676,o),
(557,738,o),
(488,738,cs),
(412,738,o),
(325,659,o),
(290,453,c),
(295,454,l),
(283,628,o),
(229,727,o),
(144,727,cs),
(77,727,o),
(5,666,o),
(5,570,cs),
(5,478,o),
(76,401,o),
(233,354,c),
(227,392,l),
(183,337,o),
(141,227,o),
(141,128,cs),
(141,25,o),
(191,-9,o),
(266,-9,cs)
);
}
);
width = 613;
}
);
metricLeft = "=|L";
metricRight = L;
unicode = 89;
},
{
glyphname = Z;
lastChange = "2021-08-18 13:42:14 +0000";
layers = (
{
anchors = (
{
name = bottom;
pos = (271,0);
},
{
name = center;
pos = (271,365);
},
{
name = top;
pos = (271,730);
}
);
background = {
shapes = (
{
closed = 1;
nodes = (
(10,46,o),
(69,-7,o),
(193,-7,cs),
(243,-7,o),
(311,-1,o),
(375,8,cs),
(470,21,o),
(524,70,o),
(524,149,cs),
(524,218,o),
(488,246,o),
(402,246,cs),
(329,246,o),
(239,228,o),
(184,205,c),
(184,207,l),
(469,402,o),
(532,497,o),
(532,593,cs),
(532,710,o),
(466,737,o),
(315,737,cs),
(212,737,o),
(122,722,o),
(64,688,cs),
(28,667,o),
(11,634,o),
(11,584,cs),
(11,521,o),
(45,486,o),
(124,486,cs),
(170,486,o),
(261,503,o),
(324,523,c),
(324,521,l),
(94,371,o),
(10,258,o),
(10,145,cs)
);
}
);
};
layerId = m01;
shapes = (
{
closed = 1;
nodes = (
(30,13,o),
(73,-7,o),
(163,-7,cs),
(229,-7,o),
(320,-1,o),
(405,18,cs),
(468,32,o),
(504,55,o),
(504,95,cs),
(504,131,o),
(483,146,o),
(432,146,cs),
(343,146,o),
(203,115,o),
(114,75,c),
(114,77,l),
(346,339,o),
(512,565,o),
(512,643,cs),
(512,708,o),
(459,737,o),
(345,737,cs),
(238,737,o),
(134,719,o),
(82,697,cs),
(43,680,o),
(31,659,o),
(31,634,cs),
(31,603,o),
(56,586,o),
(114,586,cs),
(185,586,o),
(326,608,o),
(424,633,c),
(424,631,l),
(136,314,o),
(30,141,o),
(30,75,cs)
);
}
);
width = 542;
},
{
anchors = (
{
name = bottom;
pos = (271,0);
},
{
name = center;
pos = (271,365);
},
{
name = top;
pos = (271,730);
}
);
layerId = m003;
shapes = (
{
closed = 1;
nodes = (
(10,46,o),
(69,-7,o),
(193,-7,cs),
(243,-7,o),
(311,-1,o),
(375,8,cs),
(470,21,o),
(524,70,o),
(524,149,cs),
(524,218,o),
(488,246,o),
(402,246,cs),
(329,246,o),
(239,228,o),
(184,205,c),
(184,207,l),
(469,402,o),
(532,497,o),
(532,593,cs),
(532,710,o),
(466,737,o),
(315,737,cs),
(212,737,o),
(122,722,o),
(64,688,cs),
(28,667,o),
(11,634,o),
(11,584,cs),
(11,521,o),
(45,486,o),
(124,486,cs),
(170,486,o),
(261,503,o),
(324,523,c),
(324,521,l),
(94,371,o),
(10,258,o),
(10,145,cs)
);
}
);
width = 542;
}
);
unicode = 90;
},
{
glyphname = F.001;
lastChange = "2021-08-17 14:02:59 +0000";
layers = (
{
layerId = m01;
shapes = (
{
closed = 1;
nodes = (
(228,736,o),
(130,711,o),
(82,645,cs),
(48,599,o),
(25,514,o),
(25,323,cs),
(25,177,o),
(38,102,o),
(64,50,cs),
(86,7,o),
(118,-6,o),
(159,-6,cs),
(225,-6,o),
(266,21,o),
(266,107,cs),
(266,164,o),
(248,226,o),
(231,253,c),
(192,251,l),
(244,241,o),
(296,236,o),
(339,236,cs),
(437,236,o),
(473,279,o),
(473,334,cs),
(473,385,o),
(442,424,o),
(356,424,cs),
(311,424,o),
(249,414,o),
(215,403,c),
(231,396,l),
(238,446,o),
(238,496,o),
(229,531,c),
(219,508,l),
(261,503,o),
(300,501,o),
(331,501,cs),
(445,501,o),
(498,539,o),
(498,624,cs),
(498,693,o),
(466,736,o),
(348,736,cs)
);
}
);
width = 503;
},
{
layerId = m003;
shapes = (
{
closed = 1;
nodes = (
(228,736,o),
(130,711,o),
(82,645,cs),
(48,599,o),
(25,514,o),
(25,323,cs),
(25,177,o),
(38,102,o),
(64,50,cs),
(86,7,o),
(118,-6,o),
(159,-6,cs),
(225,-6,o),
(266,21,o),
(266,107,cs),
(266,164,o),
(248,226,o),
(231,253,c),
(192,251,l),
(244,241,o),
(296,236,o),
(339,236,cs),
(437,236,o),
(473,279,o),
(473,334,cs),
(473,385,o),
(442,424,o),
(356,424,cs),
(311,424,o),
(249,414,o),
(215,403,c),
(231,396,l),
(238,446,o),
(238,496,o),
(229,531,c),
(219,508,l),
(261,503,o),
(300,501,o),
(331,501,cs),
(445,501,o),
(498,539,o),
(498,624,cs),
(498,693,o),
(466,736,o),
(348,736,cs)
);
}
);
width = 503;
}
);
metricLeft = H;
metricRight = T;
},
{
glyphname = O.ss01;
lastChange = "2021-08-17 14:02:59 +0000";
layers = (
{
layerId = m01;
shapes = (
{
closed = 1;
nodes = (
(537,36,o),
(666,170,o),
(666,389,cs),
(666,590,o),
(538,727,o),
(341,727,cs),
(143,727,o),
(15,582,o),
(15,368,cs),
(15,163,o),
(141,36,o),
(337,36,cs)
);
},
{
closed = 1;
nodes = (
(271,300,o),
(233,341,o),
(233,405,cs),
(233,469,o),
(271,510,o),
(329,510,cs),
(387,510,o),
(425,469,o),
(425,405,cs),
(425,341,o),
(387,300,o),
(329,300,cs)
);
}
);
width = 681;
},
{
layerId = m003;
shapes = (
{
closed = 1;
nodes = (
(537,36,o),
(666,170,o),
(666,389,cs),
(666,590,o),
(538,727,o),
(341,727,cs),
(143,727,o),
(15,582,o),
(15,368,cs),
(15,163,o),
(141,36,o),
(337,36,cs)
);
},
{
closed = 1;
nodes = (
(271,300,o),
(233,341,o),
(233,405,cs),
(233,469,o),
(271,510,o),
(329,510,cs),
(387,510,o),
(425,469,o),
(425,405,cs),
(425,341,o),
(387,300,o),
(329,300,cs)
);
}
);
width = 681;
}
);
metricLeft = O;
metricRight = O;
},
{
glyphname = O.ss02;
lastChange = "2021-08-17 14:02:59 +0000";
layers = (
{
layerId = m01;
shapes = (
{
closed = 1;
nodes = (
(539,-5,o),
(676,143,o),
(676,358,cs),
(676,554,o),
(548,686,o),
(351,686,cs),
(147,686,o),
(15,519,o),
(15,307,cs),
(15,110,o),
(137,-5,o),
(327,-5,cs)
);
},
{
closed = 1;
nodes = (
(302,239,o),
(268,284,o),
(268,354,cs),
(268,436,o),
(306,489,o),
(361,489,cs),
(410,489,o),
(440,444,o),
(440,374,cs),
(440,292,o),
(406,239,o),
(352,239,cs)
);
}
);
width = 691;
},
{
layerId = m003;
shapes = (
{
closed = 1;
nodes = (
(539,-5,o),
(676,143,o),
(676,358,cs),
(676,554,o),
(548,686,o),
(351,686,cs),
(147,686,o),
(15,519,o),
(15,307,cs),
(15,110,o),
(137,-5,o),
(327,-5,cs)
);
},
{
closed = 1;
nodes = (
(302,239,o),
(268,284,o),
(268,354,cs),
(268,436,o),
(306,489,o),
(361,489,cs),
(410,489,o),
(440,444,o),
(440,374,cs),
(440,292,o),
(406,239,o),
(352,239,cs)
);
}
);
width = 691;
}
);
metricLeft = O;
metricRight = O;
},
{
glyphname = O.ss03;
lastChange = "2021-08-17 14:02:59 +0000";
layers = (
{
layerId = m01;
shapes = (
{
closed = 1;
nodes = (
(543,47,o),
(676,216,o),
(676,420,cs),
(676,610,o),
(548,738,o),
(351,738,cs),
(147,738,o),
(15,600,o),
(15,389,cs),
(15,179,o),
(141,47,o),
(337,47,cs)
);
},
{
closed = 1;
nodes = (
(302,271,o),
(268,316,o),
(268,386,cs),
(268,462,o),
(306,511,o),
(361,511,cs),
(410,511,o),
(440,470,o),
(440,406,cs),
(440,324,o),
(406,271,o),
(352,271,cs)
);
}
);
width = 691;
},
{
layerId = m003;
shapes = (
{
closed = 1;
nodes = (
(543,47,o),
(676,216,o),
(676,420,cs),
(676,610,o),
(548,738,o),
(351,738,cs),
(147,738,o),
(15,600,o),
(15,389,cs),
(15,179,o),
(141,47,o),
(337,47,cs)
);
},
{
closed = 1;
nodes = (
(302,271,o),
(268,316,o),
(268,386,cs),
(268,462,o),
(306,511,o),
(361,511,cs),
(410,511,o),
(440,470,o),
(440,406,cs),
(440,324,o),
(406,271,o),
(352,271,cs)
);
}
);
width = 691;
}
);
metricLeft = O;
metricRight = O;
},
{
glyphname = a;
lastChange = "2021-08-18 15:25:40 +0000";
layers = (
{
associatedMasterId = m01;
background = {
shapes = (
{
closed = 1;
nodes = (
(518,-10,o),
(549,35,o),
(549,206,cs),
(549,310,o),
(537,403,o),
(508,477,cs),
(469,576,o),
(402,626,o),
(287,626,cs),
(157,626,o),
(45,565,o),
(45,477,cs),
(45,434,o),
(71,409,o),
(127,409,cs),
(168,409,o),
(211,422,o),
(247,422,cs),
(306,422,o),
(331,388,o),
(340,265,c),
(373,273,l),
(334,318,o),
(279,345,o),
(205,345,cs),
(87,345,o),
(10,275,o),
(10,165,cs),
(10,68,o),
(69,-13,o),
(196,-13,cs),
(282,-13,o),
(342,26,o),
(373,96,c),
(356,101,l),
(363,24,o),
(381,-10,o),
(445,-10,cs)
);
},
{
closed = 1;
nodes = (
(240,131,o),
(219,152,o),
(219,181,cs),
(219,213,o),
(244,237,o),
(283,237,cs),
(314,237,o),
(343,221,o),
(343,187,cs),
(343,149,o),
(305,131,o),
(274,131,cs)
);
}
);
};
layerId = "0E3AB4F1-F743-46CB-8034-BCB854B926D0";
name = "27 Jul 21, 23:17";
shapes = (
{
closed = 1;
nodes = (
(518,-10,o),
(549,35,o),
(549,206,cs),
(549,310,o),
(537,403,o),
(508,477,cs),
(469,576,o),
(402,626,o),
(287,626,cs),
(157,626,o),
(45,565,o),
(45,477,cs),
(45,434,o),
(71,409,o),
(127,409,cs),
(175,409,o),
(225,422,o),
(267,422,cs),
(306,422,o),
(329,409,o),
(329,380,cs),
(329,352,o),
(301,339,o),
(215,335,cs),
(87,330,o),
(10,275,o),
(10,165,cs),
(10,68,o),
(69,-13,o),
(196,-13,cs),
(282,-13,o),
(342,26,o),
(373,96,c),
(356,101,l),
(363,24,o),
(381,-10,o),
(445,-10,cs)
);
},
{
closed = 1;
nodes = (
(240,131,o),
(219,152,o),
(219,181,cs),
(219,213,o),
(244,237,o),
(283,237,cs),
(314,237,o),
(343,221,o),
(343,187,cs),
(343,149,o),
(305,131,o),
(274,131,cs)
);
}
);
width = 559;
},
{
anchors = (
{
name = bottom;
pos = (285,0);
},
{
name = ogonek;
pos = (512,10);
},
{
name = top;
pos = (265,626);
}
);
background = {
shapes = (
{
closed = 1;
nodes = (
(518,-10,o),
(549,35,o),
(549,206,cs),
(549,310,o),
(537,403,o),
(508,477,cs),
(469,576,o),
(382,626,o),
(267,626,cs),
(137,626,o),
(25,565,o),
(25,476,cs),
(25,430,o),
(54,399,o),
(105,399,cs),
(151,399,o),
(198,424,o),
(237,424,cs),
(304,424,o),
(341,382,o),
(341,275,c),
(373,273,l),
(334,318,o),
(279,345,o),
(205,345,cs),
(87,345,o),
(10,275,o),
(10,165,cs),
(10,68,o),
(69,-13,o),
(196,-13,cs),
(282,-13,o),
(342,24,o),
(373,96,c),
(356,101,l),
(363,24,o),
(381,-10,o),
(445,-10,cs)
);
},
{
closed = 1;
nodes = (
(240,131,o),
(219,152,o),
(219,181,cs),
(219,213,o),
(244,237,o),
(283,237,cs),
(314,237,o),
(343,221,o),
(343,187,cs),
(343,149,o),
(305,131,o),
(274,131,cs)
);
}
);
};
layerId = m01;
name = Regular;
shapes = (
{
closed = 1;
nodes = (
(483,-10,o),
(499,22,o),
(499,146,cs),
(499,277,o),
(485,394,o),
(448,487,cs),
(412,577,o),
(348,626,o),
(257,626,cs),
(143,626,o),
(45,569,o),
(45,516,cs),
(45,494,o),
(60,479,o),
(85,479,cs),
(123,479,o),
(171,524,o),
(247,524,cs),
(326,524,o),
(369,459,o),
(381,295,c),
(393,293,l),
(354,338,o),
(299,365,o),
(225,365,cs),
(107,365,o),
(30,291,o),
(30,175,cs),
(30,73,o),
(89,-13,o),
(216,-13,cs),
(307,-13,o),
(370,24,o),
(403,96,c),
(396,101,l),
(400,24,o),
(410,-10,o),
(445,-10,cs)
);
},
{
closed = 1;
nodes = (
(175,91,o),
(139,122,o),
(139,181,cs),
(139,233,o),
(178,267,o),
(253,267,cs),
(320,267,o),
(383,241,o),
(383,187,cs),
(383,122,o),
(306,91,o),
(244,91,cs)
);
}
);
width = 569;
},
{
associatedMasterId = m003;
background = {
shapes = (
{
closed = 1;
nodes = (
(518,-10,o),
(549,35,o),
(549,206,cs),
(549,310,o),
(537,403,o),
(508,477,cs),
(469,576,o),
(402,626,o),
(287,626,cs),
(157,626,o),
(45,565,o),
(45,477,cs),
(45,434,o),
(71,409,o),
(127,409,cs),
(168,409,o),
(211,422,o),
(247,422,cs),
(306,422,o),
(331,388,o),
(340,265,c),
(373,273,l),
(334,318,o),
(279,345,o),
(205,345,cs),
(87,345,o),
(10,275,o),
(10,165,cs),
(10,68,o),
(69,-13,o),
(196,-13,cs),
(282,-13,o),
(342,26,o),
(373,96,c),
(356,101,l),
(363,24,o),
(381,-10,o),
(445,-10,cs)
);
},
{
closed = 1;
nodes = (
(240,131,o),
(219,152,o),
(219,181,cs),
(219,213,o),
(244,237,o),
(283,237,cs),
(314,237,o),
(343,221,o),
(343,187,cs),
(343,149,o),
(305,131,o),
(274,131,cs)
);
}
);
};
layerId = "84281155-6E52-48D7-B7E6-84A10117377F";
name = "27 Jul 21, 23:17";
shapes = (
{
closed = 1;
nodes = (
(518,-10,o),
(549,35,o),
(549,206,cs),
(549,310,o),
(537,403,o),
(508,477,cs),
(469,576,o),
(402,626,o),
(287,626,cs),
(157,626,o),
(45,565,o),
(45,477,cs),
(45,434,o),
(71,409,o),
(127,409,cs),
(175,409,o),
(225,422,o),
(267,422,cs),
(306,422,o),
(329,409,o),
(329,380,cs),
(329,352,o),
(301,339,o),
(215,335,cs),
(87,330,o),
(10,275,o),
(10,165,cs),
(10,68,o),
(69,-13,o),
(196,-13,cs),
(282,-13,o),
(342,26,o),
(373,96,c),
(356,101,l),
(363,24,o),
(381,-10,o),
(445,-10,cs)
);
},
{
closed = 1;
nodes = (
(240,131,o),
(219,152,o),
(219,181,cs),
(219,213,o),
(244,237,o),
(283,237,cs),
(314,237,o),
(343,221,o),
(343,187,cs),
(343,149,o),
(305,131,o),
(274,131,cs)
);
}
);
width = 559;
},
{
anchors = (
{
name = bottom;
pos = (285,0);
},
{
name = ogonek;
pos = (512,10);
},
{
name = top;
pos = (265,626);
}
);
layerId = m003;
name = Regular;
shapes = (
{
closed = 1;
nodes = (
(518,-10,o),
(549,35,o),
(549,206,cs),
(549,310,o),
(537,403,o),
(508,477,cs),
(469,576,o),
(382,626,o),
(267,626,cs),
(137,626,o),
(25,565,o),
(25,476,cs),
(25,430,o),
(54,399,o),
(105,399,cs),
(151,399,o),
(198,424,o),
(237,424,cs),
(304,424,o),
(341,382,o),
(341,275,c),
(373,273,l),
(334,318,o),
(279,345,o),
(205,345,cs),
(87,345,o),
(10,275,o),
(10,165,cs),
(10,68,o),
(69,-13,o),
(196,-13,cs),
(282,-13,o),
(342,24,o),
(373,96,c),
(356,101,l),
(363,24,o),
(381,-10,o),
(445,-10,cs)
);
},
{
closed = 1;
nodes = (
(240,131,o),
(219,152,o),
(219,181,cs),
(219,213,o),
(244,237,o),
(283,237,cs),
(314,237,o),
(343,221,o),
(343,187,cs),
(343,149,o),
(305,131,o),
(274,131,cs)
);
}
);
width = 569;
}
);
metricRight = n;
unicode = 97;
},
{
glyphname = b;
lastChange = "2021-08-18 15:49:45 +0000";
layers = (
{
anchors = (
{
name = bottom;
pos = (290,0);
},
{
name = center;
pos = (290,310);
},
{
name = top;
pos = (290,620);
}
);
background = {
shapes = (
{
closed = 1;
nodes = (
(175,-10,o),
(208,33,o),
(223,129,c),
(202,140,l),
(217,47,o),
(273,-4,o),
(350,-4,cs),
(473,-4,o),
(564,99,o),
(564,306,cs),
(564,502,o),
(494,592,o),
(383,592,cs),
(290,592,o),
(239,525,o),
(219,439,c),
(231,433,l),
(248,515,o),
(257,600,o),
(257,659,cs),
(257,727,o),
(225,781,o),
(154,781,cs),
(87,781,o),
(55,733,o),
(42,656,cs),
(30,581,o),
(20,403,o),
(20,298,cs),
(20,203,o),
(28,115,o),
(39,63,cs),
(51,14,o),
(81,-10,o),
(124,-10,cs)
);
},
{
closed = 1;
nodes = (
(251,164,o),
(225,219,o),
(225,297,cs),
(225,378,o),
(251,418,o),
(290,418,cs),
(337,418,o),
(356,368,o),
(356,296,cs),
(356,205,o),
(326,164,o),
(292,164,cs)
);
}
);
};
layerId = m01;
shapes = (
{
closed = 1;
nodes = (
(159,-10,o),
(176,33,o),
(178,129,c),
(167,140,l),
(182,47,o),
(243,-4,o),
(320,-4,cs),
(443,-4,o),
(534,99,o),
(534,306,cs),
(534,502,o),
(456,592,o),
(333,592,cs),
(242,592,o),
(179,522,o),
(159,439,c),
(181,473,l),
(198,555,o),
(207,640,o),
(207,699,cs),
(207,745,o),
(191,781,o),
(154,781,cs),
(117,781,o),
(104,748,o),
(96,696,cs),
(82,613,o),
(70,415,o),
(70,298,cs),
(70,195,o),
(77,99,o),
(89,43,cs),
(98,8,o),
(111,-10,o),
(134,-10,cs)
);
},
{
closed = 1;
nodes = (
(224,94,o),
(175,179,o),
(175,300,cs),
(175,433,o),
(225,498,o),
(300,498,cs),
(390,498,o),
(426,416,o),
(426,299,cs),
(426,158,o),
(368,94,o),
(302,94,cs)
);
}
);
width = 579;
},
{
anchors = (
{
name = bottom;
pos = (290,0);
},
{
name = center;
pos = (290,310);
},
{
name = top;
pos = (290,620);
}
);
layerId = m003;
shapes = (
{
closed = 1;
nodes = (
(175,-10,o),
(208,33,o),
(223,129,c),
(202,140,l),
(217,47,o),
(273,-4,o),
(350,-4,cs),
(473,-4,o),
(564,99,o),
(564,306,cs),
(564,502,o),
(494,592,o),
(383,592,cs),
(290,592,o),
(239,525,o),
(219,439,c),
(231,433,l),
(248,515,o),
(257,600,o),
(257,659,cs),
(257,727,o),
(225,781,o),
(154,781,cs),
(87,781,o),
(55,733,o),
(42,656,cs),
(30,581,o),
(20,403,o),
(20,298,cs),
(20,203,o),
(28,115,o),
(39,63,cs),
(51,14,o),
(81,-10,o),
(124,-10,cs)
);
},
{
closed = 1;
nodes = (
(251,164,o),
(225,219,o),
(225,297,cs),
(225,378,o),
(251,418,o),
(290,418,cs),
(337,418,o),
(356,368,o),
(356,296,cs),
(356,205,o),
(326,164,o),
(292,164,cs)
);
}
);
width = 579;
}
);
metricLeft = n;
metricRight = o;
unicode = 98;
},
{
glyphname = c;
lastChange = "2021-08-18 15:50:06 +0000";
layers = (
{
anchors = (
{
name = bottom;
pos = (249,0);
},
{
name = top;
pos = (249,620);
}
);
background = {
shapes = (
{
closed = 1;
nodes = (
(409,-11,o),
(477,51,o),
(477,149,cs),
(477,220,o),
(432,257,o),
(371,257,cs),
(344,257,o),
(315,247,o),
(297,247,cs),
(258,247,o),
(233,261,o),
(233,294,cs),
(233,329,o),
(255,348,o),
(299,348,cs),
(318,348,o),
(342,343,o),
(371,343,cs),
(450,343,o),
(493,386,o),
(493,456,cs),
(493,546,o),
(434,600,o),
(326,600,cs),
(130,600,o),
(15,459,o),
(15,261,cs),
(15,90,o),
(95,-11,o),
(271,-11,cs)
);
}
);
};
layerId = m01;
shapes = (
{
closed = 1;
nodes = (
(412,-11,o),
(477,44,o),
(477,89,cs),
(477,114,o),
(461,127,o),
(441,127,cs),
(400,127,o),
(365,97,o),
(297,97,cs),
(209,97,o),
(153,153,o),
(153,284,cs),
(153,423,o),
(208,498,o),
(319,498,cs),
(380,498,o),
(411,473,o),
(441,473,cs),
(475,473,o),
(493,489,o),
(493,516,cs),
(493,562,o),
(438,600,o),
(336,600,cs),
(153,600,o),
(45,459,o),
(45,261,cs),
(45,90,o),
(119,-11,o),
(281,-11,cs)
);
}
);
width = 498;
},
{
anchors = (
{
name = bottom;
pos = (249,0);
},
{
name = top;
pos = (249,620);
}
);
layerId = m003;
shapes = (
{
closed = 1;
nodes = (
(409,-11,o),
(477,51,o),
(477,149,cs),
(477,220,o),
(432,257,o),
(371,257,cs),
(344,257,o),
(315,247,o),
(297,247,cs),
(258,247,o),
(233,261,o),
(233,294,cs),
(233,329,o),
(255,348,o),
(299,348,cs),
(318,348,o),
(342,343,o),
(371,343,cs),
(450,343,o),
(493,386,o),
(493,456,cs),
(493,546,o),
(434,600,o),
(326,600,cs),
(130,600,o),
(15,459,o),
(15,261,cs),
(15,90,o),
(95,-11,o),
(271,-11,cs)
);
}
);
width = 498;
}
);
metricLeft = o;
unicode = 99;
},
{
glyphname = d;
lastChange = "2021-08-18 16:07:52 +0000";
layers = (
{
anchors = (
{
name = bottom;
pos = (296,0);
},
{
name = center;
pos = (296,310);
},
{
name = top;
pos = (296,800);
},
{
name = topright;
pos = (572,800);
}
);
background = {
shapes = (
{
closed = 1;
nodes = (
(288,-14,o),
(354,39,o),
(388,122,c),
(368,122,l),
(371,28,o),
(388,-10,o),
(446,-10,cs),
(520,-10,o),
(572,52,o),
(572,275,cs),
(572,398,o),
(557,565,o),
(538,649,cs),
(516,742,o),
(475,788,o),
(410,788,cs),
(351,788,o),
(325,751,o),
(325,687,cs),
(325,644,o),
(335,548,o),
(348,477,c),
(364,481,l),
(320,539,o),
(268,573,o),
(196,573,cs),
(80,573,o),
(15,484,o),
(15,284,cs),
(15,82,o),
(84,-14,o),
(201,-14,cs)
);
},
{
closed = 1;
nodes = (
(256,164,o),
(230,215,o),
(230,287,cs),
(230,368,o),
(256,408,o),
(295,408,cs),
(342,408,o),
(361,358,o),
(361,286,cs),
(361,202,o),
(331,164,o),
(297,164,cs)
);
}
);
};
layerId = m01;
shapes = (
{
closed = 1;
nodes = (
(323,-14,o),
(386,39,o),
(418,122,c),
(405,122,l),
(400,28,o),
(410,-10,o),
(446,-10,cs),
(491,-10,o),
(522,43,o),
(522,235,cs),
(522,384,o),
(499,566,o),
(472,680,cs),
(455,754,o),
(434,788,o),
(397,788,cs),
(368,788,o),
(355,762,o),
(355,717,cs),
(355,668,o),
(378,558,o),
(398,477,c),
(404,481,l),
(363,539,o),
(314,573,o),
(246,573,cs),
(117,573,o),
(45,484,o),
(45,284,cs),
(45,82,o),
(118,-14,o),
(241,-14,cs)
);
},
{
closed = 1;
nodes = (
(206,92,o),
(160,172,o),
(160,286,cs),
(160,413,o),
(206,476,o),
(275,476,cs),
(362,476,o),
(411,397,o),
(411,284,cs),
(411,152,o),
(349,92,o),
(278,92,cs)
);
}
);
width = 592;
},
{
anchors = (
{
name = bottom;
pos = (296,0);
},
{
name = center;
pos = (296,310);
},
{
name = top;
pos = (296,800);
},
{
name = topright;
pos = (572,800);
}
);
layerId = m003;
shapes = (
{
closed = 1;
nodes = (
(288,-14,o),
(354,39,o),
(388,122,c),
(368,122,l),
(371,28,o),
(388,-10,o),
(446,-10,cs),
(520,-10,o),
(572,52,o),
(572,275,cs),
(572,398,o),
(557,565,o),
(538,649,cs),
(516,742,o),
(475,788,o),
(410,788,cs),
(351,788,o),
(325,751,o),
(325,687,cs),
(325,644,o),
(335,548,o),
(348,477,c),
(364,481,l),
(320,539,o),
(268,573,o),
(196,573,cs),
(80,573,o),
(15,484,o),
(15,284,cs),
(15,82,o),
(84,-14,o),
(201,-14,cs)
);
},
{
closed = 1;
nodes = (
(256,164,o),
(230,215,o),
(230,287,cs),
(230,368,o),
(256,408,o),
(295,408,cs),
(342,408,o),
(361,358,o),
(361,286,cs),
(361,202,o),
(331,164,o),
(297,164,cs)
);
}
);
width = 592;
}
);
metricLeft = o;
metricRight = "=|n";
unicode = 100;
},
{
glyphname = e;
lastChange = "2021-08-18 15:54:33 +0000";
layers = (
{
anchors = (
{
name = bottom;
pos = (295,0);
},
{
name = ogonek;
pos = (530,10);
},
{
name = top;
pos = (315,612);
}
);
background = {
shapes = (
{
closed = 1;
nodes = (
(492,-8,o),
(584,56,o),
(584,141,cs),
(584,204,o),
(538,229,o),
(502,229,cs),
(451,229,o),
(408,183,o),
(313,183,cs),
(250,183,o),
(214,205,o),
(214,262,c),
(193,259,l),
(223,248,o),
(263,241,o),
(304,241,cs),
(448,241,o),
(548,317,o),
(548,440,cs),
(548,542,o),
(482,612,o),
(336,612,cs),
(150,612,o),
(15,485,o),
(15,268,cs),
(15,96,o),
(96,-8,o),
(319,-8,cs)
);
},
{
closed = 1;
nodes = (
(238,341,o),
(219,359,o),
(219,391,cs),
(219,441,o),
(266,487,o),
(319,487,cs),
(350,487,o),
(369,464,o),
(369,433,cs),
(369,381,o),
(324,341,o),
(271,341,cs)
);
}
);
};
layerId = m01;
shapes = (
{
closed = 1;
nodes = (
(472,-8,o),
(554,49,o),
(554,101,cs),
(554,127,o),
(536,149,o),
(512,149,cs),
(468,149,o),
(433,93,o),
(313,93,cs),
(205,93,o),
(144,140,o),
(144,262,cs),
(144,278,o),
(145,294,o),
(147,310,c),
(123,269,l),
(164,239,o),
(218,221,o),
(274,221,cs),
(418,221,o),
(518,301,o),
(518,430,cs),
(518,538,o),
(458,612,o),
(326,612,cs),
(163,612,o),
(45,485,o),
(45,268,cs),
(45,96,o),
(118,-8,o),
(319,-8,cs)
);
},
{
closed = 1;
nodes = (
(198,311,o),
(159,334,o),
(159,375,cs),
(159,449,o),
(223,517,o),
(316,517,cs),
(387,517,o),
(419,480,o),
(419,428,cs),
(419,362,o),
(359,311,o),
(266,311,cs)
);
}
);
width = 589;
},
{
anchors = (
{
name = bottom;
pos = (295,0);
},
{
name = ogonek;
pos = (530,10);
},
{
name = top;
pos = (315,612);
}
);
layerId = m003;
shapes = (
{
closed = 1;
nodes = (
(492,-8,o),
(584,56,o),
(584,141,cs),
(584,204,o),
(538,229,o),
(502,229,cs),
(451,229,o),
(408,183,o),
(313,183,cs),
(250,183,o),
(214,205,o),
(214,262,cs),
(214,278,o),
(215,294,o),
(217,310,c),
(193,259,l),
(223,248,o),
(263,241,o),
(304,241,cs),
(448,241,o),
(548,317,o),
(548,440,cs),
(548,542,o),
(482,612,o),
(336,612,cs),
(150,612,o),
(15,485,o),
(15,268,cs),
(15,96,o),
(96,-8,o),
(319,-8,cs)
);
},
{
closed = 1;
nodes = (
(238,341,o),
(219,359,o),
(219,391,cs),
(219,441,o),
(266,487,o),
(319,487,cs),
(350,487,o),
(369,464,o),
(369,433,cs),
(369,381,o),
(324,341,o),
(271,341,cs)
);
}
);
width = 589;
}
);
metricLeft = o;
unicode = 101;
},
{
glyphname = f;
lastChange = "2021-08-18 16:00:55 +0000";
layers = (
{
anchors = (
{
name = bottom;
pos = (242,0);
},
{
name = top;
pos = (242,800);
}
);
background = {
shapes = (
{
closed = 1;
nodes = (
(156,589,o),
(136,594,o),
(114,594,cs),
(47,594,o),
(5,555,o),
(5,486,cs),
(5,420,o),
(42,389,o),
(107,389,cs),
(137,389,o),
(162,397,o),
(183,415,c),
(163,420,l),
(132,325,o),
(115,213,o),
(115,137,cs),
(115,53,o),
(150,-10,o),
(240,-10,cs),
(323,-10,o),
(363,62,o),
(363,148,cs),
(363,226,o),
(344,334,o),
(316,411,c),
(311,400,l),
(330,392,o),
(350,389,o),
(368,389,cs),
(431,389,o),
(479,425,o),
(479,496,cs),
(479,570,o),
(435,599,o),
(369,599,cs),
(347,599,o),
(324,592,o),
(307,580,c),
(318,578,l),
(318,608,o),
(329,626,o),
(381,631,cs),
(432,636,o),
(459,666,o),
(459,714,cs),
(459,772,o),
(423,804,o),
(338,804,cs),
(202,804,o),
(151,742,o),
(151,642,cs),
(151,623,o),
(154,603,o),
(160,582,c),
(171,582,l)
);
}
);
};
layerId = m01;
shapes = (
{
closed = 1;
nodes = (
(193,589,o),
(155,594,o),
(114,594,cs),
(59,594,o),
(25,575,o),
(25,541,cs),
(25,513,o),
(51,499,o),
(97,499,cs),
(147,499,o),
(188,505,o),
(223,520,c),
(213,530,l),
(188,385,o),
(175,214,o),
(175,97,cs),
(175,36,o),
(192,-10,o),
(235,-10,cs),
(281,-10,o),
(303,44,o),
(303,108,cs),
(303,234,o),
(292,406,o),
(276,531,c),
(271,515,l),
(307,504,o),
(344,499,o),
(378,499,cs),
(424,499,o),
(459,517,o),
(459,551,cs),
(459,586,o),
(427,599,o),
(379,599,cs),
(336,599,o),
(290,592,o),
(257,580,c),
(277,578,l),
(277,678,o),
(291,704,o),
(363,711,cs),
(414,716,o),
(439,729,o),
(439,754,cs),
(439,786,o),
(412,804,o),
(348,804,cs),
(241,804,o),
(201,750,o),
(201,662,cs),
(201,637,o),
(204,610,o),
(210,582,c),
(221,582,l)
);
}
);
width = 484;
},
{
anchors = (
{
name = bottom;
pos = (242,0);
},
{
name = top;
pos = (242,800);
}
);
layerId = m003;
shapes = (
{
closed = 1;
nodes = (
(156,589,o),
(136,594,o),
(114,594,cs),
(47,594,o),
(5,555,o),
(5,486,cs),
(5,420,o),
(42,389,o),
(107,389,cs),
(137,389,o),
(162,397,o),
(183,415,c),
(163,420,l),
(132,325,o),
(115,213,o),
(115,137,cs),
(115,53,o),
(150,-10,o),
(240,-10,cs),
(323,-10,o),
(363,62,o),
(363,148,cs),
(363,226,o),
(344,334,o),
(316,411,c),
(311,400,l),
(330,392,o),
(350,389,o),
(368,389,cs),
(431,389,o),
(479,425,o),
(479,496,cs),
(479,570,o),
(435,599,o),
(369,599,cs),
(347,599,o),
(324,592,o),
(307,580,c),
(318,578,l),
(318,608,o),
(329,626,o),
(381,631,cs),
(432,636,o),
(459,666,o),
(459,714,cs),
(459,772,o),
(423,804,o),
(338,804,cs),
(202,804,o),
(151,742,o),
(151,642,cs),
(151,623,o),
(154,603,o),
(160,582,c),
(171,582,l)
);
}
);
width = 484;
}
);
unicode = 102;
},
{
glyphname = g;
lastChange = "2021-08-18 16:07:00 +0000";
layers = (
{
anchors = (
{
name = bottom;
pos = (296,-200);
},
{
name = top;
pos = (296,620);
}
);
background = {
shapes = (
{
closed = 1;
nodes = (
(288,46,o),
(354,95,o),
(388,172,c),
(374,162,l),
(376,141,o),
(377,122,o),
(377,108,cs),
(377,42,o),
(344,6,o),
(257,6,cs),
(201,6,o),
(154,14,o),
(111,14,cs),
(58,14,o),
(32,-27,o),
(32,-80,cs),
(32,-146,o),
(82,-196,o),
(222,-196,cs),
(344,-196,o),
(441,-160,o),
(500,-89,cs),
(552,-26,o),
(572,63,o),
(572,255,cs),
(572,347,o),
(563,444,o),
(549,502,cs),
(530,586,o),
(491,632,o),
(426,632,cs),
(367,632,o),
(341,595,o),
(341,531,cs),
(341,520,o),
(344,495,o),
(348,477,c),
(364,521,l),
(320,579,o),
(268,613,o),
(196,613,cs),
(80,613,o),
(15,524,o),
(15,324,cs),
(15,136,o),
(84,46,o),
(201,46,cs)
);
},
{
closed = 1;
nodes = (
(256,214,o),
(230,259,o),
(230,337,cs),
(230,418,o),
(256,458,o),
(295,458,cs),
(342,458,o),
(361,408,o),
(361,336,cs),
(361,245,o),
(331,214,o),
(297,214,cs)
);
}
);
};
layerId = m01;
shapes = (
{
closed = 1;
nodes = (
(323,6,o),
(386,63,o),
(418,152,c),
(404,162,l),
(406,141,o),
(407,122,o),
(407,108,cs),
(407,-23,o),
(360,-94,o),
(237,-94,cs),
(179,-94,o),
(138,-76,o),
(111,-76,cs),
(78,-76,o),
(62,-95,o),
(62,-120,cs),
(62,-163,o),
(104,-196,o),
(222,-196,cs),
(322,-196,o),
(399,-161,o),
(450,-99,cs),
(503,-35,o),
(522,57,o),
(522,255,cs),
(522,362,o),
(506,474,o),
(489,542,cs),
(476,599,o),
(459,632,o),
(426,632,cs),
(395,632,o),
(381,602,o),
(381,551,cs),
(381,540,o),
(384,515,o),
(388,497,c),
(394,501,l),
(358,572,o),
(304,613,o),
(236,613,cs),
(124,613,o),
(45,518,o),
(45,304,cs),
(45,102,o),
(128,6,o),
(241,6,cs)
);
},
{
closed = 1;
nodes = (
(182,114,o),
(150,187,o),
(150,313,cs),
(150,443,o),
(182,508,o),
(260,508,cs),
(353,508,o),
(411,427,o),
(411,311,cs),
(411,164,o),
(331,114,o),
(263,114,cs)
);
}
);
width = 592;
},
{
anchors = (
{
name = bottom;
pos = (296,-200);
},
{
name = top;
pos = (296,620);
}
);
layerId = m003;
shapes = (
{
closed = 1;
nodes = (
(288,46,o),
(354,95,o),
(388,172,c),
(374,162,l),
(376,141,o),
(377,122,o),
(377,108,cs),
(377,42,o),
(344,6,o),
(257,6,cs),
(201,6,o),
(154,14,o),
(111,14,cs),
(58,14,o),
(32,-27,o),
(32,-80,cs),
(32,-146,o),
(82,-196,o),
(222,-196,cs),
(344,-196,o),
(441,-160,o),
(500,-89,cs),
(552,-26,o),
(572,63,o),
(572,255,cs),
(572,347,o),
(563,444,o),
(549,502,cs),
(530,586,o),
(491,632,o),
(426,632,cs),
(367,632,o),
(341,595,o),
(341,531,cs),
(341,520,o),
(344,495,o),
(348,477,c),
(364,521,l),
(320,579,o),
(268,613,o),
(196,613,cs),
(80,613,o),
(15,524,o),
(15,324,cs),
(15,136,o),
(84,46,o),
(201,46,cs)
);
},
{
closed = 1;
nodes = (
(256,214,o),
(230,259,o),
(230,337,cs),
(230,418,o),
(256,458,o),
(295,458,cs),
(342,458,o),
(361,408,o),
(361,336,cs),
(361,245,o),
(331,214,o),
(297,214,cs)
);
}
);
width = 592;
}
);
metricLeft = o;
metricRight = "=|n";
unicode = 103;
},
{
glyphname = h;
lastChange = "2021-08-18 16:08:41 +0000";
layers = (
{
anchors = (
{
name = bottom;
pos = (307,0);
},
{
name = center;
pos = (307,400);
},
{
name = top;
pos = (307,800);
}
);
background = {
shapes = (
{
closed = 1;
nodes = (
(73,792,o),
(20,705,o),
(20,506,cs),
(20,405,o),
(31,227,o),
(46,132,cs),
(65,11,o),
(108,-9,o),
(173,-9,cs),
(236,-9,o),
(283,32,o),
(283,135,cs),
(283,199,o),
(274,240,o),
(274,286,cs),
(274,354,o),
(296,395,o),
(328,395,cs),
(354,395,o),
(369,368,o),
(369,313,cs),
(369,261,o),
(358,195,o),
(358,135,cs),
(358,53,o),
(392,10,o),
(458,10,cs),
(538,10,o),
(593,76,o),
(593,262,cs),
(593,345,o),
(580,437,o),
(550,499,cs),
(518,565,o),
(468,597,o),
(405,597,cs),
(339,597,o),
(276,553,o),
(239,489,c),
(245,489,l),
(259,539,o),
(267,613,o),
(267,669,cs),
(267,750,o),
(243,792,o),
(173,792,cs)
);
}
);
};
layerId = m01;
shapes = (
{
closed = 1;
nodes = (
(100,792,o),
(70,711,o),
(70,526,cs),
(70,401,o),
(85,210,o),
(102,102,cs),
(117,8,o),
(137,-9,o),
(173,-9,cs),
(202,-9,o),
(223,12,o),
(223,65,cs),
(223,123,o),
(204,212,o),
(204,276,cs),
(204,406,o),
(255,485,o),
(328,485,cs),
(386,485,o),
(419,428,o),
(419,313,cs),
(419,252,o),
(408,175,o),
(408,105,cs),
(408,43,o),
(425,10,o),
(458,10,cs),
(508,10,o),
(543,76,o),
(543,262,cs),
(543,345,o),
(530,437,o),
(500,499,cs),
(468,565,o),
(418,597,o),
(355,597,cs),
(283,597,o),
(214,537,o),
(174,449,c),
(180,449,l),
(191,539,o),
(197,641,o),
(197,699,cs),
(197,760,o),
(186,792,o),
(154,792,cs)
);
}
);
width = 613;
},
{
anchors = (
{
name = bottom;
pos = (307,0);
},
{
name = center;
pos = (307,400);
},
{
name = top;
pos = (307,800);
}
);
layerId = m003;
shapes = (
{
closed = 1;
nodes = (
(73,792,o),
(20,705,o),
(20,506,cs),
(20,405,o),
(31,227,o),
(46,132,cs),
(65,11,o),
(108,-9,o),
(173,-9,cs),
(236,-9,o),
(283,32,o),
(283,135,cs),
(283,199,o),
(274,240,o),
(274,286,cs),
(274,354,o),
(296,395,o),
(328,395,cs),
(354,395,o),
(369,368,o),
(369,313,cs),
(369,261,o),
(358,195,o),
(358,135,cs),
(358,53,o),
(392,10,o),
(458,10,cs),
(538,10,o),
(593,76,o),
(593,262,cs),
(593,345,o),
(580,437,o),
(550,499,cs),
(518,565,o),
(468,597,o),
(405,597,cs),
(339,597,o),
(276,553,o),
(239,489,c),
(245,489,l),
(259,539,o),
(267,613,o),
(267,669,cs),
(267,750,o),
(243,792,o),
(173,792,cs)
);
}
);
width = 613;
}
);
metricLeft = n;
unicode = 104;
},
{
glyphname = i;
lastChange = "2021-08-18 16:09:29 +0000";
layers = (
{
anchors = (
{
name = bottom;
pos = (138,0);
}
);
background = {
shapes = (
{
closed = 1;
nodes = (
(73,767,o),
(25,733,o),
(25,668,cs),
(25,617,o),
(60,574,o),
(135,574,cs),
(211,574,o),
(255,609,o),
(255,671,cs),
(255,722,o),
(223,767,o),
(145,767,cs)
);
},
{
closed = 1;
nodes = (
(75,544,o),
(20,441,o),
(20,226,cs),
(20,51,o),
(51,-10,o),
(121,-10,cs),
(210,-10,o),
(255,78,o),
(255,293,cs),
(255,467,o),
(218,544,o),
(156,544,cs)
);
}
);
};
layerId = m01;
shapes = (
{
closed = 1;
nodes = (
(102,767,o),
(75,743,o),
(75,698,cs),
(75,663,o),
(95,634,o),
(137,634,cs),
(180,634,o),
(205,658,o),
(205,701,cs),
(205,736,o),
(187,767,o),
(143,767,cs)
);
},
{
closed = 1;
nodes = (
(102,544,o),
(70,441,o),
(70,226,cs),
(70,51,o),
(88,-10,o),
(128,-10,cs),
(179,-10,o),
(205,78,o),
(205,293,cs),
(205,467,o),
(184,544,o),
(148,544,cs)
);
}
);
width = 275;
},
{
anchors = (
{
name = bottom;
pos = (138,0);
}
);
layerId = m003;
shapes = (
{
closed = 1;
nodes = (
(73,767,o),
(25,733,o),
(25,668,cs),
(25,617,o),
(60,574,o),
(135,574,cs),
(211,574,o),
(255,609,o),
(255,671,cs),
(255,722,o),
(223,767,o),
(145,767,cs)
);
},
{
closed = 1;
nodes = (
(75,544,o),
(20,441,o),
(20,226,cs),
(20,51,o),
(51,-10,o),
(121,-10,cs),
(210,-10,o),
(255,78,o),
(255,293,cs),
(255,467,o),
(218,544,o),
(156,544,cs)
);
}
);
width = 275;
}
);
metricLeft = n;
metricRight = "=|n";
unicode = 105;
},
{
glyphname = idotless;
lastChange = "2021-08-17 14:02:59 +0000";
layers = (
{
anchors = (
{
name = bottom;
pos = (138,0);
},
{
name = ogonek;
pos = (248,10);
},
{
name = top;
pos = (138,544);
}
);
layerId = m01;
shapes = (
{
closed = 1;
nodes = (
(75,544,o),
(20,441,o),
(20,226,cs),
(20,51,o),
(51,-10,o),
(121,-10,cs),
(210,-10,o),
(255,78,o),
(255,293,cs),
(255,467,o),
(218,544,o),
(156,544,cs)
);
}
);
width = 275;
},
{
anchors = (
{
name = bottom;
pos = (138,0);
},
{
name = ogonek;
pos = (248,10);
},
{
name = top;
pos = (138,544);
}
);
layerId = m003;
shapes = (
{
closed = 1;
nodes = (
(75,544,o),
(20,441,o),
(20,226,cs),
(20,51,o),
(51,-10,o),
(121,-10,cs),
(210,-10,o),
(255,78,o),
(255,293,cs),
(255,467,o),
(218,544,o),
(156,544,cs)
);
}
);
width = 275;
}
);
metricRight = "=20";
unicode = 305;
},
{
glyphname = j;
lastChange = "2021-08-18 16:11:59 +0000";
layers = (
{
background = {
shapes = (
{
closed = 1;
nodes = (
(120,-208,o),
(169,-167,o),
(202,-72,cs),
(232,14,o),
(248,158,o),
(248,282,cs),
(248,473,o),
(199,547,o),
(123,547,cs),
(49,547,o),
(20,474,o),
(20,331,cs),
(20,215,o),
(40,65,o),
(85,-93,c),
(90,-93,l),
(56,-38,o),
(22,-16,o),
(-15,-16,cs),
(-55,-16,o),
(-81,-46,o),
(-81,-95,cs),
(-81,-156,o),
(-32,-208,o),
(52,-208,cs)
);
},
{
closed = 1;
nodes = (
(171,585,o),
(221,622,o),
(221,686,cs),
(221,737,o),
(189,770,o),
(128,770,cs),
(55,770,o),
(15,722,o),
(15,661,cs),
(15,610,o),
(50,585,o),
(104,585,cs)
);
}
);
};
layerId = m01;
shapes = (
{
closed = 1;
nodes = (
(118,-208,o),
(148,-183,o),
(165,-123,cs),
(189,-37,o),
(198,124,o),
(198,262,cs),
(198,467,o),
(169,547,o),
(123,547,cs),
(85,547,o),
(70,488,o),
(70,371,cs),
(70,228,o),
(81,42,o),
(105,-153,c),
(110,-156,l),
(60,-95,o),
(0,-56,o),
(-45,-56,cs),
(-67,-56,o),
(-81,-71,o),
(-81,-95,cs),
(-81,-146,o),
(-15,-208,o),
(62,-208,cs)
);
},
{
closed = 1;
nodes = (
(156,645,o),
(191,670,o),
(191,712,cs),
(191,747,o),
(168,770,o),
(125,770,cs),
(73,770,o),
(45,738,o),
(45,698,cs),
(45,662,o),
(70,645,o),
(108,645,cs)
);
}
);
width = 268;
},
{
layerId = m003;
shapes = (
{
closed = 1;
nodes = (
(120,-208,o),
(169,-167,o),
(202,-72,cs),
(232,14,o),
(248,158,o),
(248,282,cs),
(248,473,o),
(199,547,o),
(123,547,cs),
(49,547,o),
(20,474,o),
(20,331,cs),
(20,215,o),
(40,65,o),
(85,-93,c),
(90,-93,l),
(56,-38,o),
(22,-16,o),
(-15,-16,cs),
(-55,-16,o),
(-81,-46,o),
(-81,-95,cs),
(-81,-156,o),
(-32,-208,o),
(52,-208,cs)
);
},
{
closed = 1;
nodes = (
(171,585,o),
(221,622,o),
(221,686,cs),
(221,737,o),
(189,770,o),
(128,770,cs),
(55,770,o),
(15,722,o),
(15,661,cs),
(15,610,o),
(50,585,o),
(104,585,cs)
);
}
);
width = 268;
}
);
unicode = 106;
},
{
glyphname = k;
lastChange = "2021-08-18 16:20:05 +0000";
layers = (
{
anchors = (
{
name = bottom;
pos = (275,0);
},
{
name = top;
pos = (275,800);
}
);
background = {
shapes = (
{
closed = 1;
nodes = (
(104,788,o),
(64,748,o),
(47,658,cs),
(31,575,o),
(20,437,o),
(20,297,cs),
(20,190,o),
(29,90,o),
(41,50,cs),
(53,10,o),
(78,-10,o),
(122,-10,cs),
(177,-10,o),
(208,23,o),
(222,77,cs),
(232,115,o),
(242,178,o),
(246,241,c),
(239,244,l),
(288,59,o),
(346,1,o),
(426,1,cs),
(494,1,o),
(534,42,o),
(534,104,cs),
(534,188,o),
(474,260,o),
(347,335,c),
(339,319,l),
(482,383,o),
(544,444,o),
(544,526,cs),
(544,586,o),
(510,632,o),
(443,632,cs),
(384,632,o),
(315,583,o),
(223,403,c),
(240,424,l),
(253,502,o),
(258,570,o),
(258,630,cs),
(258,746,o),
(225,788,o),
(165,788,cs)
);
}
);
};
layerId = m01;
shapes = (
{
closed = 1;
nodes = (
(130,788,o),
(114,746,o),
(97,658,cs),
(81,575,o),
(70,437,o),
(70,297,cs),
(70,181,o),
(79,82,o),
(89,30,cs),
(94,4,o),
(105,-10,o),
(124,-10,cs),
(150,-10,o),
(164,8,o),
(172,37,cs),
(187,94,o),
(195,193,o),
(196,291,c),
(189,294,l),
(293,101,o),
(400,1,o),
(466,1,cs),
(497,1,o),
(514,18,o),
(514,44,cs),
(514,100,o),
(402,237,o),
(227,345,c),
(229,329,l),
(415,428,o),
(524,524,o),
(524,586,cs),
(524,612,o),
(510,632,o),
(483,632,cs),
(410,632,o),
(303,552,o),
(173,353,c),
(190,364,l),
(203,487,o),
(209,595,o),
(209,690,cs),
(209,762,o),
(193,788,o),
(165,788,cs)
);
}
);
width = 549;
},
{
anchors = (
{
name = bottom;
pos = (275,0);
},
{
name = top;
pos = (275,800);
}
);
layerId = m003;
shapes = (
{
closed = 1;
nodes = (
(104,788,o),
(64,748,o),
(47,658,cs),
(31,575,o),
(20,437,o),
(20,297,cs),
(20,190,o),
(29,90,o),
(41,50,cs),
(53,10,o),
(78,-10,o),
(122,-10,cs),
(177,-10,o),
(208,23,o),
(222,77,cs),
(232,115,o),
(242,178,o),
(246,241,c),
(239,244,l),
(288,59,o),
(346,1,o),
(426,1,cs),
(494,1,o),
(534,42,o),
(534,104,cs),
(534,188,o),
(474,260,o),
(347,335,c),
(339,319,l),
(482,383,o),
(544,444,o),
(544,526,cs),
(544,586,o),
(510,632,o),
(443,632,cs),
(384,632,o),
(315,583,o),
(223,403,c),
(240,424,l),
(253,502,o),
(258,570,o),
(258,630,cs),
(258,746,o),
(225,788,o),
(165,788,cs)
);
}
);
width = 549;
}
);
metricLeft = n;
unicode = 107;
},
{
glyphname = l;
lastChange = "2021-08-18 16:16:39 +0000";
layers = (
{
anchors = (
{
name = bottom;
pos = (168,0);
},
{
name = center;
pos = (168,400);
},
{
name = top;
pos = (168,800);
},
{
name = topright;
pos = (316,800);
}
);
background = {
shapes = (
{
closed = 1;
nodes = (
(261,-2,o),
(331,56,o),
(331,128,cs),
(331,185,o),
(299,212,o),
(245,212,cs),
(206,212,o),
(159,195,o),
(124,166,c),
(210,175,l),
(241,276,o),
(263,416,o),
(263,531,cs),
(263,599,o),
(256,663,o),
(245,707,cs),
(230,767,o),
(200,791,o),
(155,791,cs),
(112,791,o),
(85,768,o),
(61,708,cs),
(37,648,o),
(20,503,o),
(20,376,cs),
(20,233,o),
(30,132,o),
(51,76,cs),
(72,19,o),
(105,-2,o),
(164,-2,cs)
);
}
);
};
layerId = m01;
shapes = (
{
closed = 1;
nodes = (
(229,-2,o),
(331,70,o),
(331,128,cs),
(331,151,o),
(318,162,o),
(295,162,cs),
(246,162,o),
(186,125,o),
(142,62,c),
(150,45,l),
(181,189,o),
(203,388,o),
(203,551,cs),
(203,626,o),
(198,693,o),
(191,737,cs),
(184,778,o),
(175,791,o),
(155,791,cs),
(135,791,o),
(120,779,o),
(108,739,cs),
(88,672,o),
(70,518,o),
(70,376,cs),
(70,223,o),
(79,125,o),
(99,56,cs),
(111,14,o),
(129,-2,o),
(164,-2,cs)
);
}
);
width = 336;
},
{
anchors = (
{
name = bottom;
pos = (168,0);
},
{
name = center;
pos = (168,400);
},
{
name = top;
pos = (168,800);
},
{
name = topright;
pos = (316,800);
}
);
layerId = m003;
shapes = (
{
closed = 1;
nodes = (
(261,-2,o),
(331,56,o),
(331,128,cs),
(331,185,o),
(299,212,o),
(245,212,cs),
(206,212,o),
(159,195,o),
(124,166,c),
(210,175,l),
(241,276,o),
(263,416,o),
(263,531,cs),
(263,599,o),
(256,663,o),
(245,707,cs),
(230,767,o),
(200,791,o),
(155,791,cs),
(112,791,o),
(85,768,o),
(61,708,cs),
(37,648,o),
(20,503,o),
(20,376,cs),
(20,233,o),
(30,132,o),
(51,76,cs),
(72,19,o),
(105,-2,o),
(164,-2,cs)
);
}
);
width = 336;
}
);
metricLeft = n;
unicode = 108;
},
{
glyphname = m;
lastChange = "2021-08-18 16:39:51 +0000";
layers = (
{
anchors = (
{
name = bottom;
pos = (423,0);
},
{
name = top;
pos = (423,620);
}
);
background = {
shapes = (
{
closed = 1;
nodes = (
(510,446,l),
(505,552,o),
(455,617,o),
(368,617,cs),
(302,617,o),
(243,566,o),
(220,479,c),
(223,459,l),
(225,470,o),
(226,483,o),
(226,496,cs),
(226,575,o),
(200,612,o),
(137,612,cs),
(66,612,o),
(40,545,o),
(30,456,cs),
(24,403,o),
(20,340,o),
(20,288,cs),
(20,236,o),
(23,184,o),
(28,132,cs),
(36,40,o),
(67,1,o),
(139,1,cs),
(202,1,o),
(239,39,o),
(242,135,cs),
(244,180,o),
(240,270,o),
(243,316,cs),
(248,378,o),
(261,415,o),
(286,415,cs),
(308,415,o),
(318,392,o),
(321,343,cs),
(324,290,o),
(319,185,o),
(322,125,cs),
(325,53,o),
(361,20,o),
(418,20,cs),
(469,20,o),
(498,44,o),
(516,94,cs),
(529,130,o),
(534,183,o),
(538,253,cs),
(543,343,o),
(561,393,o),
(590,393,cs),
(609,393,o),
(620,372,o),
(620,336,cs),
(620,273,o),
(588,142,o),
(588,95,cs),
(588,34,o),
(623,-1,o),
(680,-1,cs),
(739,-1,o),
(783,31,o),
(799,96,cs),
(812,150,o),
(826,252,o),
(826,345,cs),
(826,535,o),
(755,604,o),
(660,604,cs),
(579,604,o),
(514,540,o),
(496,458,c)
);
}
);
};
layerId = m01;
shapes = (
{
closed = 1;
nodes = (
(460,446,l),
(455,552,o),
(405,617,o),
(318,617,cs),
(252,617,o),
(193,566,o),
(170,479,c),
(173,459,l),
(175,470,o),
(176,483,o),
(176,496,cs),
(176,575,o),
(165,612,o),
(137,612,cs),
(99,612,o),
(87,566,o),
(80,506,cs),
(72,437,o),
(70,355,o),
(70,288,cs),
(70,223,o),
(72,157,o),
(78,92,cs),
(84,28,o),
(99,1,o),
(139,1,cs),
(171,1,o),
(190,31,o),
(192,105,cs),
(195,165,o),
(189,285,o),
(193,346,cs),
(202,452,o),
(236,515,o),
(296,515,cs),
(343,515,o),
(365,470,o),
(371,373,cs),
(375,305,o),
(368,171,o),
(372,95,cs),
(374,44,o),
(391,20,o),
(418,20,cs),
(443,20,o),
(457,35,o),
(466,64,cs),
(482,118,o),
(482,204,o),
(488,313,cs),
(494,429,o),
(533,493,o),
(590,493,cs),
(641,493,o),
(670,446,o),
(670,366,cs),
(670,263,o),
(638,140,o),
(638,85,cs),
(638,30,o),
(654,-1,o),
(680,-1,cs),
(714,-1,o),
(736,25,o),
(749,76,cs),
(763,134,o),
(776,245,o),
(776,345,cs),
(776,535,o),
(705,604,o),
(610,604,cs),
(529,604,o),
(464,540,o),
(446,458,c)
);
}
);
width = 846;
},
{
anchors = (
{
name = bottom;
pos = (423,0);
},
{
name = top;
pos = (423,620);
}
);
layerId = m003;
shapes = (
{
closed = 1;
nodes = (
(510,446,l),
(505,552,o),
(455,617,o),
(368,617,cs),
(302,617,o),
(243,566,o),
(220,479,c),
(223,459,l),
(225,470,o),
(226,483,o),
(226,496,cs),
(226,575,o),
(200,612,o),
(137,612,cs),
(66,612,o),
(40,545,o),
(30,456,cs),
(24,403,o),
(20,340,o),
(20,288,cs),
(20,236,o),
(23,184,o),
(28,132,cs),
(36,40,o),
(67,1,o),
(139,1,cs),
(202,1,o),
(239,39,o),
(242,135,cs),
(244,180,o),
(240,270,o),
(243,316,cs),
(248,378,o),
(261,415,o),
(286,415,cs),
(308,415,o),
(318,392,o),
(321,343,cs),
(324,290,o),
(319,185,o),
(322,125,cs),
(325,53,o),
(361,20,o),
(418,20,cs),
(469,20,o),
(498,44,o),
(516,94,cs),
(529,130,o),
(534,183,o),
(538,253,cs),
(543,343,o),
(561,393,o),
(590,393,cs),
(609,393,o),
(620,372,o),
(620,336,cs),
(620,273,o),
(588,142,o),
(588,95,cs),
(588,34,o),
(623,-1,o),
(680,-1,cs),
(739,-1,o),
(783,31,o),
(799,96,cs),
(812,150,o),
(826,252,o),
(826,345,cs),
(826,535,o),
(755,604,o),
(660,604,cs),
(579,604,o),
(514,540,o),
(496,458,c)
);
}
);
width = 846;
}
);
metricLeft = n;
metricRight = n;
unicode = 109;
},
{
glyphname = n;
lastChange = "2021-08-18 15:39:10 +0000";
layers = (
{
anchors = (
{
name = bottom;
pos = (299,0);
},
{
name = top;
pos = (299,625);
}
);
background = {
shapes = (
{
closed = 1;
nodes = (
(85,622,o),
(49,555,o),
(36,446,cs),
(26,359,o),
(20,236,o),
(20,152,cs),
(20,43,o),
(59,1,o),
(138,1,cs),
(201,1,o),
(240,39,o),
(248,135,cs),
(252,183,o),
(253,277,o),
(259,326,cs),
(267,388,o),
(289,425,o),
(320,425,cs),
(342,425,o),
(354,402,o),
(354,353,cs),
(354,298,o),
(343,188,o),
(343,125,cs),
(343,53,o),
(374,10,o),
(433,10,cs),
(484,10,o),
(524,34,o),
(545,84,cs),
(566,132,o),
(578,227,o),
(578,322,cs),
(578,507,o),
(519,627,o),
(400,627,cs),
(330,627,o),
(263,576,o),
(234,489,c),
(236,469,l),
(240,483,o),
(242,503,o),
(242,519,cs),
(242,587,o),
(221,622,o),
(158,622,cs)
);
}
);
};
layerId = m01;
shapes = (
{
closed = 1;
nodes = (
(115,622,o),
(99,554,o),
(86,446,cs),
(76,359,o),
(70,236,o),
(70,152,cs),
(70,43,o),
(89,1,o),
(128,1,cs),
(162,1,o),
(182,31,o),
(188,105,cs),
(193,160,o),
(184,270,o),
(191,326,cs),
(207,445,o),
(253,515,o),
(320,515,cs),
(381,515,o),
(414,463,o),
(414,353,cs),
(414,262,o),
(393,134,o),
(393,65,cs),
(393,31,o),
(407,10,o),
(433,10,cs),
(461,10,o),
(481,31,o),
(495,74,cs),
(513,129,o),
(528,241,o),
(528,352,cs),
(528,519,o),
(472,627,o),
(360,627,cs),
(290,627,o),
(223,576,o),
(194,489,c),
(196,469,l),
(200,483,o),
(202,503,o),
(202,519,cs),
(202,587,o),
(191,622,o),
(158,622,cs)
);
}
);
width = 598;
},
{
anchors = (
{
name = bottom;
pos = (299,0);
},
{
name = top;
pos = (299,625);
}
);
layerId = m003;
shapes = (
{
closed = 1;
nodes = (
(85,622,o),
(49,555,o),
(36,446,cs),
(26,359,o),
(20,236,o),
(20,152,cs),
(20,43,o),
(59,1,o),
(138,1,cs),
(201,1,o),
(240,39,o),
(248,135,cs),
(252,183,o),
(253,277,o),
(259,326,cs),
(267,388,o),
(289,425,o),
(320,425,cs),
(342,425,o),
(354,402,o),
(354,353,cs),
(354,298,o),
(343,188,o),
(343,125,cs),
(343,53,o),
(374,10,o),
(433,10,cs),
(484,10,o),
(524,34,o),
(545,84,cs),
(566,132,o),
(578,227,o),
(578,322,cs),
(578,507,o),
(519,627,o),
(400,627,cs),
(330,627,o),
(263,576,o),
(234,489,c),
(236,469,l),
(240,483,o),
(242,503,o),
(242,519,cs),
(242,587,o),
(221,622,o),
(158,622,cs)
);
}
);
width = 598;
}
);
unicode = 110;
},
{
glyphname = o;
lastChange = "2021-08-18 15:43:01 +0000";
layers = (
{
anchors = (
{
name = bottom;
pos = (292,0);
},
{
name = center;
pos = (292,310);
},
{
name = ogonek;
pos = (526,10);
},
{
name = top;
pos = (292,608);
},
{
name = topright;
pos = (564,620);
}
);
background = {
shapes = (
{
closed = 1;
nodes = (
(456,-3,o),
(569,113,o),
(569,301,cs),
(569,484,o),
(457,608,o),
(284,608,cs),
(121,608,o),
(15,480,o),
(15,291,cs),
(15,109,o),
(119,-3,o),
(281,-3,cs)
);
},
{
closed = 1;
nodes = (
(254,198,o),
(228,243,o),
(228,313,cs),
(228,383,o),
(254,428,o),
(295,428,cs),
(335,428,o),
(361,383,o),
(361,313,cs),
(361,243,o),
(335,198,o),
(295,198,cs)
);
}
);
};
layerId = m01;
shapes = (
{
closed = 1;
nodes = (
(438,-3,o),
(539,113,o),
(539,301,cs),
(539,484,o),
(439,608,o),
(285,608,cs),
(140,608,o),
(45,480,o),
(45,291,cs),
(45,109,o),
(138,-3,o),
(282,-3,cs)
);
},
{
closed = 1;
nodes = (
(211,108,o),
(158,188,o),
(158,313,cs),
(158,438,o),
(211,518,o),
(296,518,cs),
(378,518,o),
(431,438,o),
(431,313,cs),
(431,188,o),
(378,108,o),
(296,108,cs)
);
}
);
width = 584;
},
{
anchors = (
{
name = bottom;
pos = (292,0);
},
{
name = center;
pos = (292,310);
},
{
name = ogonek;
pos = (526,10);
},
{
name = top;
pos = (292,608);
},
{
name = topright;
pos = (564,620);
}
);
layerId = m003;
shapes = (
{
closed = 1;
nodes = (
(456,-3,o),
(569,113,o),
(569,301,cs),
(569,484,o),
(457,608,o),
(284,608,cs),
(121,608,o),
(15,480,o),
(15,291,cs),
(15,109,o),
(119,-3,o),
(281,-3,cs)
);
},
{
closed = 1;
nodes = (
(254,198,o),
(228,243,o),
(228,313,cs),
(228,383,o),
(254,428,o),
(295,428,cs),
(335,428,o),
(361,383,o),
(361,313,cs),
(361,243,o),
(335,198,o),
(295,198,cs)
);
}
);
width = 584;
}
);
unicode = 111;
},
{
glyphname = p;
lastChange = "2021-08-18 16:43:46 +0000";
layers = (
{
anchors = (
{
name = bottom;
pos = (300,0);
},
{
name = top;
pos = (300,620);
}
);
background = {
shapes = (
{
closed = 1;
nodes = (
(81,620,o),
(51,596,o),
(39,547,cs),
(28,495,o),
(20,407,o),
(20,312,cs),
(20,198,o),
(32,5,o),
(45,-76,cs),
(58,-153,o),
(90,-201,o),
(157,-201,cs),
(228,-201,o),
(260,-147,o),
(260,-79,cs),
(260,-25,o),
(252,52,o),
(241,127,c),
(229,121,l),
(247,63,o),
(291,18,o),
(373,18,cs),
(490,18,o),
(564,114,o),
(564,324,cs),
(564,518,o),
(482,614,o),
(370,614,cs),
(288,614,o),
(224,563,o),
(202,470,c),
(223,481,l),
(208,577,o),
(175,620,o),
(124,620,cs)
);
},
{
closed = 1;
nodes = (
(326,446,o),
(356,405,o),
(356,314,cs),
(356,242,o),
(337,192,o),
(290,192,cs),
(251,192,o),
(225,232,o),
(225,313,cs),
(225,391,o),
(251,446,o),
(292,446,cs)
);
}
);
};
layerId = m01;
shapes = (
{
closed = 1;
nodes = (
(106,620,o),
(96,605,o),
(89,577,cs),
(77,519,o),
(70,419,o),
(70,312,cs),
(70,186,o),
(81,-27,o),
(95,-116,cs),
(103,-168,o),
(120,-201,o),
(157,-201,cs),
(194,-201,o),
(210,-156,o),
(210,-99,cs),
(210,-40,o),
(202,45,o),
(191,127,c),
(179,121,l),
(198,63,o),
(245,18,o),
(333,18,cs),
(456,18,o),
(534,114,o),
(534,324,cs),
(534,518,o),
(448,614,o),
(330,614,cs),
(248,614,o),
(184,563,o),
(162,470,c),
(183,491,l),
(174,580,o),
(154,620,o),
(124,620,cs)
);
},
{
closed = 1;
nodes = (
(363,516,o),
(416,452,o),
(416,310,cs),
(416,199,o),
(382,122,o),
(300,122,cs),
(231,122,o),
(185,184,o),
(185,308,cs),
(185,430,o),
(231,516,o),
(303,516,cs)
);
}
);
width = 579;
},
{
anchors = (
{
name = bottom;
pos = (300,0);
},
{
name = top;
pos = (300,620);
}
);
layerId = m003;
shapes = (
{
closed = 1;
nodes = (
(81,620,o),
(51,596,o),
(39,547,cs),
(28,495,o),
(20,407,o),
(20,312,cs),
(20,198,o),
(32,5,o),
(45,-76,cs),
(58,-153,o),
(90,-201,o),
(157,-201,cs),
(228,-201,o),
(260,-147,o),
(260,-79,cs),
(260,-25,o),
(252,52,o),
(241,127,c),
(229,121,l),
(247,63,o),
(291,18,o),
(373,18,cs),
(490,18,o),
(564,114,o),
(564,324,cs),
(564,518,o),
(482,614,o),
(370,614,cs),
(288,614,o),
(224,563,o),
(202,470,c),
(223,481,l),
(208,577,o),
(175,620,o),
(124,620,cs)
);
},
{
closed = 1;
nodes = (
(326,446,o),
(356,405,o),
(356,314,cs),
(356,242,o),
(337,192,o),
(290,192,cs),
(251,192,o),
(225,232,o),
(225,313,cs),
(225,391,o),
(251,446,o),
(292,446,cs)
);
}
);
width = 579;
}
);
metricLeft = n;
metricRight = o;
unicode = 112;
},
{
glyphname = q;
lastChange = "2021-08-18 16:46:18 +0000";
layers = (
{
anchors = (
{
name = bottom;
pos = (318,0);
},
{
name = top;
pos = (318,620);
}
);
background = {
shapes = (
{
closed = 1;
nodes = (
(534,-196,o),
(574,-152,o),
(587,-76,cs),
(597,-17,o),
(601,73,o),
(601,169,cs),
(601,304,o),
(592,439,o),
(577,503,cs),
(559,580,o),
(520,624,o),
(455,624,cs),
(392,624,o),
(367,576,o),
(367,486,c),
(375,490,l),
(340,572,o),
(286,609,o),
(215,609,cs),
(109,609,o),
(25,514,o),
(25,272,cs),
(25,76,o),
(103,-9,o),
(209,-9,cs),
(308,-9,o),
(373,42,o),
(403,126,c),
(396,127,l),
(388,57,o),
(383,-27,o),
(383,-94,cs),
(383,-155,o),
(410,-196,o),
(469,-196,cs)
);
},
{
closed = 1;
nodes = (
(272,164,o),
(246,202,o),
(246,287,cs),
(246,389,o),
(270,429,o),
(318,429,cs),
(364,429,o),
(391,382,o),
(391,297,cs),
(391,212,o),
(356,164,o),
(314,164,cs)
);
}
);
};
layerId = m01;
shapes = (
{
closed = 1;
nodes = (
(506,-196,o),
(526,-163,o),
(536,-106,cs),
(547,-40,o),
(551,61,o),
(551,169,cs),
(551,320,o),
(542,472,o),
(525,543,cs),
(513,594,o),
(493,624,o),
(455,624,cs),
(413,624,o),
(397,576,o),
(397,486,c),
(415,490,l),
(380,572,o),
(326,609,o),
(255,609,cs),
(143,609,o),
(55,514,o),
(55,272,cs),
(55,76,o),
(137,-9,o),
(249,-9,cs),
(348,-9,o),
(413,42,o),
(443,126,c),
(426,127,l),
(418,54,o),
(413,-34,o),
(413,-104,cs),
(413,-159,o),
(431,-196,o),
(469,-196,cs)
);
},
{
closed = 1;
nodes = (
(210,84,o),
(166,145,o),
(166,281,cs),
(166,445,o),
(207,509,o),
(288,509,cs),
(365,509,o),
(421,434,o),
(421,297,cs),
(421,161,o),
(352,84,o),
(281,84,cs)
);
}
);
width = 621;
},
{
anchors = (
{
name = bottom;
pos = (308,0);
},
{
name = top;
pos = (308,620);
}
);
layerId = m003;
shapes = (
{
closed = 1;
nodes = (
(524,-196,o),
(564,-152,o),
(577,-76,cs),
(587,-17,o),
(591,73,o),
(591,169,cs),
(591,304,o),
(582,439,o),
(567,503,cs),
(549,580,o),
(510,624,o),
(445,624,cs),
(382,624,o),
(357,576,o),
(357,486,c),
(365,490,l),
(330,572,o),
(276,609,o),
(205,609,cs),
(99,609,o),
(15,514,o),
(15,272,cs),
(15,76,o),
(93,-9,o),
(199,-9,cs),
(298,-9,o),
(363,42,o),
(393,126,c),
(386,127,l),
(378,57,o),
(373,-27,o),
(373,-94,cs),
(373,-155,o),
(400,-196,o),
(459,-196,cs)
);
},
{
closed = 1;
nodes = (
(262,164,o),
(236,202,o),
(236,287,cs),
(236,389,o),
(260,429,o),
(308,429,cs),
(354,429,o),
(381,382,o),
(381,297,cs),
(381,212,o),
(346,164,o),
(304,164,cs)
);
}
);
width = 611;
}
);
metricLeft = o;
metricRight = n;
unicode = 113;
},
{
glyphname = r;
lastChange = "2021-08-18 15:29:28 +0000";
layers = (
{
anchors = (
{
name = bottom;
pos = (234,0);
},
{
name = top;
pos = (234,620);
}
);
background = {
shapes = (
{
closed = 1;
nodes = (
(20,323,o),
(30,180,o),
(43,109,cs),
(58,30,o),
(99,-2,o),
(165,-2,cs),
(234,-2,o),
(274,29,o),
(274,112,cs),
(274,191,o),
(242,313,o),
(242,367,cs),
(242,404,o),
(250,427,o),
(267,427,cs),
(279,427,o),
(286,411,o),
(283,363,cs),
(278,297,o),
(302,267,o),
(352,267,cs),
(418,267,o),
(462,314,o),
(462,449,cs),
(462,551,o),
(425,628,o),
(345,628,cs),
(280,628,o),
(233,568,o),
(211,496,c),
(216,494,l),
(216,557,o),
(191,632,o),
(125,632,cs),
(58,632,o),
(20,568,o),
(20,413,cs)
);
}
);
};
layerId = m01;
shapes = (
{
closed = 1;
nodes = (
(70,352,o),
(81,176,o),
(97,89,cs),
(109,25,o),
(126,-2,o),
(165,-2,cs),
(202,-2,o),
(224,24,o),
(224,92,cs),
(224,177,o),
(192,309,o),
(192,367,cs),
(192,449,o),
(224,517,o),
(267,517,cs),
(302,517,o),
(320,484,o),
(313,383,cs),
(307,295,o),
(321,267,o),
(352,267,cs),
(400,267,o),
(432,314,o),
(432,449,cs),
(432,551,o),
(395,628,o),
(315,628,cs),
(250,628,o),
(203,568,o),
(181,496,c),
(186,494,l),
(186,557,o),
(169,632,o),
(125,632,cs),
(90,632,o),
(70,583,o),
(70,463,cs)
);
}
);
width = 467;
},
{
anchors = (
{
name = bottom;
pos = (234,0);
},
{
name = top;
pos = (234,620);
}
);
layerId = m003;
shapes = (
{
closed = 1;
nodes = (
(20,323,o),
(30,180,o),
(43,109,cs),
(58,30,o),
(99,-2,o),
(165,-2,cs),
(234,-2,o),
(274,29,o),
(274,112,cs),
(274,191,o),
(242,313,o),
(242,367,cs),
(242,404,o),
(250,427,o),
(267,427,cs),
(279,427,o),
(286,411,o),
(283,363,cs),
(278,297,o),
(302,267,o),
(352,267,cs),
(418,267,o),
(462,314,o),
(462,449,cs),
(462,551,o),
(425,628,o),
(345,628,cs),
(280,628,o),
(233,568,o),
(211,496,c),
(216,494,l),
(216,557,o),
(191,632,o),
(125,632,cs),
(58,632,o),
(20,568,o),
(20,413,cs)
);
}
);
width = 467;
}
);
metricLeft = n;
unicode = 114;
},
{
glyphname = s;
lastChange = "2021-08-18 16:48:50 +0000";
layers = (
{
anchors = (
{
name = bottom;
pos = (245,0);
},
{
name = top;
pos = (245,620);
}
);
background = {
shapes = (
{
closed = 1;
nodes = (
(117,626,o),
(20,541,o),
(20,416,cs),
(20,303,o),
(97,269,o),
(219,251,cs),
(265,244,o),
(272,231,o),
(272,216,cs),
(272,200,o),
(260,193,o),
(237,193,cs),
(187,193,o),
(141,215,o),
(104,215,cs),
(56,215,o),
(15,183,o),
(15,130,cs),
(15,51,o),
(70,-4,o),
(220,-4,cs),
(379,-4,o),
(474,56,o),
(474,181,cs),
(474,307,o),
(402,348,o),
(269,364,cs),
(216,371,o),
(206,382,o),
(206,399,cs),
(206,416,o),
(219,428,o),
(246,428,cs),
(296,428,o),
(333,412,o),
(368,412,cs),
(427,412,o),
(461,447,o),
(461,497,cs),
(461,572,o),
(411,626,o),
(288,626,cs)
);
}
);
};
layerId = m01;
shapes = (
{
closed = 1;
nodes = (
(136,626,o),
(50,545,o),
(50,426,cs),
(50,313,o),
(115,278,o),
(219,261,cs),
(317,245,o),
(342,223,o),
(342,176,cs),
(342,125,o),
(306,103,o),
(237,103,cs),
(183,103,o),
(134,125,o),
(94,125,cs),
(68,125,o),
(45,108,o),
(45,80,cs),
(45,30,o),
(92,-4,o),
(220,-4,cs),
(360,-4,o),
(444,56,o),
(444,181,cs),
(444,290,o),
(385,329,o),
(259,354,cs),
(180,369,o),
(156,391,o),
(156,439,cs),
(156,485,o),
(189,518,o),
(256,518,cs),
(306,518,o),
(343,502,o),
(378,502,cs),
(412,502,o),
(431,521,o),
(431,547,cs),
(431,593,o),
(390,626,o),
(288,626,cs)
);
}
);
width = 489;
},
{
anchors = (
{
name = bottom;
pos = (245,0);
},
{
name = top;
pos = (245,620);
}
);
layerId = m003;
shapes = (
{
closed = 1;
nodes = (
(117,626,o),
(20,541,o),
(20,416,cs),
(20,303,o),
(97,269,o),
(219,251,cs),
(265,244,o),
(272,231,o),
(272,216,cs),
(272,200,o),
(260,193,o),
(237,193,cs),
(187,193,o),
(141,215,o),
(104,215,cs),
(56,215,o),
(15,183,o),
(15,130,cs),
(15,51,o),
(70,-4,o),
(220,-4,cs),
(379,-4,o),
(474,56,o),
(474,181,cs),
(474,307,o),
(402,348,o),
(269,364,cs),
(216,371,o),
(206,382,o),
(206,399,cs),
(206,416,o),
(219,428,o),
(246,428,cs),
(296,428,o),
(333,412,o),
(368,412,cs),
(427,412,o),
(461,447,o),
(461,497,cs),
(461,572,o),
(411,626,o),
(288,626,cs)
);
}
);
width = 489;
}
);
unicode = 115;
},
{
glyphname = germandbls;
lastChange = "2021-08-17 14:02:59 +0000";
layers = (
{
background = {
shapes = (
{
closed = 1;
nodes = (
(84,720,o),
(54,696,o),
(42,647,cs),
(31,595,o),
(23,507,o),
(23,412,cs),
(23,298,o),
(35,105,o),
(48,24,cs),
(61,-53,o),
(93,-101,o),
(160,-101,cs),
(231,-101,o),
(263,-47,o),
(263,21,cs),
(263,75,o),
(255,152,o),
(244,227,c),
(232,221,l),
(250,163,o),
(294,118,o),
(376,118,cs),
(493,118,o),
(567,214,o),
(567,424,cs),
(567,618,o),
(485,714,o),
(373,714,cs),
(291,714,o),
(227,663,o),
(205,570,c),
(226,581,l),
(211,677,o),
(178,720,o),
(127,720,cs)
);
},
{
closed = 1;
nodes = (
(329,546,o),
(359,505,o),
(359,414,cs),
(359,342,o),
(340,292,o),
(293,292,cs),
(254,292,o),
(228,332,o),
(228,413,cs),
(228,491,o),
(254,546,o),
(295,546,cs)
);
}
);
};
layerId = m01;
shapes = (
{
closed = 1;
nodes = (
(383,436,o),
(283,435,o),
(283,346,cs),
(283,305,o),
(303,288,o),
(338,270,cs),
(362,257,o),
(375,246,o),
(375,231,cs),
(375,216,o),
(365,205,o),
(341,201,cs),
(289,191,o),
(258,166,o),
(258,106,cs),
(258,43,o),
(297,-4,o),
(383,-4,cs),
(505,-4,o),
(587,75,o),
(587,189,cs),
(587,276,o),
(538,329,o),
(442,365,c),
(524,396,o),
(572,451,o),
(572,526,cs),
(572,652,o),
(473,720,o),
(337,720,cs),
(164,720,o),
(56,622,o),
(39,412,cs),
(29,298,o),
(20,125,o),
(20,34,cs),
(20,-53,o),
(65,-101,o),
(132,-101,cs),
(203,-101,o),
(238,-47,o),
(238,21,cs),
(238,75,o),
(224,352,o),
(224,427,cs),
(224,513,o),
(252,555,o),
(313,555,cs),
(356,555,o),
(383,535,o),
(383,504,cs)
);
}
);
width = 603;
},
{
background = {
shapes = (
{
closed = 1;
nodes = (
(84,720,o),
(54,696,o),
(42,647,cs),
(31,595,o),
(23,507,o),
(23,412,cs),
(23,298,o),
(35,105,o),
(48,24,cs),
(61,-53,o),
(93,-101,o),
(160,-101,cs),
(231,-101,o),
(263,-47,o),
(263,21,cs),
(263,75,o),
(255,152,o),
(244,227,c),
(232,221,l),
(250,163,o),
(294,118,o),
(376,118,cs),
(493,118,o),
(567,214,o),
(567,424,cs),
(567,618,o),
(485,714,o),
(373,714,cs),
(291,714,o),
(227,663,o),
(205,570,c),
(226,581,l),
(211,677,o),
(178,720,o),
(127,720,cs)
);
},
{
closed = 1;
nodes = (
(329,546,o),
(359,505,o),
(359,414,cs),
(359,342,o),
(340,292,o),
(293,292,cs),
(254,292,o),
(228,332,o),
(228,413,cs),
(228,491,o),
(254,546,o),
(295,546,cs)
);
}
);
};
layerId = m003;
shapes = (
{
closed = 1;
nodes = (
(383,436,o),
(283,435,o),
(283,346,cs),
(283,305,o),
(303,288,o),
(338,270,cs),
(362,257,o),
(375,246,o),
(375,231,cs),
(375,216,o),
(365,205,o),
(341,201,cs),
(289,191,o),
(258,166,o),
(258,106,cs),
(258,43,o),
(297,-4,o),
(383,-4,cs),
(505,-4,o),
(587,75,o),
(587,189,cs),
(587,276,o),
(538,329,o),
(442,365,c),
(524,396,o),
(572,451,o),
(572,526,cs),
(572,652,o),
(473,720,o),
(337,720,cs),
(164,720,o),
(56,622,o),
(39,412,cs),
(29,298,o),
(20,125,o),
(20,34,cs),
(20,-53,o),
(65,-101,o),
(132,-101,cs),
(203,-101,o),
(238,-47,o),
(238,21,cs),
(238,75,o),
(224,352,o),
(224,427,cs),
(224,513,o),
(252,555,o),
(313,555,cs),
(356,555,o),
(383,535,o),
(383,504,cs)
);
}
);
width = 603;
}
);
unicode = 223;
},
{
glyphname = t;
lastChange = "2021-08-18 16:51:22 +0000";
layers = (
{
anchors = (
{
name = bottom;
pos = (242,0);
},
{
name = center;
pos = (242,310);
},
{
name = top;
pos = (242,620);
},
{
name = topright;
pos = (464,800);
}
);
background = {
shapes = (
{
closed = 1;
nodes = (
(156,609,o),
(136,614,o),
(114,614,cs),
(47,614,o),
(5,571,o),
(5,496,cs),
(5,423,o),
(42,389,o),
(107,389,cs),
(137,389,o),
(162,397,o),
(183,415,c),
(163,430,l),
(132,345,o),
(115,245,o),
(115,177,cs),
(115,116,o),
(126,74,o),
(143,46,cs),
(167,8,o),
(200,-10,o),
(250,-10,cs),
(333,-10,o),
(373,42,o),
(373,128,cs),
(373,212,o),
(340,349,o),
(306,431,c),
(301,420,l),
(323,412,o),
(347,409,o),
(368,409,cs),
(431,409,o),
(479,445,o),
(479,516,cs),
(479,590,o),
(439,619,o),
(379,619,cs),
(353,619,o),
(327,612,o),
(307,600,c),
(325,598,l),
(340,621,o),
(349,653,o),
(349,687,cs),
(349,741,o),
(321,774,o),
(258,774,cs),
(164,774,o),
(140,690,o),
(151,602,c),
(171,602,l)
);
}
);
};
layerId = m01;
shapes = (
{
closed = 1;
nodes = (
(193,609,o),
(155,614,o),
(114,614,cs),
(59,614,o),
(25,589,o),
(25,546,cs),
(25,507,o),
(55,489,o),
(107,489,cs),
(157,489,o),
(198,497,o),
(233,515,c),
(213,530,l),
(195,411,o),
(185,272,o),
(185,177,cs),
(185,112,o),
(191,55,o),
(203,26,cs),
(212,4,o),
(228,-10,o),
(251,-10,cs),
(291,-10,o),
(313,42,o),
(313,128,cs),
(313,240,o),
(292,422,o),
(271,531,c),
(251,520,l),
(289,512,o),
(331,509,o),
(368,509,cs),
(420,509,o),
(459,528,o),
(459,566,cs),
(459,604,o),
(427,619,o),
(379,619,cs),
(335,619,o),
(291,612,o),
(257,600,c),
(275,598,l),
(290,627,o),
(299,668,o),
(299,712,cs),
(299,751,o),
(286,774,o),
(258,774,cs),
(208,774,o),
(195,690,o),
(201,602,c),
(221,602,l)
);
}
);
width = 484;
},
{
anchors = (
{
name = bottom;
pos = (242,0);
},
{
name = center;
pos = (242,310);
},
{
name = top;
pos = (242,620);
},
{
name = topright;
pos = (464,800);
}
);
layerId = m003;
shapes = (
{
closed = 1;
nodes = (
(156,609,o),
(136,614,o),
(114,614,cs),
(47,614,o),
(5,571,o),
(5,496,cs),
(5,423,o),
(42,389,o),
(107,389,cs),
(137,389,o),
(162,397,o),
(183,415,c),
(163,430,l),
(132,345,o),
(115,245,o),
(115,177,cs),
(115,116,o),
(126,74,o),
(143,46,cs),
(167,8,o),
(200,-10,o),
(250,-10,cs),
(333,-10,o),
(373,42,o),
(373,128,cs),
(373,212,o),
(340,349,o),
(306,431,c),
(301,420,l),
(323,412,o),
(347,409,o),
(368,409,cs),
(431,409,o),
(479,445,o),
(479,516,cs),
(479,590,o),
(439,619,o),
(379,619,cs),
(353,619,o),
(327,612,o),
(307,600,c),
(325,598,l),
(340,621,o),
(349,653,o),
(349,687,cs),
(349,741,o),
(321,774,o),
(258,774,cs),
(164,774,o),
(140,690,o),
(151,602,c),
(171,602,l)
);
}
);
width = 484;
}
);
metricLeft = f;
metricRight = "=|f";
unicode = 116;
},
{
glyphname = u;
lastChange = "2021-08-18 16:52:54 +0000";
layers = (
{
anchors = (
{
name = bottom;
pos = (301,0);
},
{
name = ogonek;
pos = (541,10);
},
{
name = top;
pos = (301,609);
},
{
name = topright;
pos = (581,620);
}
);
background = {
shapes = (
{
closed = 1;
nodes = (
(554,6,o),
(581,80,o),
(581,229,cs),
(581,368,o),
(562,494,o),
(535,553,cs),
(517,593,o),
(481,617,o),
(432,617,cs),
(371,617,o),
(336,581,o),
(336,491,cs),
(336,449,o),
(345,364,o),
(345,310,cs),
(345,243,o),
(327,203,o),
(295,203,cs),
(273,203,o),
(258,226,o),
(253,275,cs),
(248,328,o),
(246,423,o),
(240,483,cs),
(233,555,o),
(197,598,o),
(138,598,cs),
(87,598,o),
(50,574,o),
(34,524,cs),
(24,495,o),
(20,450,o),
(20,398,cs),
(20,284,o),
(38,170,o),
(69,99,cs),
(98,33,o),
(155,1,o),
(220,1,cs),
(290,1,o),
(368,52,o),
(387,139,c),
(382,135,l),
(382,68,o),
(398,6,o),
(477,6,cs)
);
}
);
};
layerId = m01;
shapes = (
{
closed = 1;
nodes = (
(517,6,o),
(531,80,o),
(531,229,cs),
(531,377,o),
(513,511,o),
(485,573,cs),
(473,599,o),
(457,617,o),
(432,617,cs),
(403,617,o),
(386,595,o),
(386,541,cs),
(386,480,o),
(405,358,o),
(405,280,cs),
(405,175,o),
(365,113,o),
(295,113,cs),
(247,113,o),
(212,155,o),
(203,245,cs),
(196,316,o),
(197,453,o),
(190,523,cs),
(185,570,o),
(168,598,o),
(138,598,cs),
(112,598,o),
(96,584,o),
(87,554,cs),
(75,519,o),
(70,462,o),
(70,398,cs),
(70,284,o),
(88,170,o),
(119,99,cs),
(148,33,o),
(199,1,o),
(260,1,cs),
(330,1,o),
(408,52,o),
(427,139,c),
(422,135,l),
(422,68,o),
(431,6,o),
(477,6,cs)
);
}
);
width = 601;
},
{
anchors = (
{
name = bottom;
pos = (301,0);
},
{
name = ogonek;
pos = (541,10);
},
{
name = top;
pos = (301,609);
},
{
name = topright;
pos = (581,620);
}
);
layerId = m003;
shapes = (
{
closed = 1;
nodes = (
(554,6,o),
(581,80,o),
(581,229,cs),
(581,368,o),
(562,494,o),
(535,553,cs),
(517,593,o),
(481,617,o),
(432,617,cs),
(371,617,o),
(336,581,o),
(336,491,cs),
(336,449,o),
(345,364,o),
(345,310,cs),
(345,243,o),
(327,203,o),
(295,203,cs),
(273,203,o),
(258,226,o),
(253,275,cs),
(248,328,o),
(246,423,o),
(240,483,cs),
(233,555,o),
(197,598,o),
(138,598,cs),
(87,598,o),
(50,574,o),
(34,524,cs),
(24,495,o),
(20,450,o),
(20,398,cs),
(20,284,o),
(38,170,o),
(69,99,cs),
(98,33,o),
(155,1,o),
(220,1,cs),
(290,1,o),
(368,52,o),
(387,139,c),
(382,135,l),
(382,68,o),
(398,6,o),
(477,6,cs)
);
}
);
width = 601;
}
);
metricLeft = "=|n";
metricRight = "=|n";
unicode = 117;
},
{
glyphname = v;
lastChange = "2021-08-18 16:54:34 +0000";
layers = (
{
anchors = (
{
name = bottom;
pos = (277,0);
},
{
name = top;
pos = (277,620);
}
);
background = {
shapes = (
{
closed = 1;
nodes = (
(40,629,o),
(10,579,o),
(10,480,cs),
(10,382,o),
(38,242,o),
(93,134,cs),
(145,33,o),
(200,-7,o),
(273,-7,cs),
(368,-7,o),
(432,59,o),
(481,170,cs),
(518,255,o),
(543,373,o),
(543,467,cs),
(543,567,o),
(499,612,o),
(425,612,cs),
(363,612,o),
(336,576,o),
(327,484,cs),
(320,422,o),
(305,296,o),
(292,189,c),
(290,189,l),
(278,295,o),
(253,437,o),
(237,507,cs),
(218,591,o),
(186,629,o),
(116,629,cs)
);
}
);
};
layerId = m01;
shapes = (
{
closed = 1;
nodes = (
(44,629,o),
(30,596,o),
(30,530,cs),
(30,418,o),
(69,260,o),
(133,134,cs),
(182,38,o),
(216,-7,o),
(273,-7,cs),
(354,-7,o),
(401,67,o),
(451,180,cs),
(492,275,o),
(523,404,o),
(523,507,cs),
(523,579,o),
(501,612,o),
(465,612,cs),
(428,612,o),
(415,579,o),
(407,494,cs),
(395,373,o),
(355,203,o),
(292,69,c),
(290,69,l),
(230,215,o),
(182,388,o),
(157,507,cs),
(140,589,o),
(124,629,o),
(80,629,cs)
);
}
);
width = 553;
},
{
anchors = (
{
name = bottom;
pos = (277,0);
},
{
name = top;
pos = (277,620);
}
);
layerId = m003;
shapes = (
{
closed = 1;
nodes = (
(40,629,o),
(10,579,o),
(10,480,cs),
(10,382,o),
(38,242,o),
(93,134,cs),
(145,33,o),
(200,-7,o),
(273,-7,cs),
(368,-7,o),
(432,59,o),
(481,170,cs),
(518,255,o),
(543,373,o),
(543,467,cs),
(543,567,o),
(499,612,o),
(425,612,cs),
(363,612,o),
(336,576,o),
(327,484,cs),
(320,422,o),
(305,296,o),
(292,189,c),
(290,189,l),
(278,295,o),
(253,437,o),
(237,507,cs),
(218,591,o),
(186,629,o),
(116,629,cs)
);
}
);
width = 553;
}
);
unicode = 118;
},
{
glyphname = w;
lastChange = "2021-08-18 16:56:15 +0000";
layers = (
{
anchors = (
{
name = bottom;
pos = (359,0);
},
{
name = top;
pos = (359,620);
}
);
background = {
shapes = (
{
closed = 1;
nodes = (
(10,339,o),
(19,237,o),
(36,159,cs),
(60,55,o),
(106,8,o),
(171,8,cs),
(239,8,o),
(310,64,o),
(356,244,c),
(358,244,l),
(405,51,o),
(468,-8,o),
(536,-8,cs),
(597,-8,o),
(635,36,o),
(663,122,cs),
(691,207,o),
(708,350,o),
(708,461,cs),
(708,561,o),
(672,625,o),
(590,625,cs),
(521,625,o),
(481,578,o),
(481,476,cs),
(481,421,o),
(484,350,o),
(489,290,c),
(487,290,l),
(442,471,o),
(402,529,o),
(352,529,cs),
(306,529,o),
(264,472,o),
(224,280,c),
(222,280,l),
(226,331,o),
(229,400,o),
(229,442,cs),
(229,531,o),
(208,602,o),
(135,602,cs),
(59,602,o),
(10,545,o),
(10,406,cs)
);
}
);
};
layerId = m01;
shapes = (
{
closed = 1;
nodes = (
(30,339,o),
(39,237,o),
(56,159,cs),
(80,56,o),
(110,8,o),
(161,8,cs),
(233,8,o),
(308,159,o),
(356,434,c),
(358,434,l),
(405,146,o),
(468,-8,o),
(536,-8,cs),
(587,-8,o),
(615,37,o),
(643,122,cs),
(671,207,o),
(688,350,o),
(688,461,cs),
(688,561,o),
(667,625,o),
(620,625,cs),
(583,625,o),
(561,594,o),
(561,526,cs),
(561,403,o),
(557,244,o),
(549,110,c),
(547,110,l),
(482,385,o),
(424,529,o),
(352,529,cs),
(284,529,o),
(223,388,o),
(164,100,c),
(162,100,l),
(153,223,o),
(149,390,o),
(149,492,cs),
(149,553,o),
(139,602,o),
(105,602,cs),
(59,602,o),
(30,545,o),
(30,406,cs)
);
}
);
width = 718;
},
{
anchors = (
{
name = bottom;
pos = (359,0);
},
{
name = top;
pos = (359,620);
}
);
layerId = m003;
shapes = (
{
closed = 1;
nodes = (
(10,339,o),
(19,237,o),
(36,159,cs),
(60,55,o),
(106,8,o),
(171,8,cs),
(239,8,o),
(310,64,o),
(356,244,c),
(358,244,l),
(405,51,o),
(468,-8,o),
(536,-8,cs),
(597,-8,o),
(635,36,o),
(663,122,cs),
(691,207,o),
(708,350,o),
(708,461,cs),
(708,561,o),
(672,625,o),
(590,625,cs),
(521,625,o),
(481,578,o),
(481,476,cs),
(481,421,o),
(484,350,o),
(489,290,c),
(487,290,l),
(442,471,o),
(402,529,o),
(352,529,cs),
(306,529,o),
(264,472,o),
(224,280,c),
(222,280,l),
(226,331,o),
(229,400,o),
(229,442,cs),
(229,531,o),
(208,602,o),
(135,602,cs),
(59,602,o),
(10,545,o),
(10,406,cs)
);
}
);
width = 718;
}
);
metricLeft = v;
metricRight = v;
unicode = 119;
},
{
glyphname = x;
lastChange = "2021-08-17 14:02:59 +0000";
layers = (
{
anchors = (
{
name = bottom;
pos = (285,0);
},
{
name = top;
pos = (285,620);
}
);
layerId = m01;
shapes = (
{
closed = 1;
nodes = (
(236,282,l),
(77,328,o),
(6,411,o),
(6,501,cs),
(6,572,o),
(63,618,o),
(125,618,cs),
(210,618,o),
(272,533,o),
(294,405,c),
(296,405,l),
(328,560,o),
(389,627,o),
(460,627,cs),
(528,627,o),
(565,578,o),
(565,511,cs),
(565,422,o),
(490,332,o),
(343,290,c),
(355,328,l),
(491,284,o),
(547,212,o),
(547,126,cs),
(547,55,o),
(499,9,o),
(444,9,cs),
(366,9,o),
(319,90,o),
(297,214,c),
(295,214,l),
(263,58,o),
(189,-9,o),
(118,-9,cs),
(54,-9,o),
(6,44,o),
(6,114,cs),
(6,212,o),
(104,289,o),
(267,320,c)
);
}
);
width = 570;
},
{
anchors = (
{
name = bottom;
pos = (285,0);
},
{
name = top;
pos = (285,620);
}
);
layerId = m003;
shapes = (
{
closed = 1;
nodes = (
(236,282,l),
(77,328,o),
(6,411,o),
(6,501,cs),
(6,572,o),
(63,618,o),
(125,618,cs),
(210,618,o),
(272,533,o),
(294,405,c),
(296,405,l),
(328,560,o),
(389,627,o),
(460,627,cs),
(528,627,o),
(565,578,o),
(565,511,cs),
(565,422,o),
(490,332,o),
(343,290,c),
(355,328,l),
(491,284,o),
(547,212,o),
(547,126,cs),
(547,55,o),
(499,9,o),
(444,9,cs),
(366,9,o),
(319,90,o),
(297,214,c),
(295,214,l),
(263,58,o),
(189,-9,o),
(118,-9,cs),
(54,-9,o),
(6,44,o),
(6,114,cs),
(6,212,o),
(104,289,o),
(267,320,c)
);
}
);
width = 570;
}
);
unicode = 120;
},
{
glyphname = y;
lastChange = "2021-08-17 14:02:59 +0000";
layers = (
{
anchors = (
{
name = bottom;
pos = (282,0);
},
{
name = top;
pos = (282,612);
}
);
layerId = m01;
shapes = (
{
closed = 1;
nodes = (
(84,258,o),
(10,372,o),
(10,490,cs),
(10,564,o),
(52,607,o),
(119,607,cs),
(213,607,o),
(281,495,o),
(309,306,c),
(304,305,l),
(337,514,o),
(394,618,o),
(473,618,cs),
(525,618,o),
(553,580,o),
(553,514,cs),
(553,427,o),
(501,258,o),
(421,103,cs),
(311,-110,o),
(230,-199,o),
(151,-199,cs),
(102,-199,o),
(76,-171,o),
(76,-112,cs),
(76,-39,o),
(142,70,o),
(228,144,c),
(227,128,l)
);
}
);
width = 563;
},
{
anchors = (
{
name = bottom;
pos = (282,0);
},
{
name = top;
pos = (282,612);
}
);
layerId = m003;
shapes = (
{
closed = 1;
nodes = (
(84,258,o),
(10,372,o),
(10,490,cs),
(10,564,o),
(52,607,o),
(119,607,cs),
(213,607,o),
(281,495,o),
(309,306,c),
(304,305,l),
(337,514,o),
(394,618,o),
(473,618,cs),
(525,618,o),
(553,580,o),
(553,514,cs),
(553,427,o),
(501,258,o),
(421,103,cs),
(311,-110,o),
(230,-199,o),
(151,-199,cs),
(102,-199,o),
(76,-171,o),
(76,-112,cs),
(76,-39,o),
(142,70,o),
(228,144,c),
(227,128,l)
);
}
);
width = 563;
}
);
metricLeft = v;
metricRight = v;
unicode = 121;
},
{
glyphname = z;
lastChange = "2021-08-17 14:02:59 +0000";
layers = (
{
anchors = (
{
name = bottom;
pos = (266,0);
},
{
name = center;
pos = (266,310);
},
{
name = top;
pos = (266,620);
}
);
layerId = m01;
shapes = (
{
closed = 1;
nodes = (
(20,46,o),
(98,-7,o),
(263,-7,cs),
(420,-7,o),
(504,51,o),
(504,129,cs),
(504,191,o),
(468,216,o),
(382,216,cs),
(319,216,o),
(241,202,o),
(194,185,c),
(194,187,l),
(454,337,o),
(512,409,o),
(512,493,cs),
(512,600,o),
(446,627,o),
(315,627,cs),
(237,627,o),
(148,612,o),
(96,591,cs),
(49,573,o),
(21,539,o),
(21,494,cs),
(21,437,o),
(55,406,o),
(134,406,cs),
(173,406,o),
(250,418,o),
(304,433,c),
(304,431,l),
(96,317,o),
(20,231,o),
(20,135,cs)
);
}
);
width = 532;
},
{
anchors = (
{
name = bottom;
pos = (266,0);
},
{
name = center;
pos = (266,310);
},
{
name = top;
pos = (266,620);
}
);
layerId = m003;
shapes = (
{
closed = 1;
nodes = (
(20,46,o),
(98,-7,o),
(263,-7,cs),
(420,-7,o),
(504,51,o),
(504,129,cs),
(504,191,o),
(468,216,o),
(382,216,cs),
(319,216,o),
(241,202,o),
(194,185,c),
(194,187,l),
(454,337,o),
(512,409,o),
(512,493,cs),
(512,600,o),
(446,627,o),
(315,627,cs),
(237,627,o),
(148,612,o),
(96,591,cs),
(49,573,o),
(21,539,o),
(21,494,cs),
(21,437,o),
(55,406,o),
(134,406,cs),
(173,406,o),
(250,418,o),
(304,433,c),
(304,431,l),
(96,317,o),
(20,231,o),
(20,135,cs)
);
}
);
width = 532;
}
);
unicode = 122;
},
{
glyphname = zero;
lastChange = "2021-08-17 14:02:59 +0000";
layers = (
{
layerId = m01;
shapes = (
{
closed = 1;
nodes = (
(453,7,o),
(566,142,o),
(566,360,cs),
(566,561,o),
(458,698,o),
(291,698,cs),
(123,698,o),
(15,553,o),
(15,339,cs),
(15,134,o),
(118,7,o),
(277,7,cs)
);
},
{
closed = 1;
nodes = (
(254,211,o),
(228,258,o),
(228,356,cs),
(228,448,o),
(254,491,o),
(294,491,cs),
(334,491,o),
(360,448,o),
(360,356,cs),
(360,258,o),
(334,211,o),
(294,211,cs)
);
}
);
width = 581;
},
{
layerId = m003;
shapes = (
{
closed = 1;
nodes = (
(453,7,o),
(566,142,o),
(566,360,cs),
(566,561,o),
(458,698,o),
(291,698,cs),
(123,698,o),
(15,553,o),
(15,339,cs),
(15,134,o),
(118,7,o),
(277,7,cs)
);
},
{
closed = 1;
nodes = (
(254,211,o),
(228,258,o),
(228,356,cs),
(228,448,o),
(254,491,o),
(294,491,cs),
(334,491,o),
(360,448,o),
(360,356,cs),
(360,258,o),
(334,211,o),
(294,211,cs)
);
}
);
width = 581;
}
);
metricLeft = O;
metricRight = O;
unicode = 48;
},
{
glyphname = one;
lastChange = "2021-08-17 14:02:59 +0000";
layers = (
{
layerId = m01;
shapes = (
{
closed = 1;
nodes = (
(111,692,o),
(5,589,o),
(5,502,cs),
(5,455,o),
(29,428,o),
(71,428,cs),
(110,428,o),
(157,456,o),
(192,504,c),
(146,515,l),
(115,428,o),
(93,308,o),
(93,209,cs),
(93,156,o),
(97,108,o),
(106,73,cs),
(121,13,o),
(152,-11,o),
(201,-11,cs),
(244,-11,o),
(271,12,o),
(295,72,cs),
(316,126,o),
(336,252,o),
(336,364,cs),
(336,483,o),
(323,566,o),
(305,614,cs),
(284,671,o),
(251,692,o),
(202,692,cs)
);
}
);
width = 356;
},
{
layerId = m003;
shapes = (
{
closed = 1;
nodes = (
(111,692,o),
(5,589,o),
(5,502,cs),
(5,455,o),
(29,428,o),
(71,428,cs),
(110,428,o),
(157,456,o),
(192,504,c),
(146,515,l),
(115,428,o),
(93,308,o),
(93,209,cs),
(93,156,o),
(97,108,o),
(106,73,cs),
(121,13,o),
(152,-11,o),
(201,-11,cs),
(244,-11,o),
(271,12,o),
(295,72,cs),
(316,126,o),
(336,252,o),
(336,364,cs),
(336,483,o),
(323,566,o),
(305,614,cs),
(284,671,o),
(251,692,o),
(202,692,cs)
);
}
);
width = 356;
}
);
unicode = 49;
},
{
glyphname = two;
lastChange = "2021-08-17 14:02:59 +0000";
layers = (
{
layerId = m01;
shapes = (
{
closed = 1;
nodes = (
(106,687,o),
(19,616,o),
(19,534,cs),
(19,486,o),
(48,458,o),
(104,458,cs),
(155,458,o),
(182,476,o),
(218,476,cs),
(244,476,o),
(256,461,o),
(256,436,cs),
(256,399,o),
(230,368,o),
(145,303,cs),
(52,233,o),
(15,186,o),
(15,120,cs),
(15,62,o),
(39,33,o),
(99,16,cs),
(166,-3,o),
(259,-13,o),
(323,-13,cs),
(406,-13,o),
(447,26,o),
(447,95,cs),
(447,176,o),
(384,215,o),
(223,206,c),
(218,184,l),
(380,266,o),
(463,360,o),
(463,490,cs),
(463,607,o),
(389,687,o),
(239,687,cs)
);
}
);
width = 478;
},
{
layerId = m003;
shapes = (
{
closed = 1;
nodes = (
(106,687,o),
(19,616,o),
(19,534,cs),
(19,486,o),
(48,458,o),
(104,458,cs),
(155,458,o),
(182,476,o),
(218,476,cs),
(244,476,o),
(256,461,o),
(256,436,cs),
(256,399,o),
(230,368,o),
(145,303,cs),
(52,233,o),
(15,186,o),
(15,120,cs),
(15,62,o),
(39,33,o),
(99,16,cs),
(166,-3,o),
(259,-13,o),
(323,-13,cs),
(406,-13,o),
(447,26,o),
(447,95,cs),
(447,176,o),
(384,215,o),
(223,206,c),
(218,184,l),
(380,266,o),
(463,360,o),
(463,490,cs),
(463,607,o),
(389,687,o),
(239,687,cs)
);
}
);
width = 478;
}
);
unicode = 50;
},
{
glyphname = three;
lastChange = "2021-08-17 14:02:59 +0000";
layers = (
{
layerId = m01;
shapes = (
{
closed = 1;
nodes = (
(112,697,o),
(19,630,o),
(19,554,cs),
(19,506,o),
(48,478,o),
(104,478,cs),
(142,478,o),
(175,496,o),
(211,496,cs),
(234,496,o),
(246,486,o),
(246,466,cs),
(246,443,o),
(225,425,o),
(174,406,cs),
(122,389,o),
(95,365,o),
(95,327,cs),
(95,292,o),
(119,277,o),
(168,267,cs),
(230,254,o),
(244,242,o),
(244,219,cs),
(244,199,o),
(228,184,o),
(200,184,cs),
(170,184,o),
(131,202,o),
(101,202,cs),
(45,202,o),
(14,164,o),
(14,114,cs),
(13,44,o),
(65,-11,o),
(226,-11,cs),
(393,-11,o),
(477,73,o),
(477,184,cs),
(477,271,o),
(420,329,o),
(303,340,c),
(308,328,l),
(420,358,o),
(473,430,o),
(473,515,cs),
(473,637,o),
(378,697,o),
(249,697,cs)
);
}
);
width = 497;
},
{
layerId = m003;
shapes = (
{
closed = 1;
nodes = (
(112,697,o),
(19,630,o),
(19,554,cs),
(19,506,o),
(48,478,o),
(104,478,cs),
(142,478,o),
(175,496,o),
(211,496,cs),
(234,496,o),
(246,486,o),
(246,466,cs),
(246,443,o),
(225,425,o),
(174,406,cs),
(122,389,o),
(95,365,o),
(95,327,cs),
(95,292,o),
(119,277,o),
(168,267,cs),
(230,254,o),
(244,242,o),
(244,219,cs),
(244,199,o),
(228,184,o),
(200,184,cs),
(170,184,o),
(131,202,o),
(101,202,cs),
(45,202,o),
(14,164,o),
(14,114,cs),
(13,44,o),
(65,-11,o),
(226,-11,cs),
(393,-11,o),
(477,73,o),
(477,184,cs),
(477,271,o),
(420,329,o),
(303,340,c),
(308,328,l),
(420,358,o),
(473,430,o),
(473,515,cs),
(473,637,o),
(378,697,o),
(249,697,cs)
);
}
);
width = 497;
}
);
unicode = 51;
},
{
glyphname = four;
lastChange = "2021-08-17 14:02:59 +0000";
layers = (
{
background = {
shapes = (
{
closed = 1;
nodes = (
(360,-8,o),
(399,25,o),
(399,90,cs),
(399,115,o),
(392,144,o),
(383,162,c),
(375,157,l),
(388,152,o),
(408,148,o),
(428,148,cs),
(483,148,o),
(520,183,o),
(520,248,cs),
(520,310,o),
(492,344,o),
(438,344,cs),
(424,344,o),
(405,341,o),
(389,334,c),
(402,323,l),
(414,347,o),
(421,376,o),
(421,397,cs),
(421,443,o),
(401,475,o),
(347,475,cs),
(284,475,o),
(244,434,o),
(244,378,cs),
(244,356,o),
(248,331,o),
(257,311,c),
(266,331,l),
(222,338,o),
(175,334,o),
(140,319,c),
(149,316,l),
(269,468,o),
(305,544,o),
(305,610,cs),
(305,666,o),
(280,712,o),
(215,712,cs),
(135,712,o),
(98,655,o),
(60,548,cs),
(28,458,o),
(5,329,o),
(5,252,cs),
(5,175,o),
(39,133,o),
(114,133,cs),
(160,133,o),
(209,143,o),
(241,158,c),
(235,172,l),
(213,138,o),
(200,102,o),
(200,71,cs),
(200,20,o),
(231,-8,o),
(290,-8,cs)
);
}
);
};
layerId = m01;
shapes = (
{
closed = 1;
nodes = (
(376,-18,o),
(419,19,o),
(419,90,cs),
(419,115,o),
(412,144,o),
(403,162,c),
(395,157,l),
(408,152,o),
(428,148,o),
(448,148,cs),
(503,148,o),
(540,183,o),
(540,248,cs),
(540,310,o),
(512,344,o),
(458,344,cs),
(444,344,o),
(425,341,o),
(409,334,c),
(422,323,l),
(450,407,o),
(465,494,o),
(465,557,cs),
(465,657,o),
(424,712,o),
(315,712,cs),
(210,712,o),
(145,656,o),
(86,548,cs),
(41,464,o),
(5,329,o),
(5,252,cs),
(5,175,o),
(39,133,o),
(114,133,cs),
(160,133,o),
(209,143,o),
(241,158,c),
(235,172,l),
(213,138,o),
(200,102,o),
(200,71,cs),
(200,14,o),
(234,-18,o),
(300,-18,cs)
);
},
{
closed = 1;
nodes = (
(169,327,o),
(154,342,o),
(154,380,cs),
(154,444,o),
(198,521,o),
(243,521,cs),
(260,521,o),
(271,504,o),
(271,470,cs),
(271,385,o),
(239,327,o),
(192,327,cs)
);
}
);
width = 545;
},
{
associatedMasterId = m01;
layerId = "A8C125FA-60BF-44F0-ADEA-5F255D8A89EF";
name = "10 Aug 21, 02:16";
shapes = (
{
closed = 1;
nodes = (
(360,-8,o),
(399,25,o),
(399,90,cs),
(399,115,o),
(392,144,o),
(383,162,c),
(375,157,l),
(388,152,o),
(408,148,o),
(428,148,cs),
(483,148,o),
(520,183,o),
(520,248,cs),
(520,310,o),
(492,344,o),
(438,344,cs),
(424,344,o),
(405,341,o),
(389,334,c),
(402,323,l),
(414,347,o),
(421,376,o),
(421,397,cs),
(421,443,o),
(401,475,o),
(347,475,cs),
(284,475,o),
(244,434,o),
(244,378,cs),
(244,356,o),
(248,331,o),
(257,311,c),
(266,331,l),
(222,338,o),
(175,334,o),
(140,319,c),
(149,316,l),
(269,468,o),
(305,544,o),
(305,610,cs),
(305,666,o),
(280,712,o),
(215,712,cs),
(135,712,o),
(98,655,o),
(60,548,cs),
(28,458,o),
(5,329,o),
(5,252,cs),
(5,175,o),
(39,133,o),
(114,133,cs),
(160,133,o),
(209,143,o),
(241,158,c),
(235,172,l),
(213,138,o),
(200,102,o),
(200,71,cs),
(200,20,o),
(231,-8,o),
(290,-8,cs)
);
}
);
width = 525;
},
{
background = {
shapes = (
{
closed = 1;
nodes = (
(360,-8,o),
(399,25,o),
(399,90,cs),
(399,115,o),
(392,144,o),
(383,162,c),
(375,157,l),
(388,152,o),
(408,148,o),
(428,148,cs),
(483,148,o),
(520,183,o),
(520,248,cs),
(520,310,o),
(492,344,o),
(438,344,cs),
(424,344,o),
(405,341,o),
(389,334,c),
(402,323,l),
(414,347,o),
(421,376,o),
(421,397,cs),
(421,443,o),
(401,475,o),
(347,475,cs),
(284,475,o),
(244,434,o),
(244,378,cs),
(244,356,o),
(248,331,o),
(257,311,c),
(266,331,l),
(222,338,o),
(175,334,o),
(140,319,c),
(149,316,l),
(269,468,o),
(305,544,o),
(305,610,cs),
(305,666,o),
(280,712,o),
(215,712,cs),
(135,712,o),
(98,655,o),
(60,548,cs),
(28,458,o),
(5,329,o),
(5,252,cs),
(5,175,o),
(39,133,o),
(114,133,cs),
(160,133,o),
(209,143,o),
(241,158,c),
(235,172,l),
(213,138,o),
(200,102,o),
(200,71,cs),
(200,20,o),
(231,-8,o),
(290,-8,cs)
);
}
);
};
layerId = m003;
shapes = (
{
closed = 1;
nodes = (
(376,-18,o),
(419,19,o),
(419,90,cs),
(419,115,o),
(412,144,o),
(403,162,c),
(395,157,l),
(408,152,o),
(428,148,o),
(448,148,cs),
(503,148,o),
(540,183,o),
(540,248,cs),
(540,310,o),
(512,344,o),
(458,344,cs),
(444,344,o),
(425,341,o),
(409,334,c),
(422,323,l),
(450,407,o),
(465,494,o),
(465,557,cs),
(465,657,o),
(424,712,o),
(315,712,cs),
(210,712,o),
(145,656,o),
(86,548,cs),
(41,464,o),
(5,329,o),
(5,252,cs),
(5,175,o),
(39,133,o),
(114,133,cs),
(160,133,o),
(209,143,o),
(241,158,c),
(235,172,l),
(213,138,o),
(200,102,o),
(200,71,cs),
(200,14,o),
(234,-18,o),
(300,-18,cs)
);
},
{
closed = 1;
nodes = (
(169,327,o),
(154,342,o),
(154,380,cs),
(154,444,o),
(198,521,o),
(243,521,cs),
(260,521,o),
(271,504,o),
(271,470,cs),
(271,385,o),
(239,327,o),
(192,327,cs)
);
}
);
width = 545;
},
{
associatedMasterId = m003;
layerId = "791C0273-05C5-4DE1-A1FC-FB33670BEB88";
name = "10 Aug 21, 02:16";
shapes = (
{
closed = 1;
nodes = (
(360,-8,o),
(399,25,o),
(399,90,cs),
(399,115,o),
(392,144,o),
(383,162,c),
(375,157,l),
(388,152,o),
(408,148,o),
(428,148,cs),
(483,148,o),
(520,183,o),
(520,248,cs),
(520,310,o),
(492,344,o),
(438,344,cs),
(424,344,o),
(405,341,o),
(389,334,c),
(402,323,l),
(414,347,o),
(421,376,o),
(421,397,cs),
(421,443,o),
(401,475,o),
(347,475,cs),
(284,475,o),
(244,434,o),
(244,378,cs),
(244,356,o),
(248,331,o),
(257,311,c),
(266,331,l),
(222,338,o),
(175,334,o),
(140,319,c),
(149,316,l),
(269,468,o),
(305,544,o),
(305,610,cs),
(305,666,o),
(280,712,o),
(215,712,cs),
(135,712,o),
(98,655,o),
(60,548,cs),
(28,458,o),
(5,329,o),
(5,252,cs),
(5,175,o),
(39,133,o),
(114,133,cs),
(160,133,o),
(209,143,o),
(241,158,c),
(235,172,l),
(213,138,o),
(200,102,o),
(200,71,cs),
(200,20,o),
(231,-8,o),
(290,-8,cs)
);
}
);
width = 525;
}
);
unicode = 52;
},
{
glyphname = five;
lastChange = "2021-08-17 14:02:59 +0000";
layers = (
{
background = {
shapes = (
{
closed = 1;
nodes = (
(108,697,o),
(19,630,o),
(19,554,cs),
(19,506,o),
(48,478,o),
(104,478,cs),
(146,478,o),
(182,496,o),
(221,496,cs),
(244,496,o),
(256,486,o),
(256,466,cs),
(256,443,o),
(231,427,o),
(174,406,cs),
(122,389,o),
(95,365,o),
(95,327,cs),
(95,292,o),
(119,277,o),
(168,267,cs),
(230,254,o),
(244,242,o),
(244,219,cs),
(244,199,o),
(228,184,o),
(200,184,cs),
(170,184,o),
(131,202,o),
(101,202,cs),
(45,202,o),
(14,164,o),
(14,114,cs),
(13,44,o),
(62,-11,o),
(216,-11,cs),
(376,-11,o),
(457,73,o),
(457,184,cs),
(457,271,o),
(400,329,o),
(283,340,c),
(288,328,l),
(407,358,o),
(463,430,o),
(463,515,cs),
(463,637,o),
(368,697,o),
(239,697,cs)
);
}
);
};
layerId = m01;
shapes = (
{
closed = 1;
nodes = (
(458,630,o),
(421,663,o),
(349,675,cs),
(299,683,o),
(216,690,o),
(164,690,cs),
(102,690,o),
(76,658,o),
(66,600,cs),
(56,540,o),
(45,415,o),
(45,347,cs),
(45,286,o),
(67,266,o),
(118,266,cs),
(131,266,o),
(156,268,o),
(176,268,cs),
(219,268,o),
(244,254,o),
(244,223,cs),
(244,203,o),
(228,184,o),
(200,184,cs),
(170,184,o),
(131,202,o),
(101,202,cs),
(45,202,o),
(14,164,o),
(14,114,cs),
(13,44,o),
(62,-11,o),
(216,-11,cs),
(376,-11,o),
(457,82,o),
(457,204,cs),
(457,318,o),
(384,390,o),
(233,390,cs),
(214,390,o),
(195,388,o),
(176,384,c),
(199,348,l),
(212,384,o),
(221,441,o),
(223,490,c),
(209,485,l),
(247,474,o),
(303,466,o),
(337,466,cs),
(414,466,o),
(458,509,o),
(458,571,cs)
);
}
);
width = 478;
},
{
background = {
shapes = (
{
closed = 1;
nodes = (
(108,697,o),
(19,630,o),
(19,554,cs),
(19,506,o),
(48,478,o),
(104,478,cs),
(146,478,o),
(182,496,o),
(221,496,cs),
(244,496,o),
(256,486,o),
(256,466,cs),
(256,443,o),
(231,427,o),
(174,406,cs),
(122,389,o),
(95,365,o),
(95,327,cs),
(95,292,o),
(119,277,o),
(168,267,cs),
(230,254,o),
(244,242,o),
(244,219,cs),
(244,199,o),
(228,184,o),
(200,184,cs),
(170,184,o),
(131,202,o),
(101,202,cs),
(45,202,o),
(14,164,o),
(14,114,cs),
(13,44,o),
(62,-11,o),
(216,-11,cs),
(376,-11,o),
(457,73,o),
(457,184,cs),
(457,271,o),
(400,329,o),
(283,340,c),
(288,328,l),
(407,358,o),
(463,430,o),
(463,515,cs),
(463,637,o),
(368,697,o),
(239,697,cs)
);
}
);
};
layerId = m003;
shapes = (
{
closed = 1;
nodes = (
(458,630,o),
(421,663,o),
(349,675,cs),
(299,683,o),
(216,690,o),
(164,690,cs),
(102,690,o),
(76,658,o),
(66,600,cs),
(56,540,o),
(45,415,o),
(45,347,cs),
(45,286,o),
(67,266,o),
(118,266,cs),
(131,266,o),
(156,268,o),
(176,268,cs),
(219,268,o),
(244,254,o),
(244,223,cs),
(244,203,o),
(228,184,o),
(200,184,cs),
(170,184,o),
(131,202,o),
(101,202,cs),
(45,202,o),
(14,164,o),
(14,114,cs),
(13,44,o),
(62,-11,o),
(216,-11,cs),
(376,-11,o),
(457,82,o),
(457,204,cs),
(457,318,o),
(384,390,o),
(233,390,cs),
(214,390,o),
(195,388,o),
(176,384,c),
(199,348,l),
(212,384,o),
(221,441,o),
(223,490,c),
(209,485,l),
(247,474,o),
(303,466,o),
(337,466,cs),
(414,466,o),
(458,509,o),
(458,571,cs)
);
}
);
width = 478;
}
);
unicode = 53;
},
{
glyphname = six;
lastChange = "2021-08-17 14:02:59 +0000";
layers = (
{
layerId = m01;
shapes = (
{
closed = 1;
nodes = (
(491,662,o),
(447,704,o),
(378,704,cs),
(304,704,o),
(241,669,o),
(150,559,cs),
(54,442,o),
(10,340,o),
(10,213,cs),
(10,81,o),
(88,-10,o),
(264,-10,cs),
(408,-10,o),
(518,71,o),
(518,214,cs),
(518,333,o),
(440,423,o),
(289,423,cs),
(264,423,o),
(236,419,o),
(210,409,c),
(257,410,l),
(415,457,o),
(491,523,o),
(491,598,cs)
);
},
{
closed = 1;
nodes = (
(317,285,o),
(342,268,o),
(342,239,cs),
(342,204,o),
(310,179,o),
(256,179,cs),
(215,179,o),
(189,197,o),
(189,226,cs),
(189,260,o),
(222,285,o),
(281,285,cs)
);
}
);
width = 528;
},
{
layerId = m003;
shapes = (
{
closed = 1;
nodes = (
(491,662,o),
(447,704,o),
(378,704,cs),
(304,704,o),
(241,669,o),
(150,559,cs),
(54,442,o),
(10,340,o),
(10,213,cs),
(10,81,o),
(88,-10,o),
(264,-10,cs),
(408,-10,o),
(518,71,o),
(518,214,cs),
(518,333,o),
(440,423,o),
(289,423,cs),
(264,423,o),
(236,419,o),
(210,409,c),
(257,410,l),
(415,457,o),
(491,523,o),
(491,598,cs)
);
},
{
closed = 1;
nodes = (
(317,285,o),
(342,268,o),
(342,239,cs),
(342,204,o),
(310,179,o),
(256,179,cs),
(215,179,o),
(189,197,o),
(189,226,cs),
(189,260,o),
(222,285,o),
(281,285,cs)
);
}
);
width = 528;
}
);
unicode = 54;
},
{
glyphname = seven;
lastChange = "2021-08-17 14:02:59 +0000";
layers = (
{
layerId = m01;
shapes = (
{
closed = 1;
nodes = (
(65,691,o),
(5,651,o),
(5,564,cs),
(5,491,o),
(50,456,o),
(145,454,cs),
(188,453,o),
(248,458,o),
(298,468,c),
(263,501,l),
(187,405,o),
(115,285,o),
(78,202,cs),
(55,151,o),
(44,107,o),
(44,79,cs),
(44,19,o),
(79,-11,o),
(145,-11,cs),
(248,-11,o),
(307,101,o),
(398,377,cs),
(432,480,o),
(445,550,o),
(445,580,cs),
(445,644,o),
(401,673,o),
(326,681,cs),
(271,687,o),
(210,691,o),
(162,691,cs)
);
}
);
width = 450;
},
{
layerId = m003;
shapes = (
{
closed = 1;
nodes = (
(65,691,o),
(5,651,o),
(5,564,cs),
(5,491,o),
(50,456,o),
(145,454,cs),
(188,453,o),
(248,458,o),
(298,468,c),
(263,501,l),
(187,405,o),
(115,285,o),
(78,202,cs),
(55,151,o),
(44,107,o),
(44,79,cs),
(44,19,o),
(79,-11,o),
(145,-11,cs),
(248,-11,o),
(307,101,o),
(398,377,cs),
(432,480,o),
(445,550,o),
(445,580,cs),
(445,644,o),
(401,673,o),
(326,681,cs),
(271,687,o),
(210,691,o),
(162,691,cs)
);
}
);
width = 450;
}
);
unicode = 55;
},
{
glyphname = eight;
lastChange = "2021-08-17 14:02:59 +0000";
layers = (
{
layerId = m01;
shapes = (
{
closed = 1;
nodes = (
(161,705,o),
(49,630,o),
(49,479,cs),
(49,382,o),
(113,328,o),
(207,324,c),
(204,346,l),
(94,323,o),
(32,257,o),
(32,160,cs),
(32,59,o),
(93,-11,o),
(268,-11,cs),
(473,-11,o),
(563,58,o),
(563,179,cs),
(563,273,o),
(512,327,o),
(425,345,c),
(429,331,l),
(503,361,o),
(554,423,o),
(554,511,cs),
(554,636,o),
(469,705,o),
(305,705,cs)
);
},
{
closed = 1;
nodes = (
(361,431,o),
(333,414,o),
(281,414,cs),
(239,414,o),
(222,432,o),
(222,462,cs),
(222,495,o),
(250,517,o),
(300,517,cs),
(333,517,o),
(361,503,o),
(361,470,cs)
);
},
{
closed = 1;
nodes = (
(356,280,o),
(372,260,o),
(372,230,cs),
(372,196,o),
(348,173,o),
(291,173,cs),
(244,173,o),
(220,187,o),
(220,222,cs),
(220,253,o),
(247,280,o),
(301,280,cs)
);
}
);
width = 600;
},
{
layerId = m003;
shapes = (
{
closed = 1;
nodes = (
(161,705,o),
(49,630,o),
(49,479,cs),
(49,382,o),
(113,328,o),
(207,324,c),
(204,346,l),
(94,323,o),
(32,257,o),
(32,160,cs),
(32,59,o),
(93,-11,o),
(268,-11,cs),
(473,-11,o),
(563,58,o),
(563,179,cs),
(563,273,o),
(512,327,o),
(425,345,c),
(429,331,l),
(503,361,o),
(554,423,o),
(554,511,cs),
(554,636,o),
(469,705,o),
(305,705,cs)
);
},
{
closed = 1;
nodes = (
(361,431,o),
(333,414,o),
(281,414,cs),
(239,414,o),
(222,432,o),
(222,462,cs),
(222,495,o),
(250,517,o),
(300,517,cs),
(333,517,o),
(361,503,o),
(361,470,cs)
);
},
{
closed = 1;
nodes = (
(356,280,o),
(372,260,o),
(372,230,cs),
(372,196,o),
(348,173,o),
(291,173,cs),
(244,173,o),
(220,187,o),
(220,222,cs),
(220,253,o),
(247,280,o),
(301,280,cs)
);
}
);
width = 600;
}
);
unicode = 56;
},
{
glyphname = nine;
lastChange = "2021-08-17 14:02:59 +0000";
layers = (
{
layerId = m01;
shapes = (
{
closed = 1;
nodes = (
(27,37,o),
(84,-10,o),
(200,-10,cs),
(298,-10,o),
(389,24,o),
(452,104,cs),
(503,168,o),
(538,259,o),
(538,371,cs),
(538,583,o),
(430,704,o),
(254,704,cs),
(110,704,o),
(10,620,o),
(10,470,cs),
(10,357,o),
(81,271,o),
(219,271,cs),
(260,271,o),
(307,281,o),
(346,309,c),
(315,321,l),
(317,311,o),
(318,300,o),
(318,289,cs),
(318,244,o),
(294,209,o),
(221,209,cs),
(203,209,o),
(169,212,o),
(146,212,cs),
(71,212,o),
(27,172,o),
(27,113,cs)
);
},
{
closed = 1;
nodes = (
(313,515,o),
(339,492,o),
(339,461,cs),
(339,423,o),
(309,399,o),
(262,399,cs),
(214,399,o),
(186,422,o),
(186,454,cs),
(186,492,o),
(219,515,o),
(267,515,cs)
);
}
);
width = 548;
},
{
layerId = m003;
shapes = (
{
closed = 1;
nodes = (
(27,37,o),
(84,-10,o),
(200,-10,cs),
(298,-10,o),
(389,24,o),
(452,104,cs),
(503,168,o),
(538,259,o),
(538,371,cs),
(538,583,o),
(430,704,o),
(254,704,cs),
(110,704,o),
(10,620,o),
(10,470,cs),
(10,357,o),
(81,271,o),
(219,271,cs),
(260,271,o),
(307,281,o),
(346,309,c),
(315,321,l),
(317,311,o),
(318,300,o),
(318,289,cs),
(318,244,o),
(294,209,o),
(221,209,cs),
(203,209,o),
(169,212,o),
(146,212,cs),
(71,212,o),
(27,172,o),
(27,113,cs)
);
},
{
closed = 1;
nodes = (
(313,515,o),
(339,492,o),
(339,461,cs),
(339,423,o),
(309,399,o),
(262,399,cs),
(214,399,o),
(186,422,o),
(186,454,cs),
(186,492,o),
(219,515,o),
(267,515,cs)
);
}
);
width = 548;
}
);
unicode = 57;
},
{
glyphname = period;
lastChange = "2021-08-17 14:02:59 +0000";
layers = (
{
layerId = m01;
shapes = (
{
closed = 1;
nodes = (
(38,235,o),
(15,172,o),
(15,106,cs),
(15,32,o),
(43,-10,o),
(105,-10,cs),
(182,-10,o),
(215,47,o),
(215,117,cs),
(215,194,o),
(175,235,o),
(116,235,cs)
);
}
);
width = 230;
},
{
layerId = m003;
shapes = (
{
closed = 1;
nodes = (
(38,235,o),
(15,172,o),
(15,106,cs),
(15,32,o),
(43,-10,o),
(105,-10,cs),
(182,-10,o),
(215,47,o),
(215,117,cs),
(215,194,o),
(175,235,o),
(116,235,cs)
);
}
);
width = 230;
}
);
metricRight = "=|";
unicode = 46;
},
{
glyphname = comma;
lastChange = "2021-08-17 14:02:59 +0000";
layers = (
{
background = {
shapes = (
{
closed = 1;
nodes = (
(54,193,o),
(35,141,o),
(35,86,cs),
(35,25,o),
(58,-10,o),
(110,-10,cs),
(174,-10,o),
(201,37,o),
(201,95,cs),
(201,159,o),
(168,193,o),
(119,193,cs)
);
}
);
};
layerId = m01;
shapes = (
{
closed = 1;
nodes = (
(113,25,l),
(72,-28,o),
(63,-56,o),
(63,-73,cs),
(63,-97,o),
(78,-109,o),
(100,-109,cs),
(122,-109,o),
(146,-91,o),
(171,-53,cs),
(201,-6,o),
(221,56,o),
(221,105,cs),
(221,192,o),
(180,233,o),
(119,233,cs),
(39,233,o),
(15,170,o),
(15,116,cs),
(15,48,o),
(43,10,o),
(120,10,c)
);
}
);
width = 236;
},
{
background = {
shapes = (
{
closed = 1;
nodes = (
(54,193,o),
(35,141,o),
(35,86,cs),
(35,25,o),
(58,-10,o),
(110,-10,cs),
(174,-10,o),
(201,37,o),
(201,95,cs),
(201,159,o),
(168,193,o),
(119,193,cs)
);
}
);
};
layerId = m003;
shapes = (
{
closed = 1;
nodes = (
(113,25,l),
(72,-28,o),
(63,-56,o),
(63,-73,cs),
(63,-97,o),
(78,-109,o),
(100,-109,cs),
(122,-109,o),
(146,-91,o),
(171,-53,cs),
(201,-6,o),
(221,56,o),
(221,105,cs),
(221,192,o),
(180,233,o),
(119,233,cs),
(39,233,o),
(15,170,o),
(15,116,cs),
(15,48,o),
(43,10,o),
(120,10,c)
);
}
);
width = 236;
}
);
metricLeft = period;
metricRight = period;
unicode = 44;
},
{
glyphname = exclam;
lastChange = "2021-08-17 14:02:59 +0000";
layers = (
{
layerId = m01;
shapes = (
{
closed = 1;
nodes = (
(12,22,o),
(49,-11,o),
(117,-11,cs),
(180,-11,o),
(230,16,o),
(230,80,cs),
(230,132,o),
(193,165,o),
(127,165,cs),
(69,165,o),
(12,136,o),
(12,71,cs)
);
},
{
closed = 1;
nodes = (
(51,743,o),
(30,686,o),
(30,527,cs),
(30,313,o),
(50,225,o),
(108,225,cs),
(146,225,o),
(174,255,o),
(194,327,cs),
(213,393,o),
(225,493,o),
(225,587,cs),
(225,687,o),
(200,743,o),
(132,743,cs)
);
}
);
width = 242;
},
{
layerId = m003;
shapes = (
{
closed = 1;
nodes = (
(12,22,o),
(49,-11,o),
(117,-11,cs),
(180,-11,o),
(230,16,o),
(230,80,cs),
(230,132,o),
(193,165,o),
(127,165,cs),
(69,165,o),
(12,136,o),
(12,71,cs)
);
},
{
closed = 1;
nodes = (
(51,743,o),
(30,686,o),
(30,527,cs),
(30,313,o),
(50,225,o),
(108,225,cs),
(146,225,o),
(174,255,o),
(194,327,cs),
(213,393,o),
(225,493,o),
(225,587,cs),
(225,687,o),
(200,743,o),
(132,743,cs)
);
}
);
width = 242;
}
);
metricRight = "=|";
unicode = 33;
},
{
glyphname = question;
lastChange = "2021-08-17 14:02:59 +0000";
layers = (
{
layerId = m01;
shapes = (
{
closed = 1;
nodes = (
(80,741,o),
(10,698,o),
(10,607,cs),
(10,537,o),
(50,497,o),
(121,497,cs),
(145,497,o),
(173,501,o),
(192,501,cs),
(225,501,o),
(238,485,o),
(238,460,cs),
(238,422,o),
(205,396,o),
(149,364,cs),
(107,339,o),
(89,317,o),
(89,292,cs),
(89,251,o),
(119,225,o),
(160,225,cs),
(194,225,o),
(233,238,o),
(279,265,cs),
(375,322,o),
(430,400,o),
(430,516,cs),
(430,649,o),
(345,741,o),
(184,741,cs)
);
},
{
closed = 1;
nodes = (
(60,22,o),
(97,-11,o),
(165,-11,cs),
(228,-11,o),
(278,16,o),
(278,80,cs),
(278,132,o),
(241,165,o),
(175,165,cs),
(117,165,o),
(60,136,o),
(60,71,cs)
);
}
);
width = 440;
},
{
layerId = m003;
shapes = (
{
closed = 1;
nodes = (
(80,741,o),
(10,698,o),
(10,607,cs),
(10,537,o),
(50,497,o),
(121,497,cs),
(145,497,o),
(173,501,o),
(192,501,cs),
(225,501,o),
(238,485,o),
(238,460,cs),
(238,422,o),
(205,396,o),
(149,364,cs),
(107,339,o),
(89,317,o),
(89,292,cs),
(89,251,o),
(119,225,o),
(160,225,cs),
(194,225,o),
(233,238,o),
(279,265,cs),
(375,322,o),
(430,400,o),
(430,516,cs),
(430,649,o),
(345,741,o),
(184,741,cs)
);
},
{
closed = 1;
nodes = (
(60,22,o),
(97,-11,o),
(165,-11,cs),
(228,-11,o),
(278,16,o),
(278,80,cs),
(278,132,o),
(241,165,o),
(175,165,cs),
(117,165,o),
(60,136,o),
(60,71,cs)
);
}
);
width = 440;
}
);
unicode = 63;
},
{
glyphname = quotesingle;
lastChange = "2021-08-17 14:02:59 +0000";
layers = (
{
layerId = m01;
shapes = (
{
closed = 1;
nodes = (
(35,739,o),
(5,698,o),
(5,600,cs),
(5,516,o),
(21,441,o),
(60,441,cs),
(99,441,o),
(139,529,o),
(139,627,cs),
(139,713,o),
(113,739,o),
(79,739,cs)
);
}
);
width = 144;
},
{
layerId = m003;
shapes = (
{
closed = 1;
nodes = (
(35,739,o),
(5,698,o),
(5,600,cs),
(5,516,o),
(21,441,o),
(60,441,cs),
(99,441,o),
(139,529,o),
(139,627,cs),
(139,713,o),
(113,739,o),
(79,739,cs)
);
}
);
width = 144;
}
);
unicode = 39;
},
{
glyphname = dieresiscomb;
lastChange = "2021-08-17 14:02:59 +0000";
layers = (
{
anchors = (
{
name = _top;
pos = (225,620);
},
{
name = top;
pos = (225,807);
}
);
layerId = m01;
shapes = (
{
closed = 1;
nodes = (
(173,639,o),
(214,665,o),
(214,716,cs),
(214,760,o),
(187,797,o),
(131,797,cs),
(67,797,o),
(30,767,o),
(30,713,cs),
(30,674,o),
(55,639,o),
(113,639,cs)
);
},
{
closed = 1;
nodes = (
(275,807,o),
(236,778,o),
(236,723,cs),
(236,680,o),
(264,644,o),
(323,644,cs),
(385,644,o),
(420,673,o),
(420,726,cs),
(420,769,o),
(394,807,o),
(333,807,cs)
);
}
);
width = 450;
},
{
anchors = (
{
name = _top;
pos = (225,620);
},
{
name = top;
pos = (225,807);
}
);
layerId = m003;
shapes = (
{
closed = 1;
nodes = (
(173,639,o),
(214,665,o),
(214,716,cs),
(214,760,o),
(187,797,o),
(131,797,cs),
(67,797,o),
(30,767,o),
(30,713,cs),
(30,674,o),
(55,639,o),
(113,639,cs)
);
},
{
closed = 1;
nodes = (
(275,807,o),
(236,778,o),
(236,723,cs),
(236,680,o),
(264,644,o),
(323,644,cs),
(385,644,o),
(420,673,o),
(420,726,cs),
(420,769,o),
(394,807,o),
(333,807,cs)
);
}
);
width = 450;
}
);
metricLeft = "=30";
metricRight = "=30";
unicode = 776;
},
{
glyphname = gravecomb;
lastChange = "2021-08-17 14:02:59 +0000";
layers = (
{
anchors = (
{
name = _top;
pos = (199,620);
},
{
name = top;
pos = (199,805);
}
);
layerId = m01;
shapes = (
{
closed = 1;
nodes = (
(288,698,o),
(261,721,o),
(222,750,cs),
(175,785,o),
(135,805,o),
(105,805,cs),
(60,805,o),
(30,758,o),
(30,730,cs),
(30,702,o),
(68,687,o),
(108,674,cs),
(159,657,o),
(221,643,o),
(253,643,cs),
(275,643,o),
(288,658,o),
(288,676,cs)
);
}
);
width = 318;
},
{
anchors = (
{
name = _top;
pos = (199,620);
},
{
name = top;
pos = (199,805);
}
);
layerId = m003;
shapes = (
{
closed = 1;
nodes = (
(288,698,o),
(261,721,o),
(222,750,cs),
(175,785,o),
(135,805,o),
(105,805,cs),
(60,805,o),
(30,758,o),
(30,730,cs),
(30,702,o),
(68,687,o),
(108,674,cs),
(159,657,o),
(221,643,o),
(253,643,cs),
(275,643,o),
(288,658,o),
(288,676,cs)
);
}
);
width = 318;
}
);
metricLeft = "=30";
metricRight = "=30";
unicode = 768;
},
{
glyphname = acutecomb;
lastChange = "2021-08-17 14:02:59 +0000";
layers = (
{
background = {
shapes = (
{
closed = 1;
nodes = (
(50,658,o),
(63,643,o),
(85,643,cs),
(117,643,o),
(170,656,o),
(220,676,cs),
(260,692,o),
(288,709,o),
(288,737,cs),
(288,765,o),
(258,805,o),
(213,805,cs),
(183,805,o),
(144,786,o),
(106,754,cs),
(67,721,o),
(50,698,o),
(50,676,cs)
);
}
);
};
layerId = m01;
shapes = (
{
pos = (318,0);
ref = gravecomb;
scale = (-1,1);
}
);
width = 318;
},
{
background = {
shapes = (
{
closed = 1;
nodes = (
(50,658,o),
(63,643,o),
(85,643,cs),
(117,643,o),
(170,656,o),
(220,676,cs),
(260,692,o),
(288,709,o),
(288,737,cs),
(288,765,o),
(258,805,o),
(213,805,cs),
(183,805,o),
(144,786,o),
(106,754,cs),
(67,721,o),
(50,698,o),
(50,676,cs)
);
}
);
};
layerId = m003;
shapes = (
{
pos = (318,0);
ref = gravecomb;
scale = (-1,1);
}
);
width = 318;
}
);
metricLeft = "=30";
metricRight = "=30";
unicode = 769;
},
{
glyphname = circumflexcomb;
lastChange = "2021-08-17 14:02:59 +0000";
layers = (
{
anchors = (
{
name = _top;
pos = (189,620);
},
{
name = top;
pos = (189,810);
}
);
layerId = m01;
shapes = (
{
closed = 1;
nodes = (
(163,810,o),
(126,789,o),
(88,763,cs),
(52,738,o),
(30,713,o),
(30,683,cs),
(30,658,o),
(50,638,o),
(77,638,cs),
(110,638,o),
(152,670,o),
(195,746,c),
(177,735,l),
(204,678,o),
(245,643,o),
(283,643,cs),
(319,643,o),
(348,666,o),
(348,703,cs),
(348,731,o),
(327,752,o),
(292,773,cs),
(257,794,o),
(214,810,o),
(193,810,cs)
);
}
);
width = 378;
},
{
anchors = (
{
name = _top;
pos = (189,620);
},
{
name = top;
pos = (189,810);
}
);
layerId = m003;
shapes = (
{
closed = 1;
nodes = (
(163,810,o),
(126,789,o),
(88,763,cs),
(52,738,o),
(30,713,o),
(30,683,cs),
(30,658,o),
(50,638,o),
(77,638,cs),
(110,638,o),
(152,670,o),
(195,746,c),
(177,735,l),
(204,678,o),
(245,643,o),
(283,643,cs),
(319,643,o),
(348,666,o),
(348,703,cs),
(348,731,o),
(327,752,o),
(292,773,cs),
(257,794,o),
(214,810,o),
(193,810,cs)
);
}
);
width = 378;
}
);
metricLeft = "=30";
metricRight = "=30";
unicode = 770;
},
{
glyphname = ringcomb;
lastChange = "2021-08-17 14:02:59 +0000";
layers = (
{
anchors = (
{
name = _top;
pos = (161,620);
},
{
name = top;
pos = (161,834);
}
);
layerId = m01;
shapes = (
{
closed = 1;
nodes = (
(241,641,o),
(291,682,o),
(291,741,cs),
(291,791,o),
(254,834,o),
(171,834,cs),
(79,834,o),
(30,790,o),
(30,729,cs),
(30,669,o),
(85,641,o),
(159,641,cs)
);
},
{
closed = 1;
nodes = (
(122,702,o),
(101,716,o),
(101,736,cs),
(101,755,o),
(120,775,o),
(161,775,cs),
(201,775,o),
(220,760,o),
(220,737,cs),
(220,714,o),
(190,702,o),
(153,702,cs)
);
}
);
width = 321;
},
{
anchors = (
{
name = _top;
pos = (161,620);
},
{
name = top;
pos = (161,834);
}
);
layerId = m003;
shapes = (
{
closed = 1;
nodes = (
(241,641,o),
(291,682,o),
(291,741,cs),
(291,791,o),
(254,834,o),
(171,834,cs),
(79,834,o),
(30,790,o),
(30,729,cs),
(30,669,o),
(85,641,o),
(159,641,cs)
);
},
{
closed = 1;
nodes = (
(122,702,o),
(101,716,o),
(101,736,cs),
(101,755,o),
(120,775,o),
(161,775,cs),
(201,775,o),
(220,760,o),
(220,737,cs),
(220,714,o),
(190,702,o),
(153,702,cs)
);
}
);
width = 321;
}
);
metricLeft = "=30";
metricRight = "=30";
unicode = 778;
},
{
glyphname = tildecomb;
lastChange = "2021-08-17 14:02:59 +0000";
layers = (
{
anchors = (
{
name = _top;
pos = (222,620);
},
{
name = top;
pos = (222,809);
}
);
layerId = m01;
shapes = (
{
closed = 1;
nodes = (
(84,794,o),
(30,744,o),
(30,691,cs),
(30,661,o),
(53,637,o),
(87,637,cs),
(125,637,o),
(145,656,o),
(155,703,cs),
(159,723,o),
(167,723,o),
(176,711,cs),
(210,667,o),
(248,644,o),
(297,644,cs),
(378,644,o),
(414,717,o),
(414,758,cs),
(414,790,o),
(397,809,o),
(362,809,cs),
(325,809,o),
(307,789,o),
(296,745,cs),
(293,736,o),
(287,735,o),
(278,743,cs),
(236,777,o),
(206,794,o),
(159,794,cs)
);
}
);
width = 444;
},
{
anchors = (
{
name = _top;
pos = (222,620);
},
{
name = top;
pos = (222,809);
}
);
layerId = m003;
shapes = (
{
closed = 1;
nodes = (
(84,794,o),
(30,744,o),
(30,691,cs),
(30,661,o),
(53,637,o),
(87,637,cs),
(125,637,o),
(145,656,o),
(155,703,cs),
(159,723,o),
(167,723,o),
(176,711,cs),
(210,667,o),
(248,644,o),
(297,644,cs),
(378,644,o),
(414,717,o),
(414,758,cs),
(414,790,o),
(397,809,o),
(362,809,cs),
(325,809,o),
(307,789,o),
(296,745,cs),
(293,736,o),
(287,735,o),
(278,743,cs),
(236,777,o),
(206,794,o),
(159,794,cs)
);
}
);
width = 444;
}
);
metricLeft = "=30";
metricRight = "=30";
unicode = 771;
},
{
glyphname = cedillacomb;
lastChange = "2021-08-17 14:02:59 +0000";
layers = (
{
anchors = (
{
name = _bottom;
pos = (125,0);
},
{
name = bottom;
pos = (125,-208);
}
);
layerId = m01;
shapes = (
{
closed = 1;
nodes = (
(176,-208,o),
(240,-157,o),
(240,-97,cs),
(240,-27,o),
(166,11,o),
(102,11,cs),
(75,11,o),
(54,2,o),
(54,-25,cs),
(54,-54,o),
(76,-69,o),
(134,-80,cs),
(155,-84,o),
(152,-93,o),
(139,-96,cs),
(126,-99,o),
(105,-102,o),
(79,-107,cs),
(53,-112,o),
(30,-126,o),
(30,-159,cs),
(30,-192,o),
(50,-208,o),
(91,-208,cs)
);
}
);
width = 270;
},
{
anchors = (
{
name = _bottom;
pos = (125,0);
},
{
name = bottom;
pos = (125,-208);
}
);
layerId = m003;
shapes = (
{
closed = 1;
nodes = (
(176,-208,o),
(240,-157,o),
(240,-97,cs),
(240,-27,o),
(166,11,o),
(102,11,cs),
(75,11,o),
(54,2,o),
(54,-25,cs),
(54,-54,o),
(76,-69,o),
(134,-80,cs),
(155,-84,o),
(152,-93,o),
(139,-96,cs),
(126,-99,o),
(105,-102,o),
(79,-107,cs),
(53,-112,o),
(30,-126,o),
(30,-159,cs),
(30,-192,o),
(50,-208,o),
(91,-208,cs)
);
}
);
width = 270;
}
);
metricLeft = "=30";
metricRight = "=30";
unicode = 807;
},
